ply
format ascii 1.0
comment Created by Blender 2.75 (sub 0) - www.blender.org, source file: 'ares.blend'
element vertex 88
property float x
property float y
property float z
property float nx
property float ny
property float nz
property float s
property float t
element face 22
property list uchar uint vertex_indices
end_header
2.137454 0.027509 -0.925582 0.858796 -0.512318 0.000000 0.044815 0.521653
2.532995 0.690554 -0.222822 0.858796 -0.512318 0.000000 0.463446 0.521653
2.506938 0.646874 -0.193464 0.858796 -0.512318 0.000000 0.463446 0.940283
2.163512 0.071190 -0.762968 0.858796 -0.512318 0.000000 0.044815 0.940283
2.532995 0.690554 0.222822 0.038481 0.657988 0.752044 0.044815 0.521653
-1.155602 0.989412 0.158817 0.038481 0.657988 0.752044 0.463446 0.521653
-1.155602 0.228814 0.815554 0.038481 0.657988 0.752044 0.463446 0.940283
2.137454 0.027509 0.831918 0.038481 0.657988 0.752044 0.044815 0.940283
-1.155602 0.228814 -0.815554 -0.169359 -0.985554 0.000000 0.044815 0.521653
-1.155602 0.228814 0.815554 -0.169359 -0.985554 0.000000 0.463446 0.521653
-3.286153 0.594931 0.777497 -0.169359 -0.985554 0.000000 0.463446 0.940283
-3.286153 0.594931 -0.777497 -0.169359 -0.985554 0.000000 0.044815 0.940283
2.137454 0.027509 -0.925582 0.031003 0.685775 -0.727153 0.463446 0.940283
-1.155602 0.228814 -0.815554 0.031003 0.685775 -0.727153 0.044815 0.940283
-1.155602 0.989412 -0.158817 0.031003 0.685775 -0.727153 0.044815 0.521653
2.532995 0.690554 -0.222822 0.031003 0.685775 -0.727153 0.463446 0.521653
2.137454 0.027509 -0.925582 -0.061016 -0.998137 0.000000 0.044815 0.521653
2.137454 0.027509 0.831918 -0.061016 -0.998137 0.000000 0.463446 0.521653
-1.155602 0.228814 0.815554 -0.061016 -0.998137 0.000000 0.463446 0.940283
-1.155602 0.228814 -0.815554 -0.061016 -0.998137 0.000000 0.044815 0.940283
-1.155602 0.989412 -0.158817 0.080758 0.996734 0.000000 0.558905 0.059717
-1.155602 0.989412 0.158817 0.080758 0.996734 0.000000 0.977536 0.059717
2.532995 0.690554 0.222822 0.080758 0.996734 0.000000 0.977536 0.478348
2.532995 0.690554 -0.222822 0.080758 0.996734 0.000000 0.558905 0.478348
2.163512 0.071190 -0.762968 0.021279 -0.709508 0.704376 0.044815 0.521653
2.506938 0.646874 -0.193464 0.021279 -0.709508 0.704376 0.463446 0.521653
2.055026 0.633321 -0.193464 0.021279 -0.709508 0.704376 0.463446 0.940283
1.711599 0.057636 -0.762968 0.021279 -0.709508 0.704376 0.044815 0.940283
2.532995 0.690554 0.222822 0.858796 -0.512318 0.000000 0.044815 0.521653
2.137454 0.027509 0.831918 0.858796 -0.512318 0.000000 0.463446 0.521653
2.163512 0.071190 0.762968 0.858796 -0.512318 0.000000 0.463446 0.940283
2.506938 0.646874 0.193464 0.858796 -0.512318 0.000000 0.044815 0.940283
2.137454 0.027509 0.831918 0.858795 -0.512319 0.000000 0.044815 0.521653
2.137454 0.027509 -0.925582 0.858795 -0.512319 0.000000 0.463446 0.521653
2.163512 0.071190 -0.762968 0.858795 -0.512319 0.000000 0.463446 0.940283
2.163512 0.071190 0.762968 0.858795 -0.512319 0.000000 0.044815 0.940283
2.532995 0.690554 -0.222822 0.858795 -0.512319 0.000000 0.044815 0.521653
2.532995 0.690554 0.222822 0.858795 -0.512319 0.000000 0.463446 0.521653
2.506938 0.646874 0.193464 0.858795 -0.512319 0.000000 0.463446 0.940283
2.506938 0.646874 -0.193464 0.858795 -0.512319 0.000000 0.044815 0.940283
2.055026 0.633321 -0.193464 0.858796 -0.512318 0.000000 0.044815 0.521653
2.055026 0.633321 0.193464 0.858796 -0.512318 0.000000 0.463446 0.521653
1.711599 0.057636 0.762968 0.858796 -0.512318 0.000000 0.463446 0.940283
1.711599 0.057636 -0.762968 0.858796 -0.512318 0.000000 0.044815 0.940283
2.506938 0.646874 -0.193464 0.029977 -0.999551 0.000000 0.044815 0.521653
2.506938 0.646874 0.193464 0.029977 -0.999551 0.000000 0.463446 0.521653
2.055026 0.633321 0.193464 0.029977 -0.999551 0.000000 0.463446 0.940283
2.055026 0.633321 -0.193464 0.029977 -0.999551 0.000000 0.044815 0.940283
2.506938 0.646874 0.193464 0.021279 -0.709508 -0.704376 0.044815 0.521653
2.163512 0.071190 0.762968 0.021279 -0.709508 -0.704376 0.463446 0.521653
1.711599 0.057636 0.762968 0.021279 -0.709508 -0.704376 0.463446 0.940283
2.055026 0.633321 0.193464 0.021279 -0.709508 -0.704376 0.044815 0.940283
2.163512 0.071190 0.762968 -0.029977 0.999551 0.000000 0.044815 0.521653
2.163512 0.071190 -0.762968 -0.029977 0.999551 0.000000 0.463446 0.521653
1.711599 0.057636 -0.762968 -0.029977 0.999551 0.000000 0.463446 0.940283
1.711599 0.057636 0.762968 -0.029977 0.999551 0.000000 0.044815 0.940283
-3.286153 0.594931 -0.777497 0.021070 -0.999778 0.000000 0.044815 0.521653
-3.286153 0.594931 0.777497 0.021070 -0.999778 0.000000 0.463446 0.521653
-4.305037 0.573458 0.455591 0.021070 -0.999778 0.000000 0.463446 0.940283
-4.305037 0.573458 -0.455591 0.021070 -0.999778 0.000000 0.044815 0.940283
-1.155602 0.989412 0.158817 0.037469 0.999298 0.000000 0.558905 0.059717
-1.155602 0.989412 -0.158817 0.037469 0.999298 0.000000 0.977536 0.059717
-3.286153 1.069298 -0.401946 0.037469 0.999298 0.000000 0.977536 0.478348
-3.286153 1.069298 0.401946 0.037469 0.999298 0.000000 0.558905 0.478348
-1.155602 0.989412 -0.158817 0.103494 0.637894 -0.763138 0.044815 0.521653
-1.155602 0.228814 -0.815554 0.103494 0.637894 -0.763138 0.463446 0.521653
-3.286153 0.594931 -0.777497 0.103494 0.637894 -0.763138 0.463446 0.940283
-3.286153 1.069298 -0.401946 0.103494 0.637894 -0.763138 0.044815 0.940283
-1.155602 0.228814 0.815554 0.103494 0.637894 0.763138 0.044815 0.521653
-1.155602 0.989412 0.158817 0.103494 0.637894 0.763138 0.463446 0.521653
-3.286153 1.069298 0.401946 0.103494 0.637894 0.763138 0.463446 0.940283
-3.286153 0.594931 0.777497 0.103494 0.637894 0.763138 0.044815 0.940283
-4.305037 0.968980 0.183123 -1.000000 0.000000 0.000000 0.044815 0.521653
-4.305037 0.968980 -0.183123 -1.000000 0.000000 0.000000 0.463446 0.521653
-4.305037 0.573458 -0.455591 -1.000000 0.000000 0.000000 0.463446 0.940283
-4.305037 0.573458 0.455591 -1.000000 0.000000 0.000000 0.044815 0.940283
-3.286153 0.594931 0.777497 -0.241168 0.579768 0.778272 0.044815 0.521653
-3.286153 1.069298 0.401946 -0.241168 0.579768 0.778272 0.463446 0.521653
-4.305037 0.968980 0.183123 -0.241168 0.579768 0.778272 0.463446 0.940283
-4.305037 0.573458 0.455591 -0.241168 0.579768 0.778272 0.044815 0.940283
-3.286153 1.069298 0.401946 -0.097985 0.995188 0.000000 0.558905 0.059717
-3.286153 1.069298 -0.401946 -0.097985 0.995188 0.000000 0.977536 0.059717
-4.305037 0.968980 -0.183123 -0.097985 0.995188 0.000000 0.977536 0.478348
-4.305037 0.968980 0.183123 -0.097985 0.995188 0.000000 0.558905 0.478348
-3.286153 1.069298 -0.401946 -0.241168 0.579768 -0.778272 0.044815 0.521653
-3.286153 0.594931 -0.777497 -0.241168 0.579768 -0.778272 0.463446 0.521653
-4.305037 0.573458 -0.455591 -0.241168 0.579768 -0.778272 0.463446 0.940283
-4.305037 0.968980 -0.183123 -0.241168 0.579768 -0.778272 0.044815 0.940283
4 0 1 2 3
4 4 5 6 7
4 8 9 10 11
4 12 13 14 15
4 16 17 18 19
4 20 21 22 23
4 24 25 26 27
4 28 29 30 31
4 32 33 34 35
4 36 37 38 39
4 40 41 42 43
4 44 45 46 47
4 48 49 50 51
4 52 53 54 55
4 56 57 58 59
4 60 61 62 63
4 64 65 66 67
4 68 69 70 71
4 72 73 74 75
4 76 77 78 79
4 80 81 82 83
4 84 85 86 87
