ply
format ascii 1.0
comment Created by Blender 2.75 (sub 0) - www.blender.org, source file: 'ares.blend'
element vertex 384
property float x
property float y
property float z
property float nx
property float ny
property float nz
property float s
property float t
element face 96
property list uchar uint vertex_indices
end_header
3.906960 0.029568 0.516712 0.738327 -0.674443 0.000000 0.937466 0.907664
3.906960 0.029568 -0.516712 0.738327 -0.674443 0.000000 0.598975 0.907664
4.258655 0.414575 -0.131021 0.738327 -0.674443 0.000000 0.598975 0.569173
4.258655 0.414575 0.131021 0.738327 -0.674443 0.000000 0.937466 0.569173
4.258655 0.414575 0.131021 0.072425 0.790791 0.607786 0.598975 0.569173
0.978950 0.479164 0.280650 0.072425 0.790791 0.607786 0.937466 0.569173
0.978950 -0.035021 1.106807 0.072425 0.790791 0.607786 0.937466 0.907664
3.906960 0.029568 0.516712 0.072425 0.790791 0.607786 0.598975 0.907664
0.978950 0.479164 -0.280650 -0.009935 0.857978 -0.513591 0.598975 0.569173
0.978950 -0.035021 -1.106807 -0.009935 0.857978 -0.513591 0.937466 0.569173
-0.717389 -0.035021 -1.106807 -0.009935 0.857978 -0.513591 0.937466 0.907664
-0.717389 0.479164 -0.215024 -0.009935 0.857978 -0.513591 0.598975 0.907664
3.906960 0.029568 -0.516712 0.072425 0.790791 -0.607786 0.937466 0.907664
0.978950 -0.035021 -1.106807 0.072425 0.790791 -0.607786 0.598975 0.907664
0.978950 0.479164 -0.280650 0.072425 0.790791 -0.607786 0.598975 0.569173
4.258655 0.414575 -0.131021 0.072425 0.790791 -0.607786 0.937466 0.569173
0.978950 -0.035021 -1.106807 0.067716 -0.932589 -0.354533 0.598975 0.569173
3.906960 0.029568 -0.516712 0.067716 -0.932589 -0.354533 0.937466 0.569173
2.847459 -0.301159 -0.049852 0.067716 -0.932589 -0.354533 0.937466 0.907664
1.215118 -0.337167 -0.066166 0.067716 -0.932589 -0.354533 0.598975 0.907664
0.978950 0.479164 -0.280650 0.019690 0.999806 0.000000 0.598975 0.569173
0.978950 0.479164 0.280650 0.019690 0.999806 0.000000 0.937466 0.569173
4.258655 0.414575 0.131021 0.019690 0.999806 0.000000 0.937466 0.907664
4.258655 0.414575 -0.131021 0.019690 0.999806 0.000000 0.598975 0.907664
2.847459 -0.301159 -0.049852 0.022054 -0.999757 0.000000 0.598975 0.569173
2.847459 -0.301159 0.049852 0.022054 -0.999757 0.000000 0.937466 0.569173
1.215118 -0.337167 0.066166 0.022054 -0.999757 0.000000 0.937466 0.907664
1.215118 -0.337167 -0.066166 0.022054 -0.999757 0.000000 0.598975 0.907664
1.215118 -0.337167 0.066166 0.000000 -0.960340 0.278831 0.598975 0.569173
0.978950 -0.035021 1.106807 0.000000 -0.960340 0.278831 0.937466 0.569173
-0.717389 -0.035021 1.106807 0.000000 -0.960340 0.278831 0.937466 0.907664
-0.481221 -0.337167 0.066166 0.000000 -0.960340 0.278831 0.598975 0.907664
3.906960 0.029568 0.516712 0.067716 -0.932589 0.354533 0.598975 0.569173
0.978950 -0.035021 1.106807 0.067716 -0.932589 0.354533 0.937466 0.569173
1.215118 -0.337167 0.066166 0.067716 -0.932589 0.354533 0.937466 0.907664
2.847459 -0.301159 0.049852 0.067716 -0.932589 0.354533 0.598975 0.907664
3.906960 0.029568 -0.516712 0.297974 -0.954574 0.000000 0.598975 0.569173
3.906960 0.029568 0.516712 0.297974 -0.954574 0.000000 0.937466 0.569173
2.847459 -0.301159 0.049852 0.297974 -0.954574 0.000000 0.937466 0.907664
2.847459 -0.301159 -0.049852 0.297974 -0.954574 0.000000 0.598975 0.907664
-0.717389 0.479164 0.215024 0.150035 0.988681 0.000000 0.598975 0.569173
-0.717389 0.479164 -0.215024 0.150035 0.988681 0.000000 0.937466 0.569173
-2.471715 0.745387 -0.400482 0.150035 0.988681 0.000000 0.937466 0.907664
-2.471715 0.745387 0.400482 0.150035 0.988681 0.000000 0.598975 0.907664
-0.481221 -0.337167 0.066166 0.189657 -0.923876 0.332390 0.598975 0.569173
-0.717389 -0.035021 1.106807 0.189657 -0.923876 0.332390 0.937466 0.569173
-2.471715 -0.095981 1.872285 0.189657 -0.923876 0.332390 0.937466 0.907664
-2.031853 -0.658727 0.123233 0.189657 -0.923876 0.332390 0.598975 0.907664
0.978950 -0.035021 1.106807 -0.009935 0.857978 0.513591 0.598975 0.569173
0.978950 0.479164 0.280650 -0.009935 0.857978 0.513591 0.937466 0.569173
-0.717389 0.479164 0.215024 -0.009935 0.857978 0.513591 0.937466 0.907664
-0.717389 -0.035021 1.106807 -0.009935 0.857978 0.513591 0.598975 0.907664
0.978950 -0.035021 -1.106807 0.000000 -0.960340 -0.278831 0.598975 0.569173
1.215118 -0.337167 -0.066166 0.000000 -0.960340 -0.278831 0.937466 0.569173
-0.481221 -0.337167 -0.066166 0.000000 -0.960340 -0.278831 0.937466 0.907664
-0.717389 -0.035021 -1.106807 0.000000 -0.960340 -0.278831 0.598975 0.907664
0.978950 0.479164 0.280650 -0.000000 1.000000 0.000000 0.598975 0.569173
0.978950 0.479164 -0.280650 -0.000000 1.000000 0.000000 0.937466 0.569173
-0.717389 0.479164 -0.215024 -0.000000 1.000000 0.000000 0.937466 0.907664
-0.717389 0.479164 0.215024 -0.000000 1.000000 0.000000 0.598975 0.907664
1.215118 -0.337167 -0.066166 0.000000 -1.000000 0.000000 0.598975 0.569173
1.215118 -0.337167 0.066166 0.000000 -1.000000 0.000000 0.937466 0.569173
-0.481221 -0.337167 0.066166 0.000000 -1.000000 0.000000 0.937466 0.907664
-0.481221 -0.337167 -0.066166 0.000000 -1.000000 0.000000 0.598975 0.907664
-2.471715 0.745387 0.400482 0.086221 0.996276 0.000000 0.598975 0.569173
-2.471715 0.745387 -0.400482 0.086221 0.996276 0.000000 0.937466 0.569173
-3.815521 0.861684 -0.400482 0.086221 0.996276 0.000000 0.937466 0.907664
-3.815521 0.861684 0.400482 0.086221 0.996276 0.000000 0.598975 0.907664
-2.031853 -0.658727 0.123233 0.070648 -0.938653 0.337550 0.598975 0.569173
-2.471715 -0.095981 1.872285 0.070648 -0.938653 0.337550 0.937466 0.569173
-3.815521 -0.095981 2.061421 0.070648 -0.938653 0.337550 0.937466 0.907664
-3.553263 -0.454787 1.100890 0.070648 -0.938653 0.337550 0.598975 0.907664
-0.717389 -0.035021 -1.106807 0.189657 -0.923876 -0.332390 0.598975 0.569173
-0.481221 -0.337167 -0.066166 0.189657 -0.923876 -0.332390 0.937466 0.569173
-2.031853 -0.658727 -0.123233 0.189657 -0.923876 -0.332390 0.937466 0.907664
-2.471715 -0.095981 -1.872285 0.189657 -0.923876 -0.332390 0.598975 0.907664
-2.471715 -0.095981 -1.872285 0.141465 0.836478 -0.529426 0.598975 0.569173
-2.471715 0.745387 -0.400482 0.141465 0.836478 -0.529426 0.937466 0.569173
-1.629181 0.707137 -0.378253 0.141465 0.836478 -0.529426 0.937466 0.907664
-1.629181 0.099487 -1.195857 0.141465 0.836478 -0.529426 0.598975 0.907664
-0.717389 0.479164 -0.215024 -0.030851 -0.883609 0.467208 0.598975 0.569173
-0.717389 -0.035021 -1.106807 -0.030851 -0.883609 0.467208 0.937466 0.569173
-0.359682 0.058246 -0.987467 -0.030851 -0.883609 0.467208 0.937466 0.907664
-0.359682 0.430330 -0.203090 -0.030851 -0.883609 0.467208 0.598975 0.907664
-0.481221 -0.337167 -0.066166 0.203053 -0.979168 0.000000 0.598975 0.569173
-0.481221 -0.337167 0.066166 0.203053 -0.979168 0.000000 0.937466 0.569173
-2.031853 -0.658727 0.123233 0.203053 -0.979168 0.000000 0.937466 0.907664
-2.031853 -0.658727 -0.123233 0.203053 -0.979168 0.000000 0.598975 0.907664
-3.815521 0.861684 0.400482 -0.052933 0.998598 0.000000 0.598975 0.569173
-3.815521 0.861684 -0.400482 -0.052933 0.998598 0.000000 0.937466 0.569173
-6.058419 0.742794 -0.522710 -0.052933 0.998598 0.000000 0.937466 0.907664
-6.058419 0.742794 0.522710 -0.052933 0.998598 0.000000 0.598975 0.907664
-3.553263 -0.454787 1.100890 0.297857 -0.826789 0.477181 0.598975 0.569173
-3.815521 -0.095981 2.061421 0.297857 -0.826789 0.477181 0.937466 0.569173
-6.054708 -0.449423 2.671591 0.297857 -0.826789 0.477181 0.937466 0.907664
-6.058070 -0.604545 2.580060 0.297857 -0.826789 0.477181 0.598975 0.907664
-2.471715 -0.095981 -1.872285 0.070648 -0.938653 -0.337550 0.598975 0.569173
-2.031853 -0.658727 -0.123233 0.070648 -0.938653 -0.337550 0.937466 0.569173
-3.553263 -0.454787 -1.100890 0.070648 -0.938653 -0.337550 0.937466 0.907664
-3.815521 -0.095981 -2.061421 0.070648 -0.938653 -0.337550 0.598975 0.907664
-2.471715 -0.095981 1.872285 0.072379 0.864906 0.496688 0.598975 0.569173
-2.471715 0.745387 0.400482 0.072379 0.864906 0.496688 0.937466 0.569173
-3.815521 0.861684 0.400482 0.072379 0.864906 0.496688 0.937466 0.907664
-3.815521 -0.095981 2.061421 0.072379 0.864906 0.496688 0.598975 0.907664
-2.471715 0.745387 -0.400482 0.072379 0.864906 -0.496688 0.598975 0.569173
-2.471715 -0.095981 -1.872285 0.072379 0.864906 -0.496688 0.937466 0.569173
-3.815521 -0.095981 -2.061421 0.072379 0.864906 -0.496688 0.937466 0.907664
-3.815521 0.861684 -0.400482 0.072379 0.864906 -0.496688 0.598975 0.907664
-2.031853 -0.658727 -0.123233 -0.132858 -0.991135 0.000000 0.598975 0.569173
-2.031853 -0.658727 0.123233 -0.132858 -0.991135 0.000000 0.937466 0.569173
-3.553263 -0.454787 1.100890 -0.132858 -0.991135 0.000000 0.937466 0.907664
-3.553263 -0.454787 -1.100890 -0.132858 -0.991135 0.000000 0.598975 0.907664
-5.796162 -0.056800 1.100890 -0.262807 -0.953939 0.144679 0.598975 0.569173
-6.058419 0.161130 2.061421 -0.262807 -0.953939 0.144679 0.937466 0.569173
-7.594383 0.458975 1.235208 -0.262807 -0.953939 0.144679 0.937466 0.907664
-7.437238 0.328391 0.659656 -0.262807 -0.953939 0.144679 0.598975 0.907664
-5.796162 -0.056800 -1.100890 -0.228508 -0.973542 0.000000 0.598975 0.569173
-5.796162 -0.056800 1.100890 -0.228508 -0.973542 0.000000 0.937466 0.569173
-7.437238 0.328391 0.659656 -0.228508 -0.973542 0.000000 0.937466 0.907664
-7.437238 0.328391 -0.659656 -0.228508 -0.973542 0.000000 0.598975 0.907664
-6.058419 0.161130 -2.061421 0.058702 0.705844 -0.705931 0.598975 0.569173
-3.815521 -0.095981 -2.061421 0.058702 0.705844 -0.705931 0.937466 0.569173
-6.054708 -0.449423 -2.671591 0.058702 0.705844 -0.705931 0.937466 0.907664
-7.232826 -0.422025 -2.671591 0.058702 0.705844 -0.705931 0.598975 0.907664
-3.815521 -0.095981 2.061421 0.039549 0.900433 0.433192 0.598975 0.569173
-3.815521 0.861684 0.400482 0.039549 0.900433 0.433192 0.937466 0.569173
-6.058419 0.742794 0.522710 0.039549 0.900433 0.433192 0.937466 0.907664
-6.058419 0.161130 2.061421 0.039549 0.900433 0.433192 0.598975 0.907664
-3.815521 0.861684 -0.400482 0.039549 0.900433 -0.433192 0.598975 0.569173
-3.815521 -0.095981 -2.061421 0.039549 0.900433 -0.433192 0.937466 0.569173
-6.058419 0.161130 -2.061421 0.039549 0.900433 -0.433192 0.937466 0.907664
-6.058419 0.742794 -0.522710 0.039549 0.900433 -0.433192 0.598975 0.907664
-3.553263 -0.454787 -1.100890 -0.174714 -0.984619 0.000000 0.598975 0.569173
-3.553263 -0.454787 1.100890 -0.174714 -0.984619 0.000000 0.937466 0.569173
-5.796162 -0.056800 1.100890 -0.174714 -0.984619 0.000000 0.937466 0.907664
-5.796162 -0.056800 -1.100890 -0.174714 -0.984619 0.000000 0.598975 0.907664
-7.594383 0.807509 0.313209 -1.000000 0.000000 0.000000 0.598975 0.569173
-7.594383 0.807509 -0.313209 -1.000000 0.000000 0.000000 0.937466 0.569173
-7.594383 0.458975 -1.235208 -1.000000 0.000000 0.000000 0.937466 0.907664
-7.594383 0.458975 1.235208 -1.000000 0.000000 0.000000 0.598975 0.907664
-7.594383 0.458975 1.235208 -0.639115 -0.769111 0.000000 0.598975 0.569173
-7.594383 0.458975 -1.235208 -0.639115 -0.769111 0.000000 0.937466 0.569173
-7.437238 0.328391 -0.659656 -0.639115 -0.769111 0.000000 0.937466 0.907664
-7.437238 0.328391 0.659656 -0.639115 -0.769111 0.000000 0.598975 0.907664
-6.058419 0.742794 0.522710 0.042096 0.999114 0.000000 0.569173 0.040182
-6.058419 0.742794 -0.522710 0.042096 0.999114 0.000000 0.907664 0.040182
-7.594383 0.807509 -0.313209 0.042096 0.999114 0.000000 0.907664 0.378673
-7.594383 0.807509 0.313209 0.042096 0.999114 0.000000 0.569173 0.378673
-6.058419 0.161130 -2.061421 -0.262807 -0.953939 -0.144679 0.598975 0.569173
-5.796162 -0.056800 -1.100890 -0.262807 -0.953939 -0.144679 0.937466 0.569173
-7.437238 0.328391 -0.659656 -0.262807 -0.953939 -0.144679 0.937466 0.907664
-7.594383 0.458975 -1.235208 -0.262807 -0.953939 -0.144679 0.598975 0.907664
-6.058419 0.161130 2.061421 -0.008818 0.935361 0.353585 0.598975 0.569173
-6.058419 0.742794 0.522710 -0.008818 0.935361 0.353585 0.937466 0.569173
-7.594383 0.807509 0.313209 -0.008818 0.935361 0.353585 0.937466 0.907664
-7.594383 0.458975 1.235208 -0.008818 0.935361 0.353585 0.598975 0.907664
-6.058419 0.742794 -0.522710 -0.008818 0.935361 -0.353585 0.598975 0.569173
-6.058419 0.161130 -2.061421 -0.008818 0.935361 -0.353585 0.937466 0.569173
-7.594383 0.458975 -1.235208 -0.008818 0.935361 -0.353585 0.937466 0.907664
-7.594383 0.807509 -0.313209 -0.008818 0.935361 -0.353585 0.598975 0.907664
-6.058070 -0.604545 2.716039 -0.017065 -0.474038 0.880339 0.598975 0.569173
-7.236189 -0.562134 2.716039 -0.017065 -0.474038 0.880339 0.937466 0.569173
-7.224673 -0.661153 2.662944 -0.017065 -0.474038 0.880339 0.937466 0.907664
-6.069585 -0.702734 2.662944 -0.017065 -0.474038 0.880339 0.598975 0.907664
-7.232826 -0.422025 2.671591 -0.999712 0.023993 0.000000 0.598975 0.569173
-7.236189 -0.562134 2.580060 -0.999712 0.023993 0.000000 0.937466 0.569173
-7.236189 -0.562134 2.716039 -0.999712 0.023993 0.000000 0.937466 0.907664
-7.232826 -0.422025 2.812394 -0.999712 0.023993 0.000000 0.598975 0.907664
-6.058419 0.161130 2.061421 -0.600194 0.700500 -0.386093 0.598975 0.569173
-5.796162 -0.056800 1.100890 -0.600194 0.700500 -0.386093 0.937466 0.569173
-7.236189 -0.562134 2.580060 -0.600194 0.700500 -0.386093 0.937466 0.907664
-7.232826 -0.422025 2.671591 -0.600194 0.700500 -0.386093 0.598975 0.907664
-3.815521 -0.095981 2.061421 0.058702 0.705844 0.705931 0.598975 0.569173
-6.058419 0.161130 2.061421 0.058702 0.705844 0.705931 0.937466 0.569173
-7.232826 -0.422025 2.671591 0.058702 0.705844 0.705931 0.937466 0.907664
-6.054708 -0.449423 2.671591 0.058702 0.705844 0.705931 0.598975 0.907664
-3.553263 -0.454787 -1.100890 -0.118958 -0.924066 0.363250 0.598975 0.569173
-5.796162 -0.056800 -1.100890 -0.118958 -0.924066 0.363250 0.937466 0.569173
-7.236189 -0.562134 -2.580060 -0.118958 -0.924066 0.363250 0.937466 0.907664
-6.058070 -0.604545 -2.580060 -0.118958 -0.924066 0.363250 0.598975 0.907664
-3.815521 -0.095981 -2.061421 0.297857 -0.826789 -0.477181 0.598975 0.569173
-3.553263 -0.454787 -1.100890 0.297857 -0.826789 -0.477181 0.937466 0.569173
-6.058070 -0.604545 -2.580060 0.297857 -0.826789 -0.477181 0.937466 0.907664
-6.054708 -0.449423 -2.671591 0.297857 -0.826789 -0.477181 0.598975 0.907664
-5.796162 -0.056800 -1.100890 -0.600194 0.700500 0.386093 0.598975 0.569173
-6.058419 0.161130 -2.061421 -0.600194 0.700500 0.386093 0.937466 0.569173
-7.232826 -0.422025 -2.671591 -0.600194 0.700500 0.386093 0.937466 0.907664
-7.236189 -0.562134 -2.580060 -0.600194 0.700500 0.386093 0.598975 0.907664
-5.796162 -0.056800 1.100890 -0.118958 -0.924066 -0.363250 0.598975 0.569173
-3.553263 -0.454787 1.100890 -0.118958 -0.924066 -0.363250 0.937466 0.569173
-6.058070 -0.604545 2.580060 -0.118958 -0.924066 -0.363250 0.937466 0.907664
-7.236189 -0.562134 2.580060 -0.118958 -0.924066 -0.363250 0.598975 0.907664
-6.058070 -0.604545 2.716039 -0.016184 -0.546269 0.837453 0.598975 0.569173
-6.054708 -0.449423 2.812394 -0.016184 -0.546269 0.837453 0.937466 0.569173
-7.232826 -0.422025 2.812394 -0.016184 -0.546269 0.837453 0.937466 0.907664
-7.236189 -0.562134 2.716039 -0.016184 -0.546269 0.837453 0.598975 0.907664
-6.054708 -0.449423 -2.812394 -0.016184 -0.546269 -0.837453 0.598975 0.569173
-6.058070 -0.604545 -2.716039 -0.016184 -0.546269 -0.837453 0.937466 0.569173
-7.236189 -0.562134 -2.716039 -0.016184 -0.546269 -0.837453 0.937466 0.907664
-7.232826 -0.422025 -2.812394 -0.016184 -0.546269 -0.837453 0.598975 0.907664
-6.054708 -0.449423 -2.671591 0.999765 -0.021669 0.000000 0.598975 0.569173
-6.058070 -0.604545 -2.580060 0.999765 -0.021669 0.000000 0.937466 0.569173
-6.058070 -0.604545 -2.716039 0.999765 -0.021669 0.000000 0.937466 0.907664
-6.054708 -0.449423 -2.812394 0.999765 -0.021669 0.000000 0.598975 0.907664
-7.236189 -0.562134 -2.580060 -0.999712 0.023993 0.000000 0.598975 0.569173
-7.232826 -0.422025 -2.671591 -0.999712 0.023993 0.000000 0.937466 0.569173
-7.232826 -0.422025 -2.812394 -0.999712 0.023993 0.000000 0.937466 0.907664
-7.236189 -0.562134 -2.716039 -0.999712 0.023993 0.000000 0.598975 0.907664
-7.236189 -0.562134 -2.580060 -0.993305 -0.115519 0.000000 0.598975 0.569173
-7.236189 -0.562134 -2.716039 -0.993305 -0.115519 0.000000 0.937466 0.569173
-7.224673 -0.661153 -2.662944 -0.993305 -0.115519 0.000000 0.937466 0.907664
-7.224673 -0.661153 -2.529623 -0.993305 -0.115519 0.000000 0.598975 0.907664
-7.232826 -0.422025 2.812394 0.022210 0.779216 0.626362 0.595163 0.125776
-6.054708 -0.449423 2.812394 0.022210 0.779216 0.626362 0.866773 0.125776
-7.608211 0.158596 2.103393 0.022210 0.779216 0.626362 0.866773 0.397387
-8.100370 0.178805 2.103393 0.022210 0.779216 0.626362 0.595163 0.397387
-6.054708 -0.449423 2.812394 0.364465 0.931217 0.000000 0.595163 0.125776
-6.054708 -0.449423 2.671591 0.364465 0.931217 0.000000 0.866773 0.125776
-7.608211 0.158596 1.998087 0.364465 0.931217 0.000000 0.866773 0.397387
-7.608211 0.158596 2.103393 0.364465 0.931217 0.000000 0.595163 0.397387
-6.058070 -0.604545 2.580060 0.999765 -0.021669 0.000000 0.598975 0.569173
-6.054708 -0.449423 2.671591 0.999765 -0.021669 0.000000 0.937466 0.569173
-6.054708 -0.449423 2.812394 0.999765 -0.021669 0.000000 0.937466 0.907664
-6.058070 -0.604545 2.716039 0.999765 -0.021669 0.000000 0.598975 0.907664
-7.608211 0.158596 1.998087 0.041028 0.999158 0.000000 0.595163 0.125776
-8.100370 0.178805 1.998087 0.041028 0.999158 0.000000 0.866773 0.125776
-8.100370 0.178805 2.103393 0.041028 0.999158 0.000000 0.866773 0.397387
-7.608211 0.158596 2.103393 0.041028 0.999158 0.000000 0.595163 0.397387
-8.100370 0.178805 -1.998087 0.041028 0.999158 0.000000 0.595163 0.125776
-7.608211 0.158596 -1.998087 0.041028 0.999158 0.000000 0.866773 0.125776
-7.608211 0.158596 -2.103393 0.041028 0.999158 0.000000 0.866773 0.397387
-8.100370 0.178805 -2.103393 0.041028 0.999158 0.000000 0.595163 0.397387
-6.054708 -0.449423 -2.671591 0.364465 0.931217 0.000000 0.595163 0.125776
-6.054708 -0.449423 -2.812394 0.364465 0.931217 0.000000 0.866773 0.125776
-7.608211 0.158596 -2.103393 0.364465 0.931217 0.000000 0.866773 0.397387
-7.608211 0.158596 -1.998087 0.364465 0.931217 0.000000 0.595163 0.397387
-6.054708 -0.449423 -2.812394 0.022210 0.779216 -0.626362 0.595163 0.125776
-7.232826 -0.422025 -2.812394 0.022210 0.779216 -0.626362 0.866773 0.125776
-8.100370 0.178805 -2.103393 0.022210 0.779216 -0.626362 0.866773 0.397387
-7.608211 0.158596 -2.103393 0.022210 0.779216 -0.626362 0.595163 0.397387
-7.232826 -0.422025 2.671591 -0.569352 -0.822094 0.000000 0.595163 0.125776
-7.232826 -0.422025 2.812394 -0.569352 -0.822094 0.000000 0.866773 0.125776
-8.100370 0.178805 2.103393 -0.569352 -0.822094 0.000000 0.866773 0.397387
-8.100370 0.178805 1.998087 -0.569352 -0.822094 0.000000 0.595163 0.397387
-6.054708 -0.449423 2.671591 -0.021753 -0.763187 -0.645811 0.595163 0.125776
-7.232826 -0.422025 2.671591 -0.021753 -0.763187 -0.645811 0.866773 0.125776
-8.100370 0.178805 1.998087 -0.021753 -0.763187 -0.645811 0.866773 0.397387
-7.608211 0.158596 1.998087 -0.021753 -0.763187 -0.645811 0.595163 0.397387
-7.232826 -0.422025 -2.812394 -0.569352 -0.822094 0.000000 0.595163 0.125776
-7.232826 -0.422025 -2.671591 -0.569352 -0.822094 0.000000 0.866773 0.125776
-8.100370 0.178805 -1.998087 -0.569352 -0.822094 0.000000 0.866773 0.397387
-8.100370 0.178805 -2.103393 -0.569352 -0.822094 0.000000 0.595163 0.397387
-7.232826 -0.422025 -2.671591 -0.021753 -0.763187 0.645811 0.595163 0.125776
-6.054708 -0.449423 -2.671591 -0.021753 -0.763187 0.645811 0.866773 0.125776
-7.608211 0.158596 -1.998087 -0.021753 -0.763187 0.645811 0.866773 0.397387
-8.100370 0.178805 -1.998087 -0.021753 -0.763187 0.645811 0.595163 0.397387
-6.069585 -0.702734 -2.529623 -0.035975 -0.999353 0.000000 0.598975 0.569173
-7.224673 -0.661153 -2.529623 -0.035975 -0.999353 0.000000 0.937466 0.569173
-7.224673 -0.661153 -2.662944 -0.035975 -0.999353 0.000000 0.937466 0.907664
-6.069585 -0.702734 -2.662944 -0.035975 -0.999353 0.000000 0.598975 0.907664
-7.224673 -0.661153 2.529623 -0.035975 -0.999353 0.000000 0.598975 0.569173
-6.069585 -0.702734 2.529623 -0.035975 -0.999353 0.000000 0.937466 0.569173
-6.069585 -0.702734 2.662944 -0.035975 -0.999353 0.000000 0.937466 0.907664
-7.224673 -0.661153 2.662944 -0.035975 -0.999353 0.000000 0.598975 0.907664
-6.058070 -0.604545 -2.580060 0.016391 0.455333 0.890170 0.598975 0.569173
-7.236189 -0.562134 -2.580060 0.016391 0.455333 0.890170 0.937466 0.569173
-7.224673 -0.661153 -2.529623 0.016391 0.455333 0.890170 0.937466 0.907664
-6.069585 -0.702734 -2.529623 0.016391 0.455333 0.890170 0.598975 0.907664
-6.058070 -0.604545 2.580060 0.993193 -0.116476 0.000000 0.598975 0.569173
-6.058070 -0.604545 2.716039 0.993193 -0.116476 0.000000 0.937466 0.569173
-6.069585 -0.702734 2.662944 0.993193 -0.116476 0.000000 0.937466 0.907664
-6.069585 -0.702734 2.529623 0.993193 -0.116476 0.000000 0.598975 0.907664
-6.058070 -0.604545 -2.716039 0.993193 -0.116476 0.000000 0.598975 0.569173
-6.058070 -0.604545 -2.580060 0.993193 -0.116476 0.000000 0.937466 0.569173
-6.069585 -0.702734 -2.529623 0.993193 -0.116476 0.000000 0.937466 0.907664
-6.069585 -0.702734 -2.662944 0.993193 -0.116476 0.000000 0.598975 0.907664
-7.236189 -0.562134 2.580060 0.016391 0.455333 -0.890170 0.598975 0.569173
-6.058070 -0.604545 2.580060 0.016391 0.455333 -0.890170 0.937466 0.569173
-6.069585 -0.702734 2.529623 0.016391 0.455333 -0.890170 0.937466 0.907664
-7.224673 -0.661153 2.529623 0.016391 0.455333 -0.890170 0.598975 0.907664
-7.236189 -0.562134 -2.716039 -0.017065 -0.474038 -0.880339 0.598975 0.569173
-6.058070 -0.604545 -2.716039 -0.017065 -0.474038 -0.880339 0.937466 0.569173
-6.069585 -0.702734 -2.662944 -0.017065 -0.474038 -0.880339 0.937466 0.907664
-7.224673 -0.661153 -2.662944 -0.017065 -0.474038 -0.880339 0.598975 0.907664
-7.236189 -0.562134 2.716039 -0.993305 -0.115519 0.000000 0.598975 0.569173
-7.236189 -0.562134 2.580060 -0.993305 -0.115519 0.000000 0.937466 0.569173
-7.224673 -0.661153 2.529623 -0.993305 -0.115519 0.000000 0.937466 0.907664
-7.224673 -0.661153 2.662944 -0.993305 -0.115519 0.000000 0.598975 0.907664
-1.629181 0.099487 -1.195857 0.629711 0.624755 -0.461677 0.598975 0.569173
-1.629181 0.707137 -0.378253 0.629711 0.624755 -0.461677 0.937466 0.569173
-1.579682 0.675579 -0.348756 0.629711 0.624755 -0.461677 0.937466 0.907664
-1.579682 0.121971 -1.102601 0.629711 0.624755 -0.461677 0.598975 0.907664
-1.629181 0.099487 1.195857 0.072915 0.968932 0.236337 0.598975 0.569173
-0.359682 0.058246 0.987467 0.072915 0.968932 0.236337 0.937466 0.569173
-0.409182 0.077291 0.910462 0.072915 0.968932 0.236337 0.937466 0.907664
-1.579682 0.121971 1.102601 0.072915 0.968932 0.236337 0.598975 0.907664
-0.717389 0.479164 0.215024 0.025223 0.646706 -0.762323 0.598975 0.569173
-2.471715 0.745387 0.400482 0.025223 0.646706 -0.762323 0.937466 0.569173
-1.629181 0.707137 0.378253 0.025223 0.646706 -0.762323 0.937466 0.907664
-0.359682 0.430330 0.203090 0.025223 0.646706 -0.762323 0.598975 0.907664
-0.717389 -0.035021 -1.106807 0.174190 0.811839 -0.557293 0.598975 0.569173
-2.471715 -0.095981 -1.872285 0.174190 0.811839 -0.557293 0.937466 0.569173
-1.629181 0.099487 -1.195857 0.174190 0.811839 -0.557293 0.937466 0.907664
-0.359682 0.058246 -0.987467 0.174190 0.811839 -0.557293 0.598975 0.907664
-2.471715 -0.095981 1.872285 0.174190 0.811839 0.557293 0.598975 0.569173
-0.717389 -0.035021 1.106807 0.174190 0.811839 0.557293 0.937466 0.569173
-0.359682 0.058246 0.987467 0.174190 0.811839 0.557293 0.937466 0.907664
-1.629181 0.099487 1.195857 0.174190 0.811839 0.557293 0.598975 0.907664
-2.471715 0.745387 -0.400482 0.025223 0.646706 0.762323 0.598975 0.569173
-0.717389 0.479164 -0.215024 0.025223 0.646706 0.762323 0.937466 0.569173
-0.359682 0.430330 -0.203090 0.025223 0.646706 0.762323 0.937466 0.907664
-1.629181 0.707137 -0.378253 0.025223 0.646706 0.762323 0.598975 0.907664
-0.717389 -0.035021 1.106807 -0.030851 -0.883609 -0.467208 0.598975 0.569173
-0.717389 0.479164 0.215024 -0.030851 -0.883609 -0.467208 0.937466 0.569173
-0.359682 0.430330 0.203090 -0.030851 -0.883609 -0.467208 0.937466 0.907664
-0.359682 0.058246 0.987467 -0.030851 -0.883609 -0.467208 0.598975 0.907664
-2.471715 0.745387 0.400482 0.141465 0.836478 0.529426 0.598975 0.569173
-2.471715 -0.095981 1.872285 0.141465 0.836478 0.529426 0.937466 0.569173
-1.629181 0.099487 1.195857 0.141465 0.836478 0.529426 0.937466 0.907664
-1.629181 0.707137 0.378253 0.141465 0.836478 0.529426 0.598975 0.907664
-1.579682 0.675579 -0.348756 0.000000 -0.534731 -0.845022 0.598975 0.569173
-0.409182 0.420359 -0.187252 0.000000 -0.534731 -0.845022 0.937466 0.569173
-1.807837 0.420359 -0.187252 0.000000 -0.534731 -0.845022 0.937466 0.907664
-2.978336 0.675579 -0.348756 0.000000 -0.534731 -0.845022 0.598975 0.907664
-1.579682 0.675579 0.348756 -0.028907 -0.830499 -0.556269 0.598975 0.569173
-1.579682 0.121971 1.102601 -0.028907 -0.830499 -0.556269 0.937466 0.569173
-2.978336 0.036617 1.375396 -0.028907 -0.830499 -0.556269 0.937466 0.907664
-2.978336 0.675579 0.348756 -0.028907 -0.830499 -0.556269 0.598975 0.907664
-0.359682 0.430330 0.203090 -0.067425 -0.735700 0.673944 0.598975 0.569173
-1.629181 0.707137 0.378253 -0.067425 -0.735700 0.673944 0.937466 0.569173
-1.579682 0.675579 0.348756 -0.067425 -0.735700 0.673944 0.937466 0.907664
-0.409182 0.420359 0.187252 -0.067425 -0.735700 0.673944 0.598975 0.907664
-0.359682 0.430330 -0.203090 -0.304029 0.860729 -0.408303 0.598975 0.569173
-0.359682 0.058246 -0.987467 -0.304029 0.860729 -0.408303 0.937466 0.569173
-0.409182 0.077291 -0.910462 -0.304029 0.860729 -0.408303 0.937466 0.907664
-0.409182 0.420359 -0.187252 -0.304029 0.860729 -0.408303 0.598975 0.907664
-1.629181 0.707137 0.378253 0.629711 0.624755 0.461677 0.598975 0.569173
-1.629181 0.099487 1.195857 0.629711 0.624755 0.461677 0.937466 0.569173
-1.579682 0.121971 1.102601 0.629711 0.624755 0.461677 0.937466 0.907664
-1.579682 0.675579 0.348756 0.629711 0.624755 0.461677 0.598975 0.907664
-1.629181 0.707137 -0.378253 -0.067425 -0.735700 -0.673944 0.598975 0.569173
-0.359682 0.430330 -0.203090 -0.067425 -0.735700 -0.673944 0.937466 0.569173
-0.409182 0.420359 -0.187252 -0.067425 -0.735700 -0.673944 0.937466 0.907664
-1.579682 0.675579 -0.348756 -0.067425 -0.735700 -0.673944 0.598975 0.907664
-0.359682 0.058246 0.987467 -0.304029 0.860729 0.408303 0.598975 0.569173
-0.359682 0.430330 0.203090 -0.304029 0.860729 0.408303 0.937466 0.569173
-0.409182 0.420359 0.187252 -0.304029 0.860729 0.408303 0.937466 0.907664
-0.409182 0.077291 0.910462 -0.304029 0.860729 0.408303 0.598975 0.907664
-0.359682 0.058246 -0.987467 0.072915 0.968932 -0.236337 0.598975 0.569173
-1.629181 0.099487 -1.195857 0.072915 0.968932 -0.236337 0.937466 0.569173
-1.579682 0.121971 -1.102601 0.072915 0.968932 -0.236337 0.937466 0.907664
-0.409182 0.077291 -0.910462 0.072915 0.968932 -0.236337 0.598975 0.907664
-1.807837 0.077291 0.738471 0.249843 0.822071 0.511642 0.598975 0.569173
-1.807837 0.420359 0.187252 0.249843 0.822071 0.511642 0.937466 0.569173
-2.978336 0.675579 0.348756 0.249843 0.822071 0.511642 0.937466 0.907664
-2.978336 0.036617 1.375396 0.249843 0.822071 0.511642 0.598975 0.907664
-1.807837 0.420359 -0.187252 0.249843 0.822071 -0.511642 0.598975 0.569173
-1.807837 0.077291 -0.738471 0.249843 0.822071 -0.511642 0.937466 0.569173
-2.978336 0.036617 -1.375396 0.249843 0.822071 -0.511642 0.937466 0.907664
-2.978336 0.675579 -0.348756 0.249843 0.822071 -0.511642 0.598975 0.907664
-0.409182 0.077291 0.910462 -0.029134 0.880124 0.473848 0.598975 0.569173
-0.409182 0.420359 0.187252 -0.029134 0.880124 0.473848 0.937466 0.569173
-1.807837 0.420359 0.187252 -0.029134 0.880124 0.473848 0.937466 0.907664
-1.807837 0.077291 0.738471 -0.029134 0.880124 0.473848 0.598975 0.907664
-0.409182 0.077291 -0.910462 -0.033970 0.994334 0.100725 0.598975 0.569173
-1.579682 0.121971 -1.102601 -0.033970 0.994334 0.100725 0.937466 0.569173
-2.978336 0.036617 -1.375396 -0.033970 0.994334 0.100725 0.937466 0.907664
-1.807837 0.077291 -0.738471 -0.033970 0.994334 0.100725 0.598975 0.907664
-1.579682 0.121971 1.102601 -0.033970 0.994334 -0.100725 0.598975 0.569173
-0.409182 0.077291 0.910462 -0.033970 0.994334 -0.100725 0.937466 0.569173
-1.807837 0.077291 0.738471 -0.033970 0.994334 -0.100725 0.937466 0.907664
-2.978336 0.036617 1.375396 -0.033970 0.994334 -0.100725 0.598975 0.907664
-1.579682 0.121971 -1.102601 -0.028907 -0.830499 0.556269 0.598975 0.569173
-1.579682 0.675579 -0.348756 -0.028907 -0.830499 0.556269 0.937466 0.569173
-2.978336 0.675579 -0.348756 -0.028907 -0.830499 0.556269 0.937466 0.907664
-2.978336 0.036617 -1.375396 -0.028907 -0.830499 0.556269 0.598975 0.907664
-0.409182 0.420359 0.187252 0.000000 -0.534731 0.845022 0.598975 0.569173
-1.579682 0.675579 0.348756 0.000000 -0.534731 0.845022 0.937466 0.569173
-2.978336 0.675579 0.348756 0.000000 -0.534731 0.845022 0.937466 0.907664
-1.807837 0.420359 0.187252 0.000000 -0.534731 0.845022 0.598975 0.907664
-0.409182 0.420359 -0.187252 -0.029134 0.880124 -0.473848 0.598975 0.569173
-0.409182 0.077291 -0.910462 -0.029134 0.880124 -0.473848 0.937466 0.569173
-1.807837 0.077291 -0.738471 -0.029134 0.880124 -0.473848 0.937466 0.907664
-1.807837 0.420359 -0.187252 -0.029134 0.880124 -0.473848 0.598975 0.907664
4 0 1 2 3
4 4 5 6 7
4 8 9 10 11
4 12 13 14 15
4 16 17 18 19
4 20 21 22 23
4 24 25 26 27
4 28 29 30 31
4 32 33 34 35
4 36 37 38 39
4 40 41 42 43
4 44 45 46 47
4 48 49 50 51
4 52 53 54 55
4 56 57 58 59
4 60 61 62 63
4 64 65 66 67
4 68 69 70 71
4 72 73 74 75
4 76 77 78 79
4 80 81 82 83
4 84 85 86 87
4 88 89 90 91
4 92 93 94 95
4 96 97 98 99
4 100 101 102 103
4 104 105 106 107
4 108 109 110 111
4 112 113 114 115
4 116 117 118 119
4 120 121 122 123
4 124 125 126 127
4 128 129 130 131
4 132 133 134 135
4 136 137 138 139
4 140 141 142 143
4 144 145 146 147
4 148 149 150 151
4 152 153 154 155
4 156 157 158 159
4 160 161 162 163
4 164 165 166 167
4 168 169 170 171
4 172 173 174 175
4 176 177 178 179
4 180 181 182 183
4 184 185 186 187
4 188 189 190 191
4 192 193 194 195
4 196 197 198 199
4 200 201 202 203
4 204 205 206 207
4 208 209 210 211
4 212 213 214 215
4 216 217 218 219
4 220 221 222 223
4 224 225 226 227
4 228 229 230 231
4 232 233 234 235
4 236 237 238 239
4 240 241 242 243
4 244 245 246 247
4 248 249 250 251
4 252 253 254 255
4 256 257 258 259
4 260 261 262 263
4 264 265 266 267
4 268 269 270 271
4 272 273 274 275
4 276 277 278 279
4 280 281 282 283
4 284 285 286 287
4 288 289 290 291
4 292 293 294 295
4 296 297 298 299
4 300 301 302 303
4 304 305 306 307
4 308 309 310 311
4 312 313 314 315
4 316 317 318 319
4 320 321 322 323
4 324 325 326 327
4 328 329 330 331
4 332 333 334 335
4 336 337 338 339
4 340 341 342 343
4 344 345 346 347
4 348 349 350 351
4 352 353 354 355
4 356 357 358 359
4 360 361 362 363
4 364 365 366 367
4 368 369 370 371
4 372 373 374 375
4 376 377 378 379
4 380 381 382 383
