solid Exported from Blender-2.75 (sub 0)
facet normal -0.076321 -0.989610 -0.121850
outer loop
vertex 23.675674 -2.641536 13.580826
vertex 25.405975 -4.438088 27.087784
vertex -17.964569 -2.000000 34.452042
endloop
endfacet
facet normal -0.014473 -0.999894 0.001859
outer loop
vertex -17.964569 -2.000000 34.452042
vertex -20.162277 -2.000000 17.344147
vertex 23.675674 -2.641536 13.580826
endloop
endfacet
facet normal -0.157834 -0.974043 -0.162259
outer loop
vertex 25.405975 -4.438088 27.087784
vertex 28.243149 -7.131951 40.499298
vertex -14.383484 -2.014933 51.245789
endloop
endfacet
facet normal -0.054313 -0.998467 0.010694
outer loop
vertex -14.383484 -2.014933 51.245789
vertex -17.964569 -2.000000 34.452042
vertex 25.405975 -4.438088 27.087784
endloop
endfacet
facet normal -0.229954 -0.958124 -0.170646
outer loop
vertex 28.243149 -7.131951 40.499298
vertex 32.148407 -10.438217 53.800446
vertex -9.485291 -2.916443 67.671463
endloop
endfacet
facet normal -0.123545 -0.992183 -0.017614
outer loop
vertex -9.485291 -2.916443 67.671463
vertex -14.383484 -2.014933 51.245789
vertex 28.243149 -7.131951 40.499298
endloop
endfacet
facet normal -0.280669 -0.947181 -0.155158
outer loop
vertex 32.148407 -10.438217 53.800446
vertex 37.081253 -14.057481 66.971542
vertex -3.334534 -4.820699 83.693550
endloop
endfacet
facet normal -0.191488 -0.980551 -0.043030
outer loop
vertex -3.334534 -4.820699 83.693550
vertex -9.485291 -2.916443 67.671463
vertex 32.148407 -10.438217 53.800446
endloop
endfacet
facet normal -0.313267 -0.941965 -0.120690
outer loop
vertex 37.081253 -14.057481 66.971542
vertex 42.998901 -17.691790 79.976669
vertex 4.006531 -7.198092 99.284912
endloop
endfacet
facet normal -0.236964 -0.970834 -0.036461
outer loop
vertex 4.006531 -7.198092 99.284912
vertex -3.334534 -4.820699 83.693550
vertex 37.081253 -14.057481 66.971542
endloop
endfacet
facet normal -0.330564 -0.941119 -0.070875
outer loop
vertex 42.998901 -17.691790 79.976669
vertex 49.855942 -21.062567 92.754219
vertex 12.478210 -9.564604 114.409218
endloop
endfacet
facet normal -0.261870 -0.965094 -0.004326
outer loop
vertex 12.478210 -9.564604 114.409218
vertex 4.006531 -7.198092 99.284912
vertex 42.998901 -17.691790 79.976669
endloop
endfacet
facet normal -0.334771 -0.942260 -0.008595
outer loop
vertex 49.855942 -21.062567 92.754219
vertex 57.604492 -23.929150 105.211555
vertex 22.023392 -11.504700 128.999603
endloop
endfacet
facet normal -0.268371 -0.962137 0.047635
outer loop
vertex 22.023392 -11.504700 128.999603
vertex 12.478210 -9.564604 114.409218
vertex 49.855942 -21.062567 92.754219
endloop
endfacet
facet normal -0.327672 -0.942657 0.063476
outer loop
vertex 57.604492 -23.929150 105.211555
vertex 66.194321 -26.106022 117.225510
vertex 32.587219 -12.691973 142.947815
endloop
endfacet
facet normal -0.258594 -0.959212 0.114201
outer loop
vertex 32.587219 -12.691973 142.947815
vertex 22.023392 -11.504700 128.999603
vertex 57.604492 -23.929150 105.211555
endloop
endfacet
facet normal -0.310877 -0.939706 0.142504
outer loop
vertex 66.194321 -26.106022 117.225510
vertex 75.573181 -27.476362 128.649414
vertex 44.116867 -12.906226 156.105484
endloop
endfacet
facet normal -0.234848 -0.953229 0.190267
outer loop
vertex 44.116867 -12.906226 156.105484
vertex 32.587219 -12.691973 142.947815
vertex 66.194321 -26.106022 117.225510
endloop
endfacet
facet normal -0.286066 -0.931342 0.225317
outer loop
vertex 75.573181 -27.476362 128.649414
vertex 85.687355 -28.000198 139.325287
vertex 56.561020 -12.044975 168.296539
endloop
endfacet
facet normal -0.199957 -0.941687 0.270635
outer loop
vertex 56.561020 -12.044975 168.296539
vertex 44.116867 -12.906226 156.105484
vertex 75.573181 -27.476362 128.649414
endloop
endfacet
facet normal -0.255126 -0.916381 0.308476
outer loop
vertex 85.687355 -28.000198 139.325287
vertex 96.482124 -27.715290 149.099503
vertex 69.869339 -10.126978 179.338394
endloop
endfacet
facet normal -0.157479 -0.923346 0.350190
outer loop
vertex 69.869339 -10.126978 179.338394
vertex 56.561020 -12.044975 168.296539
vertex 85.687355 -28.000198 139.325287
endloop
endfacet
facet normal -0.220087 -0.894815 0.388417
outer loop
vertex 96.482124 -27.715290 149.099503
vertex 107.902496 -26.730755 157.838699
vertex 83.991760 -7.292250 189.071686
endloop
endfacet
facet normal -0.111955 -0.898640 0.424160
outer loop
vertex 83.991760 -7.292250 189.071686
vertex 69.869339 -10.126978 179.338394
vertex 96.482124 -27.715290 149.099503
endloop
endfacet
facet normal -0.183136 -0.867809 0.461919
outer loop
vertex 107.902496 -26.730755 157.838699
vertex 119.893967 -25.213814 165.442841
vertex 98.877731 -3.773321 197.390900
endloop
endfacet
facet normal -0.067857 -0.869519 0.489216
outer loop
vertex 98.877731 -3.773321 197.390900
vertex 83.991760 -7.292250 189.071686
vertex 107.902496 -26.730755 157.838699
endloop
endfacet
facet normal -0.147600 -0.836116 0.528322
outer loop
vertex 119.893967 -25.213814 165.442841
vertex 132.403473 -23.371796 171.852844
vertex 114.475258 0.216503 204.174713
endloop
endfacet
facet normal -0.023489 -0.837198 0.546396
outer loop
vertex 114.475258 0.216503 204.174713
vertex 98.877731 -3.773321 197.390900
vertex 119.893967 -25.213814 165.442841
endloop
endfacet
facet normal -0.114864 -0.802037 0.586126
outer loop
vertex 132.403473 -23.371796 171.852844
vertex 145.380386 -21.431786 177.050613
vertex 130.729904 4.315358 209.411118
endloop
endfacet
facet normal 0.011648 -0.804624 0.593671
outer loop
vertex 130.729904 4.315358 209.411118
vertex 114.475258 0.216503 204.174713
vertex 132.403473 -23.371796 171.852844
endloop
endfacet
facet normal -0.085879 -0.767628 0.635116
outer loop
vertex 145.380386 -21.431786 177.050613
vertex 158.777588 -19.620346 181.051544
vertex 147.583740 8.188611 213.148987
endloop
endfacet
facet normal 0.037513 -0.773638 0.632516
outer loop
vertex 147.583740 8.188611 213.148987
vertex 130.729904 4.315358 209.411118
vertex 145.380386 -21.431786 177.050613
endloop
endfacet
facet normal -0.059684 -0.737271 0.672956
outer loop
vertex 158.777588 -19.620346 181.051544
vertex 172.552429 -18.145124 183.889435
vertex 164.974304 11.380596 215.564865
endloop
endfacet
facet normal 0.045033 -0.747199 0.663073
outer loop
vertex 164.974304 11.380596 215.564865
vertex 147.583740 8.188611 213.148987
vertex 158.777588 -19.620346 181.051544
endloop
endfacet
facet normal -0.035310 -0.715556 0.697663
outer loop
vertex 172.552429 -18.145124 183.889435
vertex 186.667465 -17.178280 185.595459
vertex 182.834122 13.510550 216.877365
endloop
endfacet
facet normal 0.036248 -0.726672 0.686028
outer loop
vertex 182.834122 13.510550 216.877365
vertex 164.974304 11.380596 215.564865
vertex 172.552429 -18.145124 183.889435
endloop
endfacet
facet normal -0.011706 -0.707058 0.707058
outer loop
vertex 186.667465 -17.178280 185.595459
vertex 201.090393 -16.840393 186.172134
vertex 201.090332 14.272315 217.284821
endloop
endfacet
facet normal 0.014099 -0.712906 0.701118
outer loop
vertex 201.090332 14.272315 217.284821
vertex 182.834122 13.510550 216.877365
vertex 186.667465 -17.178280 185.595459
endloop
endfacet
facet normal 1.000000 -0.000012 0.000000
outer loop
vertex 201.090332 15.686527 213.042191
vertex 201.090332 17.100742 214.456406
vertex 201.090332 14.272315 217.284821
endloop
endfacet
facet normal 1.000000 -0.000003 0.000000
outer loop
vertex 201.090393 -16.840393 186.172134
vertex 201.090393 -14.011967 183.343719
vertex 201.090393 -12.597752 184.757919
endloop
endfacet
facet normal 1.000000 0.000020 0.000000
outer loop
vertex 201.090332 14.272315 214.456406
vertex 201.090332 15.686527 213.042191
vertex 201.090332 14.272315 217.284821
endloop
endfacet
facet normal 1.000000 0.000001 0.000000
outer loop
vertex 201.090393 -16.840393 186.172134
vertex 201.090393 -12.597752 184.757919
vertex 201.090393 -14.011965 186.172134
endloop
endfacet
facet normal 1.000000 0.000004 0.000000
outer loop
vertex 201.090393 -16.840393 186.172134
vertex 201.090332 14.272315 214.456406
vertex 201.090332 14.272315 217.284821
endloop
endfacet
facet normal -0.984705 -0.174233 -0.000000
outer loop
vertex 201.090393 -14.011965 186.172134
vertex 201.090363 0.130175 200.314270
vertex 201.090332 14.272315 214.456406
endloop
endfacet
facet normal 1.000000 -0.000001 0.000002
outer loop
vertex 201.090393 -16.840393 186.172134
vertex 201.090393 -14.011965 186.172134
vertex 201.090332 14.272315 214.456406
endloop
endfacet
facet normal -0.018597 -0.998751 -0.046378
outer loop
vertex 23.090363 -2.000000 0.000000
vertex 23.675674 -2.641536 13.580826
vertex -20.162277 -2.000000 17.344147
endloop
endfacet
facet normal 0.000000 -1.000000 0.000000
outer loop
vertex -20.162277 -2.000000 17.344147
vertex -20.909637 -2.000000 0.000000
vertex 23.090363 -2.000000 0.000000
endloop
endfacet
facet normal -0.999073 0.000000 0.043050
outer loop
vertex -20.909637 -2.000000 0.000000
vertex -20.162277 -2.000000 17.344147
vertex -20.162277 2.000000 17.344147
endloop
endfacet
facet normal -0.999073 -0.000000 0.043050
outer loop
vertex -20.162277 2.000000 17.344147
vertex -20.909637 2.000000 0.000000
vertex -20.909637 -2.000000 0.000000
endloop
endfacet
facet normal 0.000000 1.000000 0.000000
outer loop
vertex -20.909637 2.000000 0.000000
vertex -20.162277 2.000000 17.344147
vertex -18.169647 2.000000 17.172668
endloop
endfacet
facet normal 0.000000 1.000000 0.000000
outer loop
vertex -18.169647 2.000000 17.172668
vertex -18.909637 2.000000 0.000000
vertex -20.909637 2.000000 0.000000
endloop
endfacet
facet normal 0.999073 -0.000000 -0.043051
outer loop
vertex -18.909637 2.000000 0.000000
vertex -18.539642 -0.000000 8.586334
vertex -18.909637 0.000000 0.000000
endloop
endfacet
facet normal 0.999073 0.000001 -0.043051
outer loop
vertex -18.169647 2.000000 17.172668
vertex -18.169647 -0.000000 17.172668
vertex -18.539642 -0.000000 8.586334
endloop
endfacet
facet normal 0.999073 0.000000 -0.043051
outer loop
vertex -18.909637 2.000000 0.000000
vertex -18.169647 2.000000 17.172668
vertex -18.539642 -0.000000 8.586334
endloop
endfacet
facet normal 0.023820 0.999716 -0.001027
outer loop
vertex 1.423538 -0.000000 7.728867
vertex 1.756699 -0.000000 15.457733
vertex 21.683044 -0.476536 13.744583
endloop
endfacet
facet normal 0.006733 0.998385 0.056411
outer loop
vertex 21.683044 -0.476536 13.744583
vertex 21.386703 -0.086200 6.871643
vertex 1.423538 -0.000000 7.728867
endloop
endfacet
facet normal -0.999071 0.000000 0.043097
outer loop
vertex 21.090363 0.000000 0.000000
vertex 21.683044 1.522532 13.739456
vertex 21.090363 2.000000 0.000000
endloop
endfacet
facet normal -0.999072 0.000111 0.043083
outer loop
vertex 21.386703 -0.086200 6.871643
vertex 21.683044 -0.476536 13.744583
vertex 21.683044 1.522532 13.739456
endloop
endfacet
facet normal -0.999071 0.000097 0.043086
outer loop
vertex 21.090363 0.000000 0.000000
vertex 21.386703 -0.086200 6.871643
vertex 21.683044 1.522532 13.739456
endloop
endfacet
facet normal 0.084692 0.995926 0.030957
outer loop
vertex 21.090363 2.000000 0.000000
vertex 21.683044 1.522532 13.739456
vertex 23.675674 1.358440 13.567062
endloop
endfacet
facet normal -0.000000 0.998884 0.047235
outer loop
vertex 23.675674 1.358440 13.567062
vertex 23.090363 2.000000 0.000000
vertex 21.090363 2.000000 0.000000
endloop
endfacet
facet normal 0.999070 -0.000148 -0.043109
outer loop
vertex 23.090363 2.000000 0.000000
vertex 23.675674 1.358440 13.567062
vertex 23.675674 -2.641536 13.580826
endloop
endfacet
facet normal 0.999073 0.000000 -0.043058
outer loop
vertex 23.675674 -2.641536 13.580826
vertex 23.090363 -2.000000 0.000000
vertex 23.090363 2.000000 0.000000
endloop
endfacet
facet normal -0.991850 -0.000000 0.127415
outer loop
vertex -20.162277 -2.000000 17.344147
vertex -17.964569 -2.000000 34.452042
vertex -17.964569 2.000000 34.452042
endloop
endfacet
facet normal -0.991850 0.000000 0.127415
outer loop
vertex -17.964569 2.000000 34.452042
vertex -20.162277 2.000000 17.344147
vertex -20.162277 -2.000000 17.344147
endloop
endfacet
facet normal -0.000000 1.000000 0.000000
outer loop
vertex -20.162277 2.000000 17.344147
vertex -17.964569 2.000000 34.452042
vertex -15.993195 2.000000 34.114960
endloop
endfacet
facet normal -0.000000 1.000000 -0.000000
outer loop
vertex -15.993195 2.000000 34.114960
vertex -18.169647 2.000000 17.172668
vertex -20.162277 2.000000 17.344147
endloop
endfacet
facet normal 0.991849 0.000000 -0.127416
outer loop
vertex -18.169647 2.000000 17.172668
vertex -17.081421 -0.000000 25.643799
vertex -18.169647 -0.000000 17.172668
endloop
endfacet
facet normal 0.991849 0.000000 -0.127415
outer loop
vertex -15.993195 2.000000 34.114960
vertex -15.993195 -0.000000 34.114960
vertex -17.081421 -0.000000 25.643799
endloop
endfacet
facet normal 0.991849 0.000001 -0.127416
outer loop
vertex -18.169647 2.000000 17.172668
vertex -15.993195 2.000000 34.114960
vertex -17.081421 -0.000000 25.643799
endloop
endfacet
facet normal 0.100590 0.994873 0.010459
outer loop
vertex 2.738693 -0.000000 23.100906
vertex 3.720688 -0.179647 30.744644
vertex 23.434586 -2.137644 27.391953
endloop
endfacet
facet normal 0.075670 0.988924 0.127686
outer loop
vertex 23.434586 -2.137644 27.391953
vertex 22.558823 -1.189149 20.564896
vertex 2.738693 -0.000000 23.100906
endloop
endfacet
facet normal -0.991836 0.000327 0.127518
outer loop
vertex 21.683044 -0.476536 13.744583
vertex 23.434586 -0.139709 27.367203
vertex 21.683044 1.522532 13.739456
endloop
endfacet
facet normal -0.991844 0.001579 0.127451
outer loop
vertex 22.558823 -1.189149 20.564896
vertex 23.434586 -2.137644 27.391953
vertex 23.434586 -0.139709 27.367203
endloop
endfacet
facet normal -0.991838 0.001294 0.127495
outer loop
vertex 21.683044 -0.476536 13.744583
vertex 22.558823 -1.189149 20.564896
vertex 23.434586 -0.139709 27.367203
endloop
endfacet
facet normal 0.165486 0.981289 0.098423
outer loop
vertex 21.683044 1.522532 13.739456
vertex 23.434586 -0.139709 27.367203
vertex 25.405975 -0.438485 27.031387
endloop
endfacet
facet normal 0.091796 0.988505 0.120127
outer loop
vertex 25.405975 -0.438485 27.031387
vertex 23.675674 1.358440 13.567062
vertex 21.683044 1.522532 13.739456
endloop
endfacet
facet normal 0.991811 -0.001800 -0.127698
outer loop
vertex 23.675674 1.358440 13.567062
vertex 25.405975 -0.438485 27.031387
vertex 25.405975 -4.438088 27.087784
endloop
endfacet
facet normal 0.991887 -0.000438 -0.127123
outer loop
vertex 25.405975 -4.438088 27.087784
vertex 23.675674 -2.641536 13.580826
vertex 23.675674 1.358440 13.567062
endloop
endfacet
facet normal -0.978012 0.000021 0.208550
outer loop
vertex -17.964569 -2.000000 34.452042
vertex -14.383484 -2.014933 51.245789
vertex -14.383484 1.985067 51.245392
endloop
endfacet
facet normal -0.978011 -0.000000 0.208555
outer loop
vertex -14.383484 1.985067 51.245392
vertex -17.964569 2.000000 34.452042
vertex -17.964569 -2.000000 34.452042
endloop
endfacet
facet normal 0.018160 0.999831 -0.002983
outer loop
vertex -17.964569 2.000000 34.452042
vertex -14.383484 1.985067 51.245392
vertex -12.445923 1.948395 50.749222
endloop
endfacet
facet normal 0.000512 0.999995 0.002993
outer loop
vertex -12.445923 1.948395 50.749222
vertex -15.993195 2.000000 34.114960
vertex -17.964569 2.000000 34.452042
endloop
endfacet
facet normal 0.978011 -0.000000 -0.208555
outer loop
vertex -15.993195 2.000000 34.114960
vertex -14.219559 0.000000 42.432343
vertex -15.993195 -0.000000 34.114960
endloop
endfacet
facet normal 0.978011 -0.000073 -0.208551
outer loop
vertex -12.445923 1.948395 50.749222
vertex -12.445923 -0.051336 50.749924
vertex -14.219559 0.000000 42.432343
endloop
endfacet
facet normal 0.978009 -0.000026 -0.208561
outer loop
vertex -15.993195 2.000000 34.114960
vertex -12.445923 1.948395 50.749222
vertex -14.219559 0.000000 42.432343
endloop
endfacet
facet normal 0.179182 0.981472 0.067873
outer loop
vertex 5.325256 -0.721068 38.271561
vertex 6.929825 -1.534899 45.803909
vertex 26.305573 -4.734323 40.917603
endloop
endfacet
facet normal 0.165638 0.972777 0.162080
outer loop
vertex 26.305573 -4.734323 40.917603
vertex 24.870071 -3.361748 34.146652
vertex 5.325256 -0.721068 38.271561
endloop
endfacet
facet normal -0.977993 0.002585 0.208622
outer loop
vertex 23.434586 -2.137644 27.391953
vertex 26.305573 -2.737975 40.858170
vertex 23.434586 -0.139709 27.367203
endloop
endfacet
facet normal -0.977981 0.006210 0.208600
outer loop
vertex 24.870071 -3.361748 34.146652
vertex 26.305573 -4.734323 40.917603
vertex 26.305573 -2.737975 40.858170
endloop
endfacet
facet normal -0.977963 0.004886 0.208719
outer loop
vertex 23.434586 -2.137644 27.391953
vertex 24.870071 -3.361748 34.146652
vertex 26.305573 -2.737975 40.858170
endloop
endfacet
facet normal 0.231199 0.963308 0.136325
outer loop
vertex 23.434586 -0.139709 27.367203
vertex 26.305573 -2.737975 40.858170
vertex 28.243149 -3.134019 40.370697
endloop
endfacet
facet normal 0.174399 0.971710 0.159265
outer loop
vertex 28.243149 -3.134019 40.370697
vertex 25.405975 -0.438485 27.031387
vertex 23.434586 -0.139709 27.367203
endloop
endfacet
facet normal 0.977821 -0.006734 -0.209336
outer loop
vertex 25.405975 -0.438485 27.031387
vertex 28.243149 -3.134019 40.370697
vertex 28.243149 -7.131951 40.499298
endloop
endfacet
facet normal 0.978224 -0.002926 -0.207529
outer loop
vertex 28.243149 -7.131951 40.499298
vertex 25.405975 -4.438088 27.087784
vertex 25.405975 -0.438485 27.031387
endloop
endfacet
facet normal -0.958267 0.001979 0.285867
outer loop
vertex -14.383484 -2.014933 51.245789
vertex -9.485291 -2.916443 67.671463
vertex -9.485291 1.083461 67.643768
endloop
endfacet
facet normal -0.958168 0.000029 0.286206
outer loop
vertex -9.485291 1.083461 67.643768
vertex -14.383484 1.985067 51.245392
vertex -14.383484 -2.014933 51.245789
endloop
endfacet
facet normal 0.107976 0.993901 0.022394
outer loop
vertex -14.383484 1.985067 51.245392
vertex -9.485291 1.083461 67.643768
vertex -7.592850 0.892464 66.995987
endloop
endfacet
facet normal 0.032975 0.997941 0.055010
outer loop
vertex -7.592850 0.892464 66.995987
vertex -12.445923 1.948395 50.749222
vertex -14.383484 1.985067 51.245392
endloop
endfacet
facet normal 0.958221 -0.000101 -0.286030
outer loop
vertex -12.445923 1.948395 50.749222
vertex -10.019394 -0.436378 58.879089
vertex -12.445923 -0.051336 50.749924
endloop
endfacet
facet normal 0.958207 -0.002383 -0.286066
outer loop
vertex -7.592850 0.892464 66.995987
vertex -7.592850 -1.106265 67.012634
vertex -10.019394 -0.436378 58.879089
endloop
endfacet
facet normal 0.958147 -0.001004 -0.286274
outer loop
vertex -12.445923 1.948395 50.749222
vertex -7.592850 0.892464 66.995987
vertex -10.019394 -0.436378 58.879089
endloop
endfacet
facet normal 0.239451 0.966537 0.092032
outer loop
vertex 9.130692 -2.633873 53.194458
vertex 11.331558 -3.884296 60.600342
vertex 30.255966 -7.973280 54.305679
endloop
endfacet
facet normal 0.233342 0.957957 0.166944
outer loop
vertex 30.255966 -7.973280 54.305679
vertex 28.280777 -6.323242 47.598206
vertex 9.130692 -2.633873 53.194458
endloop
endfacet
facet normal -0.958232 0.008510 0.285866
outer loop
vertex 26.305573 -4.734323 40.917603
vertex 30.255966 -5.979767 54.196548
vertex 26.305573 -2.737975 40.858170
endloop
endfacet
facet normal -0.958105 0.015657 0.285990
outer loop
vertex 28.280777 -6.323242 47.598206
vertex 30.255966 -7.973280 54.305679
vertex 30.255966 -5.979767 54.196548
endloop
endfacet
facet normal -0.958101 0.012176 0.286171
outer loop
vertex 26.305573 -4.734323 40.917603
vertex 28.280777 -6.323242 47.598206
vertex 30.255966 -5.979767 54.196548
endloop
endfacet
facet normal 0.281693 0.948174 0.147018
outer loop
vertex 26.305573 -2.737975 40.858170
vertex 30.255966 -5.979767 54.196548
vertex 32.148407 -6.444856 53.570068
endloop
endfacet
facet normal 0.238107 0.956346 0.169435
outer loop
vertex 32.148407 -6.444856 53.570068
vertex 28.243149 -3.134019 40.370697
vertex 26.305573 -2.737975 40.858170
endloop
endfacet
facet normal 0.957639 -0.016586 -0.287494
outer loop
vertex 28.243149 -3.134019 40.370697
vertex 32.148407 -6.444856 53.570068
vertex 32.148407 -10.438217 53.800446
endloop
endfacet
facet normal 0.958844 -0.009128 -0.283788
outer loop
vertex 32.148407 -10.438217 53.800446
vertex 28.243149 -7.131951 40.499298
vertex 28.243149 -3.134019 40.370697
endloop
endfacet
facet normal -0.933189 0.008711 0.359280
outer loop
vertex -9.485291 -2.916443 67.671463
vertex -3.334534 -4.820699 83.693550
vertex -3.334534 -0.821874 83.596596
endloop
endfacet
facet normal -0.932947 0.002493 0.360004
outer loop
vertex -3.334534 -0.821874 83.596596
vertex -9.485291 1.083461 67.643768
vertex -9.485291 -2.916443 67.671463
endloop
endfacet
facet normal 0.180938 0.982344 0.047564
outer loop
vertex -9.485291 1.083461 67.643768
vertex -3.334534 -0.821874 83.596596
vertex -1.497452 -1.122141 82.809593
endloop
endfacet
facet normal 0.126280 0.988977 0.077318
outer loop
vertex -1.497452 -1.122141 82.809593
vertex -7.592850 0.892464 66.995987
vertex -9.485291 1.083461 67.643768
endloop
endfacet
facet normal 0.933135 -0.002994 -0.359514
outer loop
vertex -7.592850 0.892464 66.995987
vertex -4.545151 -2.046912 74.930908
vertex -7.592850 -1.106265 67.012634
endloop
endfacet
facet normal 0.932988 -0.009587 -0.359781
outer loop
vertex -1.497452 -1.122141 82.809593
vertex -1.497452 -3.119505 82.862816
vertex -4.545151 -2.046912 74.930908
endloop
endfacet
facet normal 0.932846 -0.005243 -0.360236
outer loop
vertex -7.592850 0.892464 66.995987
vertex -1.497452 -1.122141 82.809593
vertex -4.545151 -2.046912 74.930908
endloop
endfacet
facet normal 0.282065 0.955373 0.087759
outer loop
vertex 14.102463 -5.333632 67.843887
vertex 16.873367 -6.819461 75.113205
vertex 35.244186 -11.547377 67.537354
endloop
endfacet
facet normal 0.280847 0.948246 0.148169
outer loop
vertex 35.244186 -11.547377 67.537354
vertex 32.750076 -9.772169 60.903885
vertex 14.102463 -5.333632 67.843887
endloop
endfacet
facet normal -0.933185 0.019645 0.358859
outer loop
vertex 30.255966 -7.973280 54.305679
vertex 35.244186 -9.559016 67.363998
vertex 30.255966 -5.979767 54.196548
endloop
endfacet
facet normal -0.932777 0.031306 0.359092
outer loop
vertex 32.750076 -9.772169 60.903885
vertex 35.244186 -11.547377 67.537354
vertex 35.244186 -9.559016 67.363998
endloop
endfacet
facet normal -0.932877 0.024665 0.359350
outer loop
vertex 30.255966 -7.973280 54.305679
vertex 32.750076 -9.772169 60.903885
vertex 35.244186 -9.559016 67.363998
endloop
endfacet
facet normal 0.318140 0.938444 0.134572
outer loop
vertex 30.255966 -5.979767 54.196548
vertex 35.244186 -9.559016 67.363998
vertex 37.081253 -10.073783 66.610764
endloop
endfacet
facet normal 0.284082 0.946056 0.155807
outer loop
vertex 37.081253 -10.073783 66.610764
vertex 32.148407 -6.444856 53.570068
vertex 30.255966 -5.979767 54.196548
endloop
endfacet
facet normal 0.931770 -0.032745 -0.361569
outer loop
vertex 32.148407 -6.444856 53.570068
vertex 37.081253 -10.073783 66.610764
vertex 37.081253 -14.057481 66.971542
endloop
endfacet
facet normal 0.934415 -0.020514 -0.355594
outer loop
vertex 37.081253 -14.057481 66.971542
vertex 32.148407 -10.438217 53.800446
vertex 32.148407 -6.444856 53.570068
endloop
endfacet
facet normal -0.903206 0.022109 0.428638
outer loop
vertex -3.334534 -4.820699 83.693550
vertex 4.006531 -7.198092 99.284912
vertex 4.006531 -3.203402 99.078865
endloop
endfacet
facet normal -0.902901 0.010419 0.429722
outer loop
vertex 4.006531 -3.203402 99.078865
vertex -3.334534 -0.821874 83.596596
vertex -3.334534 -4.820699 83.693550
endloop
endfacet
facet normal 0.228530 0.972662 0.041258
outer loop
vertex -3.334534 -0.821874 83.596596
vertex 4.006531 -3.203402 99.078865
vertex 5.778900 -3.581101 98.165962
endloop
endfacet
facet normal 0.188969 0.979672 0.067331
outer loop
vertex 5.778900 -3.581101 98.165962
vertex -1.497452 -1.122141 82.809593
vertex -3.334534 -0.821874 83.596596
endloop
endfacet
facet normal 0.903285 -0.011428 -0.428890
outer loop
vertex -1.497452 -1.122141 82.809593
vertex 2.140717 -4.350733 90.557968
vertex -1.497452 -3.119505 82.862816
endloop
endfacet
facet normal 0.902828 -0.023538 -0.429356
outer loop
vertex 5.778900 -3.581101 98.165962
vertex 5.778900 -5.575659 98.275307
vertex 2.140717 -4.350733 90.557968
endloop
endfacet
facet normal 0.902645 -0.015105 -0.430122
outer loop
vertex -1.497452 -1.122141 82.809593
vertex 5.778900 -3.581101 98.165962
vertex 2.140717 -4.350733 90.557968
endloop
endfacet
facet normal 0.308582 0.949308 0.059928
outer loop
vertex 20.188034 -8.415287 82.199249
vertex 23.502701 -9.942101 89.317238
vertex 41.226517 -15.151760 80.578705
endloop
endfacet
facet normal 0.310792 0.944024 0.110573
outer loop
vertex 41.226517 -15.151760 80.578705
vertex 38.235352 -13.400990 74.038773
vertex 20.188034 -8.415287 82.199249
endloop
endfacet
facet normal -0.903361 0.037250 0.427260
outer loop
vertex 35.244186 -11.547377 67.537354
vertex 41.226517 -13.172179 80.327545
vertex 35.244186 -9.559016 67.363998
endloop
endfacet
facet normal -0.902491 0.054212 0.427284
outer loop
vertex 38.235352 -13.400990 74.038773
vertex 41.226517 -15.151760 80.578705
vertex 41.226517 -13.172179 80.327545
endloop
endfacet
facet normal -0.902808 0.043686 0.427818
outer loop
vertex 35.244186 -11.547377 67.537354
vertex 38.235352 -13.400990 74.038773
vertex 41.226517 -13.172179 80.327545
endloop
endfacet
facet normal 0.341886 0.934125 0.102586
outer loop
vertex 35.244186 -9.559016 67.363998
vertex 41.226517 -13.172179 80.327545
vertex 42.998901 -13.725456 79.458794
endloop
endfacet
facet normal 0.314162 0.941386 0.122862
outer loop
vertex 42.998901 -13.725456 79.458794
vertex 37.081253 -10.073783 66.610764
vertex 35.244186 -9.559016 67.363998
endloop
endfacet
facet normal 0.900678 -0.056253 -0.430830
outer loop
vertex 37.081253 -10.073783 66.610764
vertex 42.998901 -13.725456 79.458794
vertex 42.998901 -17.691790 79.976669
endloop
endfacet
facet normal 0.905459 -0.038281 -0.422703
outer loop
vertex 42.998901 -17.691790 79.976669
vertex 37.081253 -14.057481 66.971542
vertex 37.081253 -10.073783 66.610764
endloop
endfacet
facet normal -0.868706 0.043554 0.493409
outer loop
vertex 4.006531 -7.198092 99.284912
vertex 12.478210 -9.564604 114.409218
vertex 12.478210 -5.580096 114.057503
endloop
endfacet
facet normal -0.868400 0.025543 0.495206
outer loop
vertex 12.478210 -5.580096 114.057503
vertex 4.006531 -3.203402 99.078865
vertex 4.006531 -7.198092 99.284912
endloop
endfacet
facet normal 0.253679 0.967237 0.009997
outer loop
vertex 4.006531 -3.203402 99.078865
vertex 12.478210 -5.580096 114.057503
vertex 14.177200 -6.015085 113.031136
endloop
endfacet
facet normal 0.224394 0.973950 0.032697
outer loop
vertex 14.177200 -6.015085 113.031136
vertex 5.778900 -3.581101 98.165962
vertex 4.006531 -3.203402 99.078865
endloop
endfacet
facet normal 0.869053 -0.027080 -0.493978
outer loop
vertex 5.778900 -3.581101 98.165962
vertex 9.978043 -6.852896 105.732857
vertex 5.778900 -5.575659 98.275307
endloop
endfacet
facet normal 0.868122 -0.045583 -0.494253
outer loop
vertex 14.177200 -6.015085 113.031136
vertex 14.177200 -8.003878 113.214554
vertex 9.978043 -6.852896 105.732857
endloop
endfacet
facet normal 0.867918 -0.032400 -0.495649
outer loop
vertex 5.778900 -3.581101 98.165962
vertex 14.177200 -6.015085 113.031136
vertex 9.978043 -6.852896 105.732857
endloop
endfacet
facet normal 0.320521 0.947155 0.012808
outer loop
vertex 27.334900 -11.494329 96.226219
vertex 31.167084 -12.884993 103.165565
vertex 48.156967 -18.501972 93.370750
endloop
endfacet
facet normal 0.325554 0.943751 0.057865
outer loop
vertex 48.156967 -18.501972 93.370750
vertex 44.691742 -16.913395 86.957489
vertex 27.334900 -11.494329 96.226219
endloop
endfacet
facet normal -0.869111 0.062254 0.490685
outer loop
vertex 41.226517 -15.151760 80.578705
vertex 48.156967 -16.536203 93.029709
vertex 41.226517 -13.172179 80.327545
endloop
endfacet
facet normal -0.867649 0.084987 0.489860
outer loop
vertex 44.691742 -16.913395 86.957489
vertex 48.156967 -18.501972 93.370750
vertex 48.156967 -16.536203 93.029709
endloop
endfacet
facet normal -0.868249 0.070389 0.491110
outer loop
vertex 41.226517 -15.151760 80.578705
vertex 44.691742 -16.913395 86.957489
vertex 48.156967 -16.536203 93.029709
endloop
endfacet
facet normal 0.354059 0.933658 0.054089
outer loop
vertex 41.226517 -13.172179 80.327545
vertex 48.156967 -16.536203 93.029709
vertex 49.855942 -17.124052 92.055565
endloop
endfacet
facet normal 0.330118 0.941020 0.074187
outer loop
vertex 49.855942 -17.124052 92.055565
vertex 42.998901 -13.725456 79.458794
vertex 41.226517 -13.172179 80.327545
endloop
endfacet
facet normal 0.864792 -0.087703 -0.494411
outer loop
vertex 42.998901 -13.725456 79.458794
vertex 49.855942 -17.124052 92.055565
vertex 49.855942 -21.062567 92.754219
endloop
endfacet
facet normal 0.872317 -0.063303 -0.484826
outer loop
vertex 49.855942 -21.062567 92.754219
vertex 42.998901 -17.691790 79.976669
vertex 42.998901 -13.725456 79.458794
endloop
endfacet
facet normal -0.830019 0.073836 0.552826
outer loop
vertex 12.478210 -9.564604 114.409218
vertex 22.023392 -11.504700 128.999603
vertex 22.023392 -7.539907 128.470062
endloop
endfacet
facet normal -0.829643 0.049090 0.556132
outer loop
vertex 22.023392 -7.539907 128.470062
vertex 12.478210 -5.580096 114.057503
vertex 12.478210 -9.564604 114.409218
endloop
endfacet
facet normal 0.259336 0.964936 -0.040542
outer loop
vertex 12.478210 -5.580096 114.057503
vertex 22.023392 -7.539907 128.470062
vertex 23.640701 -8.022006 127.341156
endloop
endfacet
facet normal 0.236520 0.971417 -0.020178
outer loop
vertex 23.640701 -8.022006 127.341156
vertex 14.177200 -6.015085 113.031136
vertex 12.478210 -5.580096 114.057503
endloop
endfacet
facet normal 0.830669 -0.051131 -0.554414
outer loop
vertex 14.177200 -6.015085 113.031136
vertex 18.908951 -9.114305 120.406456
vertex 14.177200 -8.003878 113.214554
endloop
endfacet
facet normal 0.829179 -0.076483 -0.553726
outer loop
vertex 23.640701 -8.022006 127.341156
vertex 23.640701 -10.000325 127.614410
vertex 18.908951 -9.114305 120.406456
endloop
endfacet
facet normal 0.828882 -0.058486 -0.556358
outer loop
vertex 14.177200 -6.015085 113.031136
vertex 23.640701 -8.022006 127.341156
vertex 18.908951 -9.114305 120.406456
endloop
endfacet
facet normal 0.319173 0.946389 -0.049753
outer loop
vertex 35.490509 -14.227630 109.862259
vertex 39.813950 -15.332657 116.578247
vertex 55.987167 -21.352522 105.823624
endloop
endfacet
facet normal 0.327120 0.944958 -0.006901
outer loop
vertex 55.987167 -21.352522 105.823624
vertex 52.072067 -20.042770 99.586014
vertex 35.490509 -14.227630 109.862259
endloop
endfacet
facet normal -0.830628 0.095181 0.548633
outer loop
vertex 48.156967 -18.501972 93.370750
vertex 55.987167 -19.406927 105.382645
vertex 48.156967 -16.536203 93.029709
endloop
endfacet
facet normal -0.828564 0.123765 0.546044
outer loop
vertex 52.072067 -20.042770 99.586014
vertex 55.987167 -21.352522 105.823624
vertex 55.987167 -19.406927 105.382645
endloop
endfacet
facet normal -0.829394 0.105518 0.548608
outer loop
vertex 48.156967 -18.501972 93.370750
vertex 52.072067 -20.042770 99.586014
vertex 55.987167 -19.406927 105.382645
endloop
endfacet
facet normal 0.355531 0.934629 -0.008162
outer loop
vertex 48.156967 -16.536203 93.029709
vertex 55.987167 -19.406927 105.382645
vertex 57.604492 -20.031500 104.312485
endloop
endfacet
facet normal 0.333493 0.942666 0.012782
outer loop
vertex 57.604492 -20.031500 104.312485
vertex 49.855942 -17.124052 92.055565
vertex 48.156967 -16.536203 93.029709
endloop
endfacet
facet normal 0.824491 -0.127191 -0.551395
outer loop
vertex 49.855942 -17.124052 92.055565
vertex 57.604492 -20.031500 104.312485
vertex 57.604492 -23.929150 105.211555
endloop
endfacet
facet normal 0.835146 -0.096069 -0.541573
outer loop
vertex 57.604492 -23.929150 105.211555
vertex 49.855942 -21.062567 92.754219
vertex 49.855942 -17.124052 92.055565
endloop
endfacet
facet normal -0.787401 0.113113 0.605975
outer loop
vertex 22.023392 -11.504700 128.999603
vertex 32.587219 -12.691973 142.947815
vertex 32.587219 -8.759892 142.213837
endloop
endfacet
facet normal -0.786685 0.081729 0.611921
outer loop
vertex 32.587219 -8.759892 142.213837
vertex 22.023392 -7.539907 128.470062
vertex 22.023392 -11.504700 128.999603
endloop
endfacet
facet normal 0.248148 0.962987 -0.105252
outer loop
vertex 22.023392 -7.539907 128.470062
vertex 32.587219 -8.759892 142.213837
vertex 34.114822 -9.287077 140.991989
endloop
endfacet
facet normal 0.229067 0.969613 -0.085903
outer loop
vertex 34.114822 -9.287077 140.991989
vertex 23.640701 -8.022006 127.341156
vertex 22.023392 -7.539907 128.470062
endloop
endfacet
facet normal 0.788220 -0.084201 -0.609606
outer loop
vertex 23.640701 -8.022006 127.341156
vertex 28.877762 -10.773241 134.492676
vertex 23.640701 -10.000325 127.614410
endloop
endfacet
facet normal 0.786208 -0.116372 -0.606906
outer loop
vertex 34.114822 -9.287077 140.991989
vertex 34.114822 -11.248498 141.368088
vertex 28.877762 -10.773241 134.492676
endloop
endfacet
facet normal 0.785614 -0.094122 -0.611515
outer loop
vertex 23.640701 -8.022006 127.341156
vertex 34.114822 -9.287077 140.991989
vertex 28.877762 -10.773241 134.492676
endloop
endfacet
facet normal 0.305766 0.944006 -0.123937
outer loop
vertex 44.602356 -16.333559 123.009003
vertex 49.390762 -17.040386 129.438751
vertex 64.666733 -23.514137 117.816833
endloop
endfacet
facet normal 0.317235 0.944894 -0.080847
outer loop
vertex 64.666733 -23.514137 117.816833
vertex 60.326950 -22.570320 111.818817
vertex 44.602356 -16.333559 123.009003
endloop
endfacet
facet normal -0.787969 0.136105 0.600484
outer loop
vertex 55.987167 -21.352522 105.823624
vertex 64.666733 -21.596136 117.268379
vertex 55.987167 -19.406927 105.382645
endloop
endfacet
facet normal -0.785448 0.170162 0.595077
outer loop
vertex 60.326950 -22.570320 111.818817
vertex 64.666733 -23.514137 117.816833
vertex 64.666733 -21.596136 117.268379
endloop
endfacet
facet normal -0.786327 0.149232 0.599516
outer loop
vertex 55.987167 -21.352522 105.823624
vertex 60.326950 -22.570320 111.818817
vertex 64.666733 -21.596136 117.268379
endloop
endfacet
facet normal 0.347058 0.934309 -0.081350
outer loop
vertex 55.987167 -19.406927 105.382645
vertex 64.666733 -21.596136 117.268379
vertex 66.194321 -22.264313 116.111382
endloop
endfacet
facet normal 0.325691 0.943663 -0.058532
outer loop
vertex 66.194321 -22.264313 116.111382
vertex 57.604492 -20.031500 104.312485
vertex 55.987167 -19.406927 105.382645
endloop
endfacet
facet normal 0.780095 -0.174266 -0.600902
outer loop
vertex 57.604492 -20.031500 104.312485
vertex 66.194321 -22.264313 116.111382
vertex 66.194321 -26.106022 117.225510
endloop
endfacet
facet normal 0.793950 -0.136655 -0.592426
outer loop
vertex 66.194321 -26.106022 117.225510
vertex 57.604492 -23.929150 105.211555
vertex 57.604492 -20.031500 104.312485
endloop
endfacet
facet normal -0.741004 0.160894 0.651940
outer loop
vertex 32.587219 -12.691973 142.947815
vertex 44.116867 -12.906226 156.105484
vertex 44.116867 -9.022743 155.147064
endloop
endfacet
facet normal -0.739486 0.123524 0.661742
outer loop
vertex 44.116867 -9.022743 155.147064
vertex 32.587219 -8.759892 142.213837
vertex 32.587219 -12.691973 142.947815
endloop
endfacet
facet normal 0.222792 0.958266 -0.179138
outer loop
vertex 32.587219 -8.759892 142.213837
vertex 44.116867 -9.022743 155.147064
vertex 45.546707 -9.599279 153.841263
endloop
endfacet
facet normal 0.205641 0.965542 -0.159497
outer loop
vertex 45.546707 -9.599279 153.841263
vertex 34.114822 -9.287077 140.991989
vertex 32.587219 -8.759892 142.213837
endloop
endfacet
facet normal 0.741688 -0.126314 -0.658745
outer loop
vertex 34.114822 -9.287077 140.991989
vertex 39.830765 -11.564062 147.864227
vertex 34.114822 -11.248498 141.368088
endloop
endfacet
facet normal 0.739330 -0.164746 -0.652878
outer loop
vertex 45.546707 -9.599279 153.841263
vertex 45.546707 -11.535946 154.329956
vertex 39.830765 -11.564062 147.864227
endloop
endfacet
facet normal 0.738143 -0.139311 -0.660104
outer loop
vertex 34.114822 -9.287077 140.991989
vertex 45.546707 -9.599279 153.841263
vertex 39.830765 -11.564062 147.864227
endloop
endfacet
facet normal 0.281735 0.937194 -0.205654
outer loop
vertex 54.617905 -17.609352 135.533096
vertex 59.845016 -17.849573 141.599243
vertex 74.143341 -24.867384 129.206055
endloop
endfacet
facet normal 0.297645 0.941014 -0.160938
outer loop
vertex 74.143341 -24.867384 129.206055
vertex 69.405029 -24.340698 123.522400
vertex 54.617905 -17.609352 135.533096
endloop
endfacet
facet normal -0.741105 0.184586 0.645516
outer loop
vertex 64.666733 -23.514137 117.816833
vertex 74.143341 -22.985004 128.545441
vertex 64.666733 -21.596136 117.268379
endloop
endfacet
facet normal -0.738420 0.223305 0.636294
outer loop
vertex 69.405029 -24.340698 123.522400
vertex 74.143341 -24.867384 129.206055
vertex 74.143341 -22.985004 128.545441
endloop
endfacet
facet normal -0.739075 0.201085 0.642910
outer loop
vertex 64.666733 -23.514137 117.816833
vertex 69.405029 -24.340698 123.522400
vertex 74.143341 -22.985004 128.545441
endloop
endfacet
facet normal 0.329452 0.930118 -0.162301
outer loop
vertex 64.666733 -21.596136 117.268379
vertex 74.143341 -22.985004 128.545441
vertex 75.573181 -23.706800 127.311356
endloop
endfacet
facet normal 0.308171 0.941442 -0.136811
outer loop
vertex 75.573181 -23.706800 127.311356
vertex 66.194321 -22.264313 116.111382
vertex 64.666733 -21.596136 117.268379
endloop
endfacet
facet normal 0.731848 -0.227960 -0.642209
outer loop
vertex 66.194321 -22.264313 116.111382
vertex 75.573181 -23.706800 127.311356
vertex 75.573181 -27.476362 128.649414
endloop
endfacet
facet normal 0.748622 -0.184667 -0.636760
outer loop
vertex 75.573181 -27.476362 128.649414
vertex 66.194321 -26.106022 117.225510
vertex 66.194321 -22.264313 116.111382
endloop
endfacet
facet normal -0.690865 0.216058 0.689945
outer loop
vertex 44.116867 -12.906226 156.105484
vertex 56.561020 -12.044975 168.296539
vertex 56.561020 -8.227761 167.101166
endloop
endfacet
facet normal -0.687965 0.173892 0.704603
outer loop
vertex 56.561020 -8.227761 167.101166
vertex 44.116867 -9.022743 155.147064
vertex 44.116867 -12.906226 156.105484
endloop
endfacet
facet normal 0.186342 0.948265 -0.257043
outer loop
vertex 44.116867 -9.022743 155.147064
vertex 56.561020 -8.227761 167.101166
vertex 57.884949 -8.862139 165.720642
endloop
endfacet
facet normal 0.170154 0.956717 -0.236093
outer loop
vertex 57.884949 -8.862139 165.720642
vertex 45.546707 -9.599279 153.841263
vertex 44.116867 -9.022743 155.147064
endloop
endfacet
facet normal 0.690977 -0.176864 -0.700906
outer loop
vertex 45.546707 -9.599279 153.841263
vertex 51.715836 -11.331397 160.360092
vertex 45.546707 -11.535946 154.329956
endloop
endfacet
facet normal 0.688556 -0.220460 -0.690861
outer loop
vertex 57.884949 -8.862139 165.720642
vertex 57.884949 -10.765323 166.327972
vertex 51.715836 -11.331397 160.360092
endloop
endfacet
facet normal 0.686477 -0.193257 -0.701000
outer loop
vertex 45.546707 -9.599279 153.841263
vertex 57.884949 -8.862139 165.720642
vertex 51.715836 -11.331397 160.360092
endloop
endfacet
facet normal 0.248983 0.923922 -0.290475
outer loop
vertex 65.484604 -17.943918 147.275681
vertex 71.124191 -17.697382 152.893860
vertex 84.363426 -25.370672 139.835297
endloop
endfacet
facet normal 0.270278 0.931381 -0.243885
outer loop
vertex 84.363426 -25.370672 139.835297
vertex 79.253387 -25.273069 134.544983
vertex 65.484604 -17.943918 147.275681
endloop
endfacet
facet normal -0.689941 0.239703 0.683025
outer loop
vertex 74.143341 -24.867384 129.206055
vertex 84.363426 -23.531982 139.060974
vertex 74.143341 -22.985004 128.545441
endloop
endfacet
facet normal -0.687493 0.281846 0.669266
outer loop
vertex 79.253387 -25.273069 134.544983
vertex 84.363426 -25.370672 139.835297
vertex 84.363426 -23.531982 139.060974
endloop
endfacet
facet normal -0.687663 0.259872 0.677928
outer loop
vertex 74.143341 -24.867384 129.206055
vertex 79.253387 -25.273069 134.544983
vertex 84.363426 -23.531982 139.060974
endloop
endfacet
facet normal 0.303829 0.920034 -0.247436
outer loop
vertex 74.143341 -22.985004 128.545441
vertex 84.363426 -23.531982 139.060974
vertex 85.687355 -24.318913 137.760620
endloop
endfacet
facet normal 0.282598 0.933946 -0.218825
outer loop
vertex 85.687355 -24.318913 137.760620
vertex 75.573181 -23.706800 127.311356
vertex 74.143341 -22.985004 128.545441
endloop
endfacet
facet normal 0.679886 -0.286848 -0.674887
outer loop
vertex 75.573181 -23.706800 127.311356
vertex 85.687355 -24.318913 137.760620
vertex 85.687355 -28.000198 139.325287
endloop
endfacet
facet normal 0.698980 -0.239226 -0.673942
outer loop
vertex 85.687355 -28.000198 139.325287
vertex 75.573181 -27.476362 128.649414
vertex 75.573181 -23.706800 127.311356
endloop
endfacet
facet normal -0.636885 0.276922 0.719508
outer loop
vertex 56.561020 -12.044975 168.296539
vertex 69.869339 -10.126978 179.338394
vertex 69.869339 -6.393922 177.901627
endloop
endfacet
facet normal -0.632062 0.231579 0.739506
outer loop
vertex 69.869339 -6.393922 177.901627
vertex 56.561020 -8.227761 167.101166
vertex 56.561020 -12.044975 168.296539
endloop
endfacet
facet normal 0.142555 0.931779 -0.333865
outer loop
vertex 56.561020 -8.227761 167.101166
vertex 69.869339 -6.393922 177.901627
vertex 71.079025 -7.096731 176.456680
endloop
endfacet
facet normal 0.127028 0.941885 -0.310993
outer loop
vertex 71.079025 -7.096731 176.456680
vertex 57.884949 -8.862139 165.720642
vertex 56.561020 -8.227761 167.101166
endloop
endfacet
facet normal 0.635978 -0.234607 -0.735181
outer loop
vertex 57.884949 -8.862139 165.720642
vertex 64.481979 -10.037558 171.802582
vertex 57.884949 -10.765323 166.327972
endloop
endfacet
facet normal 0.633806 -0.281817 -0.720325
outer loop
vertex 71.079025 -7.096731 176.456680
vertex 71.079025 -8.957603 177.184723
vertex 64.481979 -10.037558 171.802582
endloop
endfacet
facet normal 0.630645 -0.254338 -0.733211
outer loop
vertex 57.884949 -8.862139 165.720642
vertex 71.079025 -7.096731 176.456680
vertex 64.481979 -10.037558 171.802582
endloop
endfacet
facet normal 0.210019 0.903385 -0.373882
outer loop
vertex 77.149963 -17.323660 158.068817
vertex 83.175735 -16.618547 163.157364
vertex 95.272453 -25.061260 149.552856
endloop
endfacet
facet normal 0.237356 0.914996 -0.326258
outer loop
vertex 95.272453 -25.061260 149.552856
vertex 89.817940 -25.365717 144.730804
vertex 77.149963 -17.323660 158.068817
endloop
endfacet
facet normal -0.634393 0.300018 0.712415
outer loop
vertex 84.363426 -25.370672 139.835297
vertex 95.272453 -23.273638 148.666473
vertex 84.363426 -23.531982 139.060974
endloop
endfacet
facet normal -0.632608 0.344047 0.693858
outer loop
vertex 89.817940 -25.365717 144.730804
vertex 95.272453 -25.061260 149.552856
vertex 95.272453 -23.273638 148.666473
endloop
endfacet
facet normal -0.632130 0.323755 0.703985
outer loop
vertex 84.363426 -25.370672 139.835297
vertex 89.817940 -25.365717 144.730804
vertex 95.272453 -23.273638 148.666473
endloop
endfacet
facet normal 0.271705 0.902983 -0.332864
outer loop
vertex 84.363426 -23.531982 139.060974
vertex 95.272453 -23.273638 148.666473
vertex 96.482124 -24.136934 147.311951
endloop
endfacet
facet normal 0.250983 0.919944 -0.301183
outer loop
vertex 96.482124 -24.136934 147.311951
vertex 85.687355 -24.318913 137.760620
vertex 84.363426 -23.531982 139.060974
endloop
endfacet
facet normal 0.624256 -0.349117 -0.698872
outer loop
vertex 85.687355 -24.318913 137.760620
vertex 96.482124 -24.136934 147.311951
vertex 96.482124 -27.715290 149.099503
endloop
endfacet
facet normal 0.644819 -0.298983 -0.703433
outer loop
vertex 96.482124 -27.715290 149.099503
vertex 85.687355 -28.000198 139.325287
vertex 85.687355 -24.318913 137.760620
endloop
endfacet
facet normal -0.578857 0.341766 0.740352
outer loop
vertex 69.869339 -10.126978 179.338394
vertex 83.991760 -7.292250 189.071686
vertex 83.991760 -3.661486 187.395630
endloop
endfacet
facet normal -0.571753 0.294690 0.765674
outer loop
vertex 83.991760 -3.661486 187.395630
vertex 69.869339 -6.393922 177.901627
vertex 69.869339 -10.126978 179.338394
endloop
endfacet
facet normal 0.095941 0.909503 -0.404475
outer loop
vertex 69.869339 -6.393922 177.901627
vertex 83.991760 -3.661486 187.395630
vertex 85.078613 -4.442255 185.897797
endloop
endfacet
facet normal 0.081509 0.921416 -0.379932
outer loop
vertex 85.078613 -4.442255 185.897797
vertex 71.079025 -7.096731 176.456680
vertex 69.869339 -6.393922 177.901627
endloop
endfacet
facet normal 0.576592 -0.297683 -0.760873
outer loop
vertex 71.079025 -7.096731 176.456680
vertex 78.078812 -7.764181 182.022278
vertex 71.079025 -8.957603 177.184723
endloop
endfacet
facet normal 0.574932 -0.347012 -0.740969
outer loop
vertex 85.078613 -4.442255 185.897797
vertex 85.078613 -6.253470 186.746033
vertex 78.078812 -7.764181 182.022278
endloop
endfacet
facet normal 0.570662 -0.320333 -0.756129
outer loop
vertex 71.079025 -7.096731 176.456680
vertex 85.078613 -4.442255 185.897797
vertex 78.078812 -7.764181 182.022278
endloop
endfacet
facet normal 0.167892 0.876208 -0.451742
outer loop
vertex 89.561432 -15.830183 167.755432
vertex 95.947128 -14.738721 172.245728
vertex 106.815643 -24.048704 158.227234
endloop
endfacet
facet normal 0.201324 0.891969 -0.404797
outer loop
vertex 106.815643 -24.048704 158.227234
vertex 101.044052 -24.693237 153.936539
vertex 89.561432 -15.830183 167.755432
endloop
endfacet
facet normal -0.574396 0.363640 0.733373
outer loop
vertex 95.272453 -25.061260 149.552856
vertex 106.815643 -22.318085 157.233566
vertex 95.272453 -23.273638 148.666473
endloop
endfacet
facet normal -0.573632 0.407861 0.710349
outer loop
vertex 101.044052 -24.693237 153.936539
vertex 106.815643 -24.048704 158.227234
vertex 106.815643 -22.318085 157.233566
endloop
endfacet
facet normal -0.572513 0.390352 0.721010
outer loop
vertex 95.272453 -25.061260 149.552856
vertex 101.044052 -24.693237 153.936539
vertex 106.815643 -22.318085 157.233566
endloop
endfacet
facet normal 0.235026 0.879073 -0.414721
outer loop
vertex 95.272453 -23.273638 148.666473
vertex 106.815643 -22.318085 157.233566
vertex 107.902496 -23.267023 155.838058
endloop
endfacet
facet normal 0.215625 0.899261 -0.380572
outer loop
vertex 107.902496 -23.267023 155.838058
vertex 96.482124 -24.136934 147.311951
vertex 95.272453 -23.273638 148.666473
endloop
endfacet
facet normal 0.564891 -0.412714 -0.714539
outer loop
vertex 96.482124 -24.136934 147.311951
vertex 107.902496 -23.267023 155.838058
vertex 107.902496 -26.730755 157.838699
endloop
endfacet
facet normal 0.585953 -0.362135 -0.724926
outer loop
vertex 107.902496 -26.730755 157.838699
vertex 96.482124 -27.715290 149.099503
vertex 96.482124 -24.136934 147.311951
endloop
endfacet
facet normal -0.516818 0.411500 0.750711
outer loop
vertex 83.991760 -7.292250 189.071686
vertex 98.877731 -3.773321 197.390900
vertex 98.877731 -0.265717 195.468216
endloop
endfacet
facet normal -0.506854 0.361298 0.782664
outer loop
vertex 98.877731 -0.265717 195.468216
vertex 83.991760 -3.661486 187.395630
vertex 83.991760 -7.292250 189.071686
endloop
endfacet
facet normal 0.051929 0.882696 -0.467067
outer loop
vertex 83.991760 -3.661486 187.395630
vertex 98.877731 -0.265717 195.468216
vertex 99.833015 -1.133980 193.933517
endloop
endfacet
facet normal 0.038376 0.897247 -0.439857
outer loop
vertex 99.833015 -1.133980 193.933517
vertex 85.078613 -4.442255 185.897797
vertex 83.991760 -3.661486 187.395630
endloop
endfacet
facet normal 0.512735 -0.364125 -0.777506
outer loop
vertex 85.078613 -4.442255 185.897797
vertex 92.455811 -4.694728 190.881012
vertex 85.078613 -6.253470 186.746033
endloop
endfacet
facet normal 0.511786 -0.415903 -0.751731
outer loop
vertex 99.833015 -1.133980 193.933517
vertex 99.833015 -2.884473 194.901993
vertex 92.455811 -4.694728 190.881012
endloop
endfacet
facet normal 0.506346 -0.389532 -0.769337
outer loop
vertex 85.078613 -4.442255 185.897797
vertex 99.833015 -1.133980 193.933517
vertex 92.455811 -4.694728 190.881012
endloop
endfacet
facet normal 0.125921 0.844323 -0.520829
outer loop
vertex 102.666489 -13.629322 176.209412
vertex 109.385849 -12.259521 180.054535
vertex 118.938683 -22.501471 165.760757
endloop
endfacet
facet normal 0.164661 0.863475 -0.476757
outer loop
vertex 118.938683 -22.501471 165.760757
vertex 112.877167 -23.396461 162.046280
vertex 102.666489 -13.629322 176.209412
endloop
endfacet
facet normal -0.509955 0.428320 0.745981
outer loop
vertex 106.815643 -24.048704 158.227234
vertex 118.938683 -20.831642 164.667419
vertex 106.815643 -22.318085 157.233566
endloop
endfacet
facet normal -0.510418 0.471056 0.719430
outer loop
vertex 112.877167 -23.396461 162.046280
vertex 118.938683 -22.501471 165.760757
vertex 118.938683 -20.831642 164.667419
endloop
endfacet
facet normal -0.508837 0.456953 0.729574
outer loop
vertex 106.815643 -24.048704 158.227234
vertex 112.877167 -23.396461 162.046280
vertex 118.938683 -20.831642 164.667419
endloop
endfacet
facet normal 0.196053 0.849617 -0.489606
outer loop
vertex 106.815643 -22.318085 157.233566
vertex 118.938683 -20.831642 164.667419
vertex 119.893967 -21.872028 163.244553
endloop
endfacet
facet normal 0.178952 0.872785 -0.454118
outer loop
vertex 119.893967 -21.872028 163.244553
vertex 107.902496 -23.267023 155.838058
vertex 106.815643 -22.318085 157.233566
endloop
endfacet
facet normal 0.501682 -0.475410 -0.722704
outer loop
vertex 107.902496 -23.267023 155.838058
vertex 119.893967 -21.872028 163.244553
vertex 119.893967 -25.213814 165.442841
endloop
endfacet
facet normal 0.522241 -0.426534 -0.738467
outer loop
vertex 119.893967 -25.213814 165.442841
vertex 107.902496 -26.730755 157.838699
vertex 107.902496 -23.267023 155.838058
endloop
endfacet
facet normal -0.450214 0.481789 0.751789
outer loop
vertex 98.877731 -3.773321 197.390900
vertex 114.475258 0.216503 204.174713
vertex 114.475258 3.584276 202.016449
endloop
endfacet
facet normal -0.437689 0.432184 0.788445
outer loop
vertex 114.475258 3.584276 202.016449
vertex 98.877731 -0.265717 195.468216
vertex 98.877731 -3.773321 197.390900
endloop
endfacet
facet normal 0.014125 0.846896 -0.531571
outer loop
vertex 98.877731 -0.265717 195.468216
vertex 114.475258 3.584276 202.016449
vertex 115.290176 2.600523 200.470795
endloop
endfacet
facet normal -0.001604 0.869933 -0.493168
outer loop
vertex 115.290176 2.600523 200.470795
vertex 99.833015 -1.133980 193.933517
vertex 98.877731 -0.265717 195.468216
endloop
endfacet
facet normal 0.444575 -0.433634 -0.783782
outer loop
vertex 99.833015 -1.133980 193.933517
vertex 107.561600 -1.096094 198.296341
vertex 99.833015 -2.884473 194.901993
endloop
endfacet
facet normal 0.444254 -0.486169 -0.752514
outer loop
vertex 115.290176 2.600523 200.470795
vertex 115.290176 0.920747 201.556030
vertex 107.561600 -1.096094 198.296341
endloop
endfacet
facet normal 0.437823 -0.461497 -0.771578
outer loop
vertex 99.833015 -1.133980 193.933517
vertex 115.290176 2.600523 200.470795
vertex 107.561600 -1.096094 198.296341
endloop
endfacet
facet normal 0.087725 0.810897 -0.578576
outer loop
vertex 116.412605 -10.955772 183.353302
vertex 123.439362 -9.444623 186.536652
vertex 131.588547 -20.628752 172.097229
endloop
endfacet
facet normal 0.129511 0.831614 -0.540042
outer loop
vertex 131.588547 -20.628752 172.097229
vertex 125.263611 -21.666403 168.982529
vertex 116.412605 -10.955772 183.353302
endloop
endfacet
facet normal -0.441151 0.491602 0.750808
outer loop
vertex 118.938683 -22.501471 165.760757
vertex 131.588547 -19.020695 170.914352
vertex 118.938683 -20.831642 164.667419
endloop
endfacet
facet normal -0.442828 0.531282 0.722249
outer loop
vertex 125.263611 -21.666403 168.982529
vertex 131.588547 -20.628752 172.097229
vertex 131.588547 -19.020695 170.914352
endloop
endfacet
facet normal -0.441076 0.520744 0.730943
outer loop
vertex 118.938683 -22.501471 165.760757
vertex 125.263611 -21.666403 168.982529
vertex 131.588547 -19.020695 170.914352
endloop
endfacet
facet normal 0.157099 0.816922 -0.554941
outer loop
vertex 118.938683 -20.831642 164.667419
vertex 131.588547 -19.020695 170.914352
vertex 132.403473 -20.153645 169.477249
endloop
endfacet
facet normal 0.143231 0.842262 -0.519692
outer loop
vertex 132.403473 -20.153645 169.477249
vertex 119.893967 -21.872028 163.244553
vertex 118.938683 -20.831642 164.667419
endloop
endfacet
facet normal 0.434510 -0.534906 -0.724621
outer loop
vertex 119.893967 -21.872028 163.244553
vertex 132.403473 -20.153645 169.477249
vertex 132.403473 -23.371796 171.852844
endloop
endfacet
facet normal 0.453631 -0.489772 -0.744542
outer loop
vertex 132.403473 -23.371796 171.852844
vertex 119.893967 -25.213814 165.442841
vertex 119.893967 -21.872028 163.244553
endloop
endfacet
facet normal -0.378484 0.547415 0.746383
outer loop
vertex 114.475258 0.216503 204.174713
vertex 130.729904 4.315358 209.411118
vertex 130.729904 7.540840 207.045471
endloop
endfacet
facet normal -0.364821 0.502378 0.783915
outer loop
vertex 130.729904 7.540840 207.045471
vertex 114.475258 3.584276 202.016449
vertex 114.475258 0.216503 204.174713
endloop
endfacet
facet normal -0.016644 0.811253 -0.584458
outer loop
vertex 114.475258 3.584276 202.016449
vertex 130.729904 7.540840 207.045471
vertex 131.395844 6.444242 205.504379
endloop
endfacet
facet normal -0.028535 0.836397 -0.547381
outer loop
vertex 131.395844 6.444242 205.504379
vertex 115.290176 2.600523 200.470795
vertex 114.475258 3.584276 202.016449
endloop
endfacet
facet normal 0.371808 -0.503756 -0.779736
outer loop
vertex 115.290176 2.600523 200.470795
vertex 123.343010 2.802005 204.180511
vertex 115.290176 0.920747 201.556030
endloop
endfacet
facet normal 0.372165 -0.551484 -0.746564
outer loop
vertex 131.395844 6.444242 205.504379
vertex 131.395844 4.836248 206.692200
vertex 123.343010 2.802005 204.180511
endloop
endfacet
facet normal 0.365624 -0.530368 -0.764872
outer loop
vertex 115.290176 2.600523 200.470795
vertex 131.395844 6.444242 205.504379
vertex 123.343010 2.802005 204.180511
endloop
endfacet
facet normal 0.054570 0.778326 -0.625484
outer loop
vertex 130.747253 -8.084173 189.163712
vertex 138.055145 -6.568412 191.687424
vertex 144.714447 -18.659786 177.222382
endloop
endfacet
facet normal 0.097542 0.798927 -0.593466
outer loop
vertex 144.714447 -18.659786 177.222382
vertex 138.151489 -19.724569 174.710297
vertex 130.747253 -8.084173 189.163712
endloop
endfacet
facet normal -0.368176 0.550925 0.748951
outer loop
vertex 131.588547 -20.628752 172.097229
vertex 144.714447 -17.111141 175.962219
vertex 131.588547 -19.020695 170.914352
endloop
endfacet
facet normal -0.370828 0.586161 0.720348
outer loop
vertex 138.151489 -19.724569 174.710297
vertex 144.714447 -18.659786 177.222382
vertex 144.714447 -17.111141 175.962219
endloop
endfacet
facet normal -0.369212 0.578934 0.726993
outer loop
vertex 131.588547 -20.628752 172.097229
vertex 138.151489 -19.724569 174.710297
vertex 144.714447 -17.111141 175.962219
endloop
endfacet
facet normal 0.120216 0.783900 -0.609137
outer loop
vertex 131.588547 -19.020695 170.914352
vertex 144.714447 -17.111141 175.962219
vertex 145.380386 -18.332306 174.522125
endloop
endfacet
facet normal 0.110252 0.809965 -0.576022
outer loop
vertex 145.380386 -18.332306 174.522125
vertex 132.403473 -20.153645 169.477249
vertex 131.588547 -19.020695 170.914352
endloop
endfacet
facet normal 0.363310 -0.588928 -0.721921
outer loop
vertex 132.403473 -20.153645 169.477249
vertex 145.380386 -18.332306 174.522125
vertex 145.380386 -21.431786 177.050613
endloop
endfacet
facet normal 0.380174 -0.549306 -0.744131
outer loop
vertex 145.380386 -21.431786 177.050613
vertex 132.403473 -23.371796 171.852844
vertex 132.403473 -20.153645 169.477249
endloop
endfacet
facet normal -0.302567 0.609039 0.733161
outer loop
vertex 130.729904 4.315358 209.411118
vertex 147.583740 8.188611 213.148987
vertex 147.583740 11.266830 210.591904
endloop
endfacet
facet normal -0.287723 0.566403 0.772272
outer loop
vertex 147.583740 11.266830 210.591904
vertex 130.729904 7.540840 207.045471
vertex 130.729904 4.315358 209.411118
endloop
endfacet
facet normal -0.034679 0.766856 -0.640882
outer loop
vertex 130.729904 7.540840 207.045471
vertex 147.583740 11.266830 210.591904
vertex 148.092545 10.039143 209.095367
endloop
endfacet
facet normal -0.045830 0.804460 -0.592236
outer loop
vertex 148.092545 10.039143 209.095367
vertex 131.395844 6.444242 205.504379
vertex 130.729904 7.540840 207.045471
endloop
endfacet
facet normal 0.294924 -0.567738 -0.768566
outer loop
vertex 131.395844 6.444242 205.504379
vertex 139.744202 6.616484 208.580658
vertex 131.395844 4.836248 206.692200
endloop
endfacet
facet normal 0.295810 -0.611117 -0.734188
outer loop
vertex 148.092545 10.039143 209.095367
vertex 148.092545 8.501977 210.374863
vertex 139.744202 6.616484 208.580658
endloop
endfacet
facet normal 0.289269 -0.592504 -0.751840
outer loop
vertex 131.395844 6.444242 205.504379
vertex 148.092545 10.039143 209.095367
vertex 139.744202 6.616484 208.580658
endloop
endfacet
facet normal 0.030677 0.750758 -0.659865
outer loop
vertex 145.617905 -5.306550 193.671280
vertex 153.180664 -3.941107 195.576401
vertex 158.268784 -16.823326 181.156250
endloop
endfacet
facet normal 0.069629 0.768140 -0.636485
outer loop
vertex 158.268784 -16.823326 181.156250
vertex 151.491608 -17.802107 179.233612
vertex 145.617905 -5.306550 193.671280
endloop
endfacet
facet normal -0.291319 0.603787 0.742007
outer loop
vertex 144.714447 -18.659786 177.222382
vertex 158.268784 -15.328012 179.832825
vertex 144.714447 -17.111141 175.962219
endloop
endfacet
facet normal -0.294491 0.633365 0.715628
outer loop
vertex 151.491608 -17.802107 179.233612
vertex 158.268784 -16.823326 181.156250
vertex 158.268784 -15.328012 179.832825
endloop
endfacet
facet normal -0.293268 0.628959 0.720003
outer loop
vertex 144.714447 -18.659786 177.222382
vertex 151.491608 -17.802107 179.233612
vertex 158.268784 -15.328012 179.832825
endloop
endfacet
facet normal 0.086922 0.753600 -0.651561
outer loop
vertex 144.714447 -17.111141 175.962219
vertex 158.268784 -15.328012 179.832825
vertex 158.777588 -16.627184 178.398071
endloop
endfacet
facet normal 0.081047 0.778366 -0.622558
outer loop
vertex 158.777588 -16.627184 178.398071
vertex 145.380386 -18.332306 174.522125
vertex 144.714447 -17.111141 175.962219
endloop
endfacet
facet normal 0.288155 -0.635232 -0.716552
outer loop
vertex 145.380386 -18.332306 174.522125
vertex 158.777588 -16.627184 178.398071
vertex 158.777588 -19.620346 181.051544
endloop
endfacet
facet normal 0.302073 -0.602592 -0.738671
outer loop
vertex 158.777588 -19.620346 181.051544
vertex 145.380386 -21.431786 177.050613
vertex 145.380386 -18.332306 174.522125
endloop
endfacet
facet normal -0.220818 0.658643 0.719325
outer loop
vertex 147.583740 8.188611 213.148987
vertex 164.974304 11.380596 215.564865
vertex 164.974304 14.332497 212.861984
endloop
endfacet
facet normal -0.208378 0.624962 0.752330
outer loop
vertex 164.974304 14.332497 212.861984
vertex 147.583740 11.266830 210.591904
vertex 147.583740 8.188611 213.148987
endloop
endfacet
facet normal -0.041223 0.735011 -0.676801
outer loop
vertex 147.583740 11.266830 210.591904
vertex 164.974304 14.332497 212.861984
vertex 165.318756 13.007914 211.402496
endloop
endfacet
facet normal -0.045687 0.764654 -0.642819
outer loop
vertex 165.318756 13.007914 211.402496
vertex 148.092545 10.039143 209.095367
vertex 147.583740 11.266830 210.591904
endloop
endfacet
facet normal 0.214284 -0.624889 -0.750731
outer loop
vertex 148.092545 10.039143 209.095367
vertex 156.705658 10.008334 211.579498
vertex 148.092545 8.501977 210.374863
endloop
endfacet
facet normal 0.215041 -0.659948 -0.719879
outer loop
vertex 165.318756 13.007914 211.402496
vertex 165.318756 11.533661 212.754013
vertex 156.705658 10.008334 211.579498
endloop
endfacet
facet normal 0.209594 -0.645187 -0.734713
outer loop
vertex 148.092545 10.039143 209.095367
vertex 165.318756 13.007914 211.402496
vertex 156.705658 10.008334 211.579498
endloop
endfacet
facet normal 0.011930 0.727873 -0.685608
outer loop
vertex 160.972015 -2.897924 196.940002
vertex 168.763367 -1.792863 198.248749
vertex 172.207977 -15.328884 183.938202
endloop
endfacet
facet normal 0.045872 0.741540 -0.669339
outer loop
vertex 172.207977 -15.328884 183.938202
vertex 165.238373 -16.120054 182.584030
vertex 160.972015 -2.897924 196.940002
endloop
endfacet
facet normal -0.211030 0.647830 0.731971
outer loop
vertex 158.268784 -16.823326 181.156250
vertex 172.207977 -13.876823 182.567200
vertex 158.268784 -15.328012 179.832825
endloop
endfacet
facet normal -0.214125 0.670598 0.710245
outer loop
vertex 165.238373 -16.120054 182.584030
vertex 172.207977 -15.328884 183.938202
vertex 172.207977 -13.876823 182.567200
endloop
endfacet
facet normal -0.213409 0.668408 0.712521
outer loop
vertex 158.268784 -16.823326 181.156250
vertex 165.238373 -16.120054 182.584030
vertex 172.207977 -13.876823 182.567200
endloop
endfacet
facet normal 0.057928 0.728912 -0.682152
outer loop
vertex 158.268784 -15.328012 179.832825
vertex 172.207977 -13.876823 182.567200
vertex 172.552429 -15.238028 181.141937
endloop
endfacet
facet normal 0.055697 0.749860 -0.659248
outer loop
vertex 172.552429 -15.238028 181.141937
vertex 158.777588 -16.627184 178.398071
vertex 158.268784 -15.328012 179.832825
endloop
endfacet
facet normal 0.209298 -0.671662 -0.710679
outer loop
vertex 158.777588 -16.627184 178.398071
vertex 172.552429 -15.238028 181.141937
vertex 172.552429 -18.145124 183.889435
endloop
endfacet
facet normal 0.219704 -0.647162 -0.730008
outer loop
vertex 172.552429 -18.145124 183.889435
vertex 158.777588 -19.620346 181.051544
vertex 158.777588 -16.627184 178.398071
endloop
endfacet
facet normal -0.134665 0.692333 0.708901
outer loop
vertex 164.974304 11.380596 215.564865
vertex 182.834122 13.510550 216.877365
vertex 182.834122 16.372219 214.082581
endloop
endfacet
facet normal -0.126505 0.669888 0.731606
outer loop
vertex 182.834122 16.372219 214.082581
vertex 164.974304 14.332497 212.861984
vertex 164.974304 11.380596 215.564865
endloop
endfacet
facet normal -0.033826 0.714418 -0.698901
outer loop
vertex 164.974304 14.332497 212.861984
vertex 182.834122 16.372219 214.082581
vertex 183.008362 14.982906 212.653992
endloop
endfacet
facet normal -0.034342 0.736018 -0.676090
outer loop
vertex 183.008362 14.982906 212.653992
vertex 165.318756 13.007914 211.402496
vertex 164.974304 14.332497 212.861984
endloop
endfacet
facet normal 0.130396 -0.669988 -0.730831
outer loop
vertex 165.318756 13.007914 211.402496
vertex 174.163559 12.562361 213.389069
vertex 165.318756 11.533661 212.754013
endloop
endfacet
facet normal 0.130683 -0.692860 -0.709131
outer loop
vertex 183.008362 14.982906 212.653992
vertex 183.008362 13.552377 214.051697
vertex 174.163559 12.562361 213.389069
endloop
endfacet
facet normal 0.127143 -0.683009 -0.719259
outer loop
vertex 165.318756 13.007914 211.402496
vertex 183.008362 14.982906 212.653992
vertex 174.163559 12.562361 213.389069
endloop
endfacet
facet normal 0.002693 0.712601 -0.701564
outer loop
vertex 176.757080 -1.094367 199.038055
vertex 184.750793 -0.371964 199.802505
vertex 186.493225 -14.352709 185.608521
endloop
endfacet
facet normal 0.025656 0.720631 -0.692844
outer loop
vertex 186.493225 -14.352709 185.608521
vertex 179.350601 -14.872553 184.803314
vertex 176.757080 -1.094367 199.038055
endloop
endfacet
facet normal -0.127921 0.680880 0.721137
outer loop
vertex 172.207977 -15.328884 183.938202
vertex 186.493225 -12.927738 184.205139
vertex 172.207977 -13.876823 182.567200
endloop
endfacet
facet normal -0.130269 0.695710 0.706412
outer loop
vertex 179.350601 -14.872553 184.803314
vertex 186.493225 -14.352709 185.608521
vertex 186.493225 -12.927738 184.205139
endloop
endfacet
facet normal -0.130046 0.695093 0.707060
outer loop
vertex 172.207977 -15.328884 183.938202
vertex 179.350601 -14.872553 184.803314
vertex 186.493225 -12.927738 184.205139
endloop
endfacet
facet normal 0.032990 0.712707 -0.700686
outer loop
vertex 172.207977 -13.876823 182.567200
vertex 186.493225 -12.927738 184.205139
vertex 186.667465 -14.328836 182.788208
endloop
endfacet
facet normal 0.033206 0.726769 -0.686079
outer loop
vertex 186.667465 -14.328836 182.788208
vertex 172.552429 -15.238028 181.141937
vertex 172.207977 -13.876823 182.567200
endloop
endfacet
facet normal 0.127249 -0.696108 -0.706570
outer loop
vertex 172.552429 -15.238028 181.141937
vertex 186.667465 -14.328836 182.788208
vertex 186.667465 -17.178280 185.595459
endloop
endfacet
facet normal 0.133680 -0.680710 -0.720252
outer loop
vertex 186.667465 -17.178280 185.595459
vertex 172.552429 -18.145124 183.889435
vertex 172.552429 -15.238028 181.141937
endloop
endfacet
facet normal -0.045240 0.706382 0.706384
outer loop
vertex 182.834122 13.510550 216.877365
vertex 201.090332 14.272315 217.284821
vertex 201.090332 17.100742 214.456406
endloop
endfacet
facet normal -0.042494 0.698065 0.714772
outer loop
vertex 201.090332 17.100742 214.456406
vertex 182.834122 16.372219 214.082581
vertex 182.834122 13.510550 216.877365
endloop
endfacet
facet normal -0.013737 0.707040 -0.707040
outer loop
vertex 182.834122 16.372219 214.082581
vertex 201.090332 17.100742 214.456406
vertex 201.090332 15.686527 213.042191
endloop
endfacet
facet normal -0.012879 0.716047 -0.697933
outer loop
vertex 201.090332 15.686527 213.042191
vertex 183.008362 14.982906 212.653992
vertex 182.834122 16.372219 214.082581
endloop
endfacet
facet normal 0.043925 -0.698179 -0.714575
outer loop
vertex 183.008362 14.982906 212.653992
vertex 192.049347 13.951209 214.217758
vertex 183.008362 13.552377 214.051697
endloop
endfacet
facet normal 0.043738 -0.706430 -0.706430
outer loop
vertex 201.090332 15.686527 213.042191
vertex 201.090332 14.272315 214.456406
vertex 192.049347 13.951209 214.217758
endloop
endfacet
facet normal 0.042595 -0.702904 -0.710008
outer loop
vertex 183.008362 14.982906 212.653992
vertex 201.090332 15.686527 213.042191
vertex 192.049347 13.951209 214.217758
endloop
endfacet
facet normal 0.000105 0.707106 -0.707107
outer loop
vertex 192.920578 -0.121966 200.060898
vertex 201.090363 0.130175 200.314270
vertex 201.090393 -14.011965 186.172134
endloop
endfacet
facet normal 0.005327 0.708630 -0.705561
outer loop
vertex 201.090393 -14.011965 186.172134
vertex 193.791809 -14.209673 185.918472
vertex 192.920578 -0.121966 200.060898
endloop
endfacet
facet normal -0.042803 0.701046 0.711830
outer loop
vertex 186.493225 -14.352709 185.608521
vertex 201.090393 -12.597752 184.757919
vertex 186.493225 -12.927738 184.205139
endloop
endfacet
facet normal -0.043687 0.706432 0.706431
outer loop
vertex 193.791809 -14.209673 185.918472
vertex 201.090393 -14.011965 186.172134
vertex 201.090393 -12.597752 184.757919
endloop
endfacet
facet normal -0.043839 0.706816 0.706037
outer loop
vertex 186.493225 -14.352709 185.608521
vertex 193.791809 -14.209673 185.918472
vertex 201.090393 -12.597752 184.757919
endloop
endfacet
facet normal 0.010791 0.707062 -0.707069
outer loop
vertex 186.493225 -12.927738 184.205139
vertex 201.090393 -12.597752 184.757919
vertex 201.090393 -14.011967 183.343719
endloop
endfacet
facet normal 0.011415 0.711724 -0.702366
outer loop
vertex 201.090393 -14.011967 183.343719
vertex 186.667465 -14.328836 182.788208
vertex 186.493225 -12.927738 184.205139
endloop
endfacet
facet normal 0.042731 -0.706460 -0.706462
outer loop
vertex 186.667465 -14.328836 182.788208
vertex 201.090393 -14.011967 183.343719
vertex 201.090393 -16.840393 186.172134
endloop
endfacet
facet normal 0.044879 -0.701105 -0.711644
outer loop
vertex 201.090393 -16.840393 186.172134
vertex 186.667465 -17.178280 185.595459
vertex 186.667465 -14.328836 182.788208
endloop
endfacet
facet normal 0.004310 0.999991 -0.000186
outer loop
vertex 1.090363 0.000000 0.000000
vertex 1.423538 -0.000000 7.728867
vertex 21.386703 -0.086200 6.871643
endloop
endfacet
facet normal -0.000000 0.999921 0.012543
outer loop
vertex 21.386703 -0.086200 6.871643
vertex 21.090363 0.000000 0.000000
vertex 1.090363 0.000000 0.000000
endloop
endfacet
facet normal 0.000000 1.000000 0.000000
outer loop
vertex -18.909637 0.000000 0.000000
vertex -18.539642 -0.000000 8.586334
vertex 1.423538 -0.000000 7.728867
endloop
endfacet
facet normal 0.000000 1.000000 0.000000
outer loop
vertex 1.423538 -0.000000 7.728867
vertex 1.090363 0.000000 0.000000
vertex -18.909637 0.000000 0.000000
endloop
endfacet
facet normal 0.000000 1.000000 0.000000
outer loop
vertex -18.539642 -0.000000 8.586334
vertex -18.169647 -0.000000 17.172668
vertex 1.756699 -0.000000 15.457733
endloop
endfacet
facet normal 0.000000 1.000000 0.000000
outer loop
vertex 1.756699 -0.000000 15.457733
vertex 1.423538 -0.000000 7.728867
vertex -18.539642 -0.000000 8.586334
endloop
endfacet
facet normal 0.058922 0.998234 -0.007570
outer loop
vertex 1.756699 -0.000000 15.457733
vertex 2.738693 -0.000000 23.100906
vertex 22.558823 -1.189149 20.564896
endloop
endfacet
facet normal 0.032359 0.994486 0.099753
outer loop
vertex 22.558823 -1.189149 20.564896
vertex 21.683044 -0.476536 13.744583
vertex 1.756699 -0.000000 15.457733
endloop
endfacet
facet normal 0.000000 1.000000 0.000000
outer loop
vertex -18.169647 -0.000000 17.172668
vertex -17.081421 -0.000000 25.643799
vertex 2.738693 -0.000000 23.100906
endloop
endfacet
facet normal 0.000000 1.000000 0.000000
outer loop
vertex 2.738693 -0.000000 23.100906
vertex 1.756699 -0.000000 15.457733
vertex -18.169647 -0.000000 17.172668
endloop
endfacet
facet normal 0.008917 0.999960 -0.001145
outer loop
vertex -17.081421 -0.000000 25.643799
vertex -15.993195 -0.000000 34.114960
vertex 3.720688 -0.179647 30.744644
endloop
endfacet
facet normal 0.002966 0.999728 0.023115
outer loop
vertex 3.720688 -0.179647 30.744644
vertex 2.738693 -0.000000 23.100906
vertex -17.081421 -0.000000 25.643799
endloop
endfacet
facet normal 0.142236 0.988991 0.040818
outer loop
vertex 3.720688 -0.179647 30.744644
vertex 5.325256 -0.721068 38.271561
vertex 24.870071 -3.361748 34.146652
endloop
endfacet
facet normal 0.123182 0.980743 0.151554
outer loop
vertex 24.870071 -3.361748 34.146652
vertex 23.434586 -2.137644 27.391953
vertex 3.720688 -0.179647 30.744644
endloop
endfacet
facet normal 0.035268 0.999350 -0.007521
outer loop
vertex -15.993195 -0.000000 34.114960
vertex -14.219559 0.000000 42.432343
vertex 5.325256 -0.721068 38.271561
endloop
endfacet
facet normal 0.020606 0.997516 0.067360
outer loop
vertex 5.325256 -0.721068 38.271561
vertex 3.720688 -0.179647 30.744644
vertex -15.993195 -0.000000 34.114960
endloop
endfacet
facet normal 0.073903 0.997219 -0.009604
outer loop
vertex -14.219559 0.000000 42.432343
vertex -12.445923 -0.051336 50.749924
vertex 6.929825 -1.534899 45.803909
endloop
endfacet
facet normal 0.056942 0.993824 0.095247
outer loop
vertex 6.929825 -1.534899 45.803909
vertex 5.325256 -0.721068 38.271561
vertex -14.219559 0.000000 42.432343
endloop
endfacet
facet normal 0.211546 0.973937 0.081827
outer loop
vertex 6.929825 -1.534899 45.803909
vertex 9.130692 -2.633873 53.194458
vertex 28.280777 -6.323242 47.598206
endloop
endfacet
facet normal 0.202062 0.964564 0.169670
outer loop
vertex 28.280777 -6.323242 47.598206
vertex 26.305573 -4.734323 40.917603
vertex 6.929825 -1.534899 45.803909
endloop
endfacet
facet normal 0.117499 0.993001 0.011961
outer loop
vertex -12.445923 -0.051336 50.749924
vertex -10.019394 -0.436378 58.879089
vertex 9.130692 -2.633873 53.194458
endloop
endfacet
facet normal 0.105129 0.987721 0.115567
outer loop
vertex 9.130692 -2.633873 53.194458
vertex 6.929825 -1.534899 45.803909
vertex -12.445923 -0.051336 50.749924
endloop
endfacet
facet normal 0.156610 0.987055 0.034572
outer loop
vertex -10.019394 -0.436378 58.879089
vertex -7.592850 -1.106265 67.012634
vertex 11.331558 -3.884296 60.600342
endloop
endfacet
facet normal 0.148687 0.981390 0.121513
outer loop
vertex 11.331558 -3.884296 60.600342
vertex 9.130692 -2.633873 53.194458
vertex -10.019394 -0.436378 58.879089
endloop
endfacet
facet normal 0.262739 0.960502 0.091677
outer loop
vertex 11.331558 -3.884296 60.600342
vertex 14.102463 -5.333632 67.843887
vertex 32.750076 -9.772169 60.903885
endloop
endfacet
facet normal 0.259454 0.952154 0.161515
outer loop
vertex 32.750076 -9.772169 60.903885
vertex 30.255966 -7.973280 54.305679
vertex 11.331558 -3.884296 60.600342
endloop
endfacet
facet normal 0.189463 0.980919 0.043604
outer loop
vertex -7.592850 -1.106265 67.012634
vertex -4.545151 -2.046912 74.930908
vertex 14.102463 -5.333632 67.843887
endloop
endfacet
facet normal 0.185187 0.974822 0.124208
outer loop
vertex 14.102463 -5.333632 67.843887
vertex 11.331558 -3.884296 60.600342
vertex -7.592850 -1.106265 67.012634
endloop
endfacet
facet normal 0.216840 0.975000 0.048528
outer loop
vertex -4.545151 -2.046912 74.930908
vertex -1.497452 -3.119505 82.862816
vertex 16.873367 -6.819461 75.113205
endloop
endfacet
facet normal 0.215073 0.969659 0.116214
outer loop
vertex 16.873367 -6.819461 75.113205
vertex 14.102463 -5.333632 67.843887
vertex -4.545151 -2.046912 74.930908
endloop
endfacet
facet normal 0.297062 0.951876 0.075411
outer loop
vertex 16.873367 -6.819461 75.113205
vertex 20.188034 -8.415287 82.199249
vertex 38.235352 -13.400990 74.038773
endloop
endfacet
facet normal 0.297922 0.945355 0.132462
outer loop
vertex 38.235352 -13.400990 74.038773
vertex 35.244186 -11.547377 67.537354
vertex 16.873367 -6.819461 75.113205
endloop
endfacet
facet normal 0.238252 0.970269 0.042601
outer loop
vertex -1.497452 -3.119505 82.862816
vertex 2.140717 -4.350733 90.557968
vertex 20.188034 -8.415287 82.199249
endloop
endfacet
facet normal 0.238959 0.965270 0.105607
outer loop
vertex 20.188034 -8.415287 82.199249
vertex 16.873367 -6.819461 75.113205
vertex -1.497452 -3.119505 82.862816
endloop
endfacet
facet normal 0.254880 0.966401 0.033233
outer loop
vertex 2.140717 -4.350733 90.557968
vertex 5.778900 -5.575659 98.275307
vertex 23.502701 -9.942101 89.317238
endloop
endfacet
facet normal 0.256973 0.962513 0.086794
outer loop
vertex 23.502701 -9.942101 89.317238
vertex 20.188034 -8.415287 82.199249
vertex 2.140717 -4.350733 90.557968
endloop
endfacet
facet normal 0.316085 0.947983 0.037659
outer loop
vertex 23.502701 -9.942101 89.317238
vertex 27.334900 -11.494329 96.226219
vertex 44.691742 -16.913395 86.957489
endloop
endfacet
facet normal 0.320046 0.943428 0.086685
outer loop
vertex 44.691742 -16.913395 86.957489
vertex 41.226517 -15.151760 80.578705
vertex 23.502701 -9.942101 89.317238
endloop
endfacet
facet normal 0.266089 0.963828 0.015245
outer loop
vertex 5.778900 -5.575659 98.275307
vertex 9.978043 -6.852896 105.732857
vertex 27.334900 -11.494329 96.226219
endloop
endfacet
facet normal 0.270027 0.960585 0.066037
outer loop
vertex 27.334900 -11.494329 96.226219
vertex 23.502701 -9.942101 89.317238
vertex 5.778900 -5.575659 98.275307
endloop
endfacet
facet normal 0.273198 0.961943 -0.005349
outer loop
vertex 9.978043 -6.852896 105.732857
vertex 14.177200 -8.003878 113.214554
vertex 31.167084 -12.884993 103.165565
endloop
endfacet
facet normal 0.277947 0.959810 0.038855
outer loop
vertex 31.167084 -12.884993 103.165565
vertex 27.334900 -11.494329 96.226219
vertex 9.978043 -6.852896 105.732857
endloop
endfacet
facet normal 0.321196 0.946850 -0.017530
outer loop
vertex 31.167084 -12.884993 103.165565
vertex 35.490509 -14.227630 109.862259
vertex 52.072067 -20.042770 99.586014
endloop
endfacet
facet normal 0.328018 0.944272 0.027466
outer loop
vertex 52.072067 -20.042770 99.586014
vertex 48.156967 -18.501972 93.370750
vertex 31.167084 -12.884993 103.165565
endloop
endfacet
facet normal 0.275391 0.960771 -0.032845
outer loop
vertex 14.177200 -8.003878 113.214554
vertex 18.908951 -9.114305 120.406456
vertex 35.490509 -14.227630 109.862259
endloop
endfacet
facet normal 0.281801 0.959416 0.010423
outer loop
vertex 35.490509 -14.227630 109.862259
vertex 31.167084 -12.884993 103.165565
vertex 14.177200 -8.003878 113.214554
endloop
endfacet
facet normal 0.274119 0.959697 -0.061980
outer loop
vertex 18.908951 -9.114305 120.406456
vertex 23.640701 -10.000325 127.614410
vertex 39.813950 -15.332657 116.578247
endloop
endfacet
facet normal 0.281142 0.959387 -0.023131
outer loop
vertex 39.813950 -15.332657 116.578247
vertex 35.490509 -14.227630 109.862259
vertex 18.908951 -9.114305 120.406456
endloop
endfacet
facet normal 0.313612 0.945618 -0.086340
outer loop
vertex 39.813950 -15.332657 116.578247
vertex 44.602356 -16.333559 123.009003
vertex 60.326950 -22.570320 111.818817
endloop
endfacet
facet normal 0.323688 0.945218 -0.042309
outer loop
vertex 60.326950 -22.570320 111.818817
vertex 55.987167 -21.352522 105.823624
vertex 39.813950 -15.332657 116.578247
endloop
endfacet
facet normal 0.268355 0.958462 -0.096621
outer loop
vertex 23.640701 -10.000325 127.614410
vertex 28.877762 -10.773241 134.492676
vertex 44.602356 -16.333559 123.009003
endloop
endfacet
facet normal 0.277224 0.959104 -0.057145
outer loop
vertex 44.602356 -16.333559 123.009003
vertex 39.813950 -15.332657 116.578247
vertex 23.640701 -10.000325 127.614410
endloop
endfacet
facet normal 0.259805 0.956629 -0.131769
outer loop
vertex 28.877762 -10.773241 134.492676
vertex 34.114822 -11.248498 141.368088
vertex 49.390762 -17.040386 129.438751
endloop
endfacet
facet normal 0.269328 0.958329 -0.095226
outer loop
vertex 49.390762 -17.040386 129.438751
vertex 44.602356 -16.333559 123.009003
vertex 28.877762 -10.773241 134.492676
endloop
endfacet
facet normal 0.294621 0.941293 -0.164818
outer loop
vertex 49.390762 -17.040386 129.438751
vertex 54.617905 -17.609352 135.533096
vertex 69.405029 -24.340698 123.522400
endloop
endfacet
facet normal 0.308777 0.943568 -0.119736
outer loop
vertex 69.405029 -24.340698 123.522400
vertex 64.666733 -23.514137 117.816833
vertex 49.390762 -17.040386 129.438751
endloop
endfacet
facet normal 0.247175 0.953734 -0.171159
outer loop
vertex 34.114822 -11.248498 141.368088
vertex 39.830765 -11.564062 147.864227
vertex 54.617905 -17.609352 135.533096
endloop
endfacet
facet normal 0.259002 0.956699 -0.132831
outer loop
vertex 54.617905 -17.609352 135.533096
vertex 49.390762 -17.040386 129.438751
vertex 34.114822 -11.248498 141.368088
endloop
endfacet
facet normal 0.232593 0.949687 -0.209751
outer loop
vertex 39.830765 -11.564062 147.864227
vertex 45.546707 -11.535946 154.329956
vertex 59.845016 -17.849573 141.599243
endloop
endfacet
facet normal 0.245224 0.953809 -0.173535
outer loop
vertex 59.845016 -17.849573 141.599243
vertex 54.617905 -17.609352 135.533096
vertex 39.830765 -11.564062 147.864227
endloop
endfacet
facet normal 0.265867 0.931388 -0.248660
outer loop
vertex 59.845016 -17.849573 141.599243
vertex 65.484604 -17.943918 147.275681
vertex 79.253387 -25.273069 134.544983
endloop
endfacet
facet normal 0.285103 0.937039 -0.201679
outer loop
vertex 79.253387 -25.273069 134.544983
vertex 74.143341 -24.867384 129.206055
vertex 59.845016 -17.849573 141.599243
endloop
endfacet
facet normal 0.214411 0.943844 -0.251369
outer loop
vertex 45.546707 -11.535946 154.329956
vertex 51.715836 -11.331397 160.360092
vertex 65.484604 -17.943918 147.275681
endloop
endfacet
facet normal 0.229968 0.949672 -0.212692
outer loop
vertex 65.484604 -17.943918 147.275681
vertex 59.845016 -17.849573 141.599243
vertex 45.546707 -11.535946 154.329956
endloop
endfacet
facet normal 0.195355 0.936632 -0.290785
outer loop
vertex 51.715836 -11.331397 160.360092
vertex 57.884949 -10.765323 166.327972
vertex 71.124191 -17.697382 152.893860
endloop
endfacet
facet normal 0.211816 0.943716 -0.254035
outer loop
vertex 71.124191 -17.697382 152.893860
vertex 65.484604 -17.943918 147.275681
vertex 51.715836 -11.331397 160.360092
endloop
endfacet
facet normal 0.229553 0.914437 -0.333332
outer loop
vertex 71.124191 -17.697382 152.893860
vertex 77.149963 -17.323660 158.068817
vertex 89.817940 -25.365717 144.730804
endloop
endfacet
facet normal 0.254739 0.924131 -0.284762
outer loop
vertex 89.817940 -25.365717 144.730804
vertex 84.363426 -25.370672 139.835297
vertex 71.124191 -17.697382 152.893860
endloop
endfacet
facet normal 0.173284 0.927202 -0.332067
outer loop
vertex 57.884949 -10.765323 166.327972
vertex 64.481979 -10.037558 171.802582
vertex 77.149963 -17.323660 158.068817
endloop
endfacet
facet normal 0.193304 0.936457 -0.292715
outer loop
vertex 77.149963 -17.323660 158.068817
vertex 71.124191 -17.697382 152.893860
vertex 57.884949 -10.765323 166.327972
endloop
endfacet
facet normal 0.151663 0.916639 -0.369826
outer loop
vertex 64.481979 -10.037558 171.802582
vertex 71.079025 -8.957603 177.184723
vertex 83.175735 -16.618547 163.157364
endloop
endfacet
facet normal 0.172499 0.927107 -0.332740
outer loop
vertex 83.175735 -16.618547 163.157364
vertex 77.149963 -17.323660 158.068817
vertex 64.481979 -10.037558 171.802582
endloop
endfacet
facet normal 0.188489 0.890351 -0.414424
outer loop
vertex 83.175735 -16.618547 163.157364
vertex 89.561432 -15.830183 167.755432
vertex 101.044052 -24.693237 153.936539
endloop
endfacet
facet normal 0.220023 0.904389 -0.365610
outer loop
vertex 101.044052 -24.693237 153.936539
vertex 95.272453 -25.061260 149.552856
vertex 83.175735 -16.618547 163.157364
endloop
endfacet
facet normal 0.127921 0.903932 -0.408097
outer loop
vertex 71.079025 -8.957603 177.184723
vertex 78.078812 -7.764181 182.022278
vertex 89.561432 -15.830183 167.755432
endloop
endfacet
facet normal 0.152591 0.916777 -0.369102
outer loop
vertex 89.561432 -15.830183 167.755432
vertex 83.175735 -16.618547 163.157364
vertex 71.079025 -8.957603 177.184723
endloop
endfacet
facet normal 0.105940 0.890801 -0.441872
outer loop
vertex 78.078812 -7.764181 182.022278
vertex 85.078613 -6.253470 186.746033
vertex 95.947128 -14.738721 172.245728
endloop
endfacet
facet normal 0.130896 0.904452 -0.405996
outer loop
vertex 95.947128 -14.738721 172.245728
vertex 89.561432 -15.830183 167.755432
vertex 78.078812 -7.764181 182.022278
endloop
endfacet
facet normal 0.145914 0.860453 -0.488190
outer loop
vertex 95.947128 -14.738721 172.245728
vertex 102.666489 -13.629322 176.209412
vertex 112.877167 -23.396461 162.046280
endloop
endfacet
facet normal 0.183441 0.878467 -0.441186
outer loop
vertex 112.877167 -23.396461 162.046280
vertex 106.815643 -24.048704 158.227234
vertex 95.947128 -14.738721 172.245728
endloop
endfacet
facet normal 0.081905 0.875530 -0.476171
outer loop
vertex 85.078613 -6.253470 186.746033
vertex 92.455811 -4.694728 190.881012
vertex 102.666489 -13.629322 176.209412
endloop
endfacet
facet normal 0.111368 0.891847 -0.438414
outer loop
vertex 102.666489 -13.629322 176.209412
vertex 95.947128 -14.738721 172.245728
vertex 85.078613 -6.253470 186.746033
endloop
endfacet
facet normal 0.063014 0.861672 -0.503538
outer loop
vertex 92.455811 -4.694728 190.881012
vertex 99.833015 -2.884473 194.901993
vertex 109.385849 -12.259521 180.054535
endloop
endfacet
facet normal 0.090748 0.877377 -0.471142
outer loop
vertex 109.385849 -12.259521 180.054535
vertex 102.666489 -13.629322 176.209412
vertex 92.455811 -4.694728 190.881012
endloop
endfacet
facet normal 0.105477 0.827363 -0.551674
outer loop
vertex 109.385849 -12.259521 180.054535
vertex 116.412605 -10.955772 183.353302
vertex 125.263611 -21.666403 168.982529
endloop
endfacet
facet normal 0.147374 0.847987 -0.509117
outer loop
vertex 125.263611 -21.666403 168.982529
vertex 118.938683 -22.501471 165.760757
vertex 109.385849 -12.259521 180.054535
endloop
endfacet
facet normal 0.039133 0.844539 -0.534062
outer loop
vertex 99.833015 -2.884473 194.901993
vertex 107.561600 -1.096094 198.296341
vertex 116.412605 -10.955772 183.353302
endloop
endfacet
facet normal 0.073577 0.863947 -0.498179
outer loop
vertex 116.412605 -10.955772 183.353302
vertex 109.385849 -12.259521 180.054535
vertex 99.833015 -2.884473 194.901993
endloop
endfacet
facet normal 0.020293 0.827973 -0.560400
outer loop
vertex 107.561600 -1.096094 198.296341
vertex 115.290176 0.920747 201.556030
vertex 123.439362 -9.444623 186.536652
endloop
endfacet
facet normal 0.056091 0.848316 -0.526511
outer loop
vertex 123.439362 -9.444623 186.536652
vertex 116.412605 -10.955772 183.353302
vertex 107.561600 -1.096094 198.296341
endloop
endfacet
facet normal 0.069302 0.793996 -0.603961
outer loop
vertex 123.439362 -9.444623 186.536652
vertex 130.747253 -8.084173 189.163712
vertex 138.151489 -19.724569 174.710297
endloop
endfacet
facet normal 0.113611 0.815484 -0.567519
outer loop
vertex 138.151489 -19.724569 174.710297
vertex 131.588547 -20.628752 172.097229
vertex 123.439362 -9.444623 186.536652
endloop
endfacet
facet normal 0.001847 0.810067 -0.586334
outer loop
vertex 115.290176 0.920747 201.556030
vertex 123.343010 2.802005 204.180511
vertex 130.747253 -8.084173 189.163712
endloop
endfacet
facet normal 0.043171 0.833059 -0.551498
outer loop
vertex 130.747253 -8.084173 189.163712
vertex 123.439362 -9.444623 186.536652
vertex 115.290176 0.920747 201.556030
endloop
endfacet
facet normal -0.010839 0.793766 -0.608127
outer loop
vertex 123.343010 2.802005 204.180511
vertex 131.395844 4.836248 206.692200
vertex 138.055145 -6.568412 191.687424
endloop
endfacet
facet normal 0.029946 0.816232 -0.576948
outer loop
vertex 138.055145 -6.568412 191.687424
vertex 130.747253 -8.084173 189.163712
vertex 123.343010 2.802005 204.180511
endloop
endfacet
facet normal 0.041534 0.763779 -0.644140
outer loop
vertex 138.055145 -6.568412 191.687424
vertex 145.617905 -5.306550 193.671280
vertex 151.491608 -17.802107 179.233612
endloop
endfacet
facet normal 0.083728 0.783187 -0.616123
outer loop
vertex 151.491608 -17.802107 179.233612
vertex 144.714447 -18.659786 177.222382
vertex 138.055145 -6.568412 191.687424
endloop
endfacet
facet normal -0.023056 0.776325 -0.629912
outer loop
vertex 131.395844 4.836248 206.692200
vertex 139.744202 6.616484 208.580658
vertex 145.617905 -5.306550 193.671280
endloop
endfacet
facet normal 0.023336 0.800881 -0.598369
outer loop
vertex 145.617905 -5.306550 193.671280
vertex 138.055145 -6.568412 191.687424
vertex 131.395844 4.836248 206.692200
endloop
endfacet
facet normal -0.031930 0.759564 -0.649648
outer loop
vertex 139.744202 6.616484 208.580658
vertex 148.092545 8.501977 210.374863
vertex 153.180664 -3.941107 195.576401
endloop
endfacet
facet normal 0.014904 0.783752 -0.620896
outer loop
vertex 153.180664 -3.941107 195.576401
vertex 145.617905 -5.306550 193.671280
vertex 139.744202 6.616484 208.580658
endloop
endfacet
facet normal 0.019162 0.738254 -0.674251
outer loop
vertex 153.180664 -3.941107 195.576401
vertex 160.972015 -2.897924 196.940002
vertex 165.238373 -16.120054 182.584030
endloop
endfacet
facet normal 0.057773 0.754552 -0.653693
outer loop
vertex 165.238373 -16.120054 182.584030
vertex 158.268784 -16.823326 181.156250
vertex 153.180664 -3.941107 195.576401
endloop
endfacet
facet normal -0.036890 0.744247 -0.666885
outer loop
vertex 148.092545 8.501977 210.374863
vertex 156.705658 10.008334 211.579498
vertex 160.972015 -2.897924 196.940002
endloop
endfacet
facet normal 0.009598 0.766977 -0.641603
outer loop
vertex 160.972015 -2.897924 196.940002
vertex 153.180664 -3.941107 195.576401
vertex 148.092545 8.501977 210.374863
endloop
endfacet
facet normal -0.036711 0.731538 -0.680811
outer loop
vertex 156.705658 10.008334 211.579498
vertex 165.318756 11.533661 212.754013
vertex 168.763367 -1.792863 198.248749
endloop
endfacet
facet normal 0.004476 0.750756 -0.660565
outer loop
vertex 168.763367 -1.792863 198.248749
vertex 160.972015 -2.897924 196.940002
vertex 156.705658 10.008334 211.579498
endloop
endfacet
facet normal 0.005787 0.719050 -0.694934
outer loop
vertex 168.763367 -1.792863 198.248749
vertex 176.757080 -1.094367 199.038055
vertex 179.350601 -14.872553 184.803314
endloop
endfacet
facet normal 0.035960 0.730330 -0.682147
outer loop
vertex 179.350601 -14.872553 184.803314
vertex 172.207977 -15.328884 183.938202
vertex 168.763367 -1.792863 198.248749
endloop
endfacet
facet normal -0.034146 0.720902 -0.692196
outer loop
vertex 165.318756 11.533661 212.754013
vertex 174.163559 12.562361 213.389069
vertex 176.757080 -1.094367 199.038055
endloop
endfacet
facet normal 0.002401 0.736676 -0.676242
outer loop
vertex 176.757080 -1.094367 199.038055
vertex 168.763367 -1.792863 198.248749
vertex 165.318756 11.533661 212.754013
endloop
endfacet
facet normal -0.027370 0.713269 -0.700356
outer loop
vertex 174.163559 12.562361 213.389069
vertex 183.008362 13.552377 214.051697
vertex 184.750793 -0.371964 199.802505
endloop
endfacet
facet normal 0.000451 0.724453 -0.689324
outer loop
vertex 184.750793 -0.371964 199.802505
vertex 176.757080 -1.094367 199.038055
vertex 174.163559 12.562361 213.389069
endloop
endfacet
facet normal 0.000641 0.708495 -0.705716
outer loop
vertex 184.750793 -0.371964 199.802505
vertex 192.920578 -0.121966 200.060898
vertex 193.791809 -14.209673 185.918472
endloop
endfacet
facet normal 0.015775 0.713318 -0.700663
outer loop
vertex 193.791809 -14.209673 185.918472
vertex 186.493225 -14.352709 185.608521
vertex 184.750793 -0.371964 199.802505
endloop
endfacet
facet normal -0.018298 0.708517 -0.705456
outer loop
vertex 183.008362 13.552377 214.051697
vertex 192.049347 13.951209 214.217758
vertex 192.920578 -0.121966 200.060898
endloop
endfacet
facet normal 0.000219 0.715226 -0.698893
outer loop
vertex 192.920578 -0.121966 200.060898
vertex 184.750793 -0.371964 199.802505
vertex 183.008362 13.552377 214.051697
endloop
endfacet
facet normal -0.006449 0.707092 -0.707092
outer loop
vertex 192.049347 13.951209 214.217758
vertex 201.090332 14.272315 214.456406
vertex 201.090363 0.130175 200.314270
endloop
endfacet
facet normal -0.000023 0.709199 -0.705008
outer loop
vertex 201.090363 0.130175 200.314270
vertex 192.920578 -0.121966 200.060898
vertex 192.049347 13.951209 214.217758
endloop
endfacet
endsolid Exported from Blender-2.75 (sub 0)
