solid Exported from Blender-2.75 (sub 0)
facet normal 0.000000 -0.999282 0.037886
outer loop
vertex -22.000000 -2.000000 16.385910
vertex 22.000000 -2.000000 16.385910
vertex 22.067646 -1.285957 35.219299
endloop
endfacet
facet normal 0.032375 -0.998757 -0.037886
outer loop
vertex 22.067646 -1.285957 35.219299
vertex -21.909256 -2.711477 35.219299
vertex -22.000000 -2.000000 16.385910
endloop
endfacet
facet normal 0.032235 -0.994425 0.100401
outer loop
vertex -21.909256 -2.711477 35.219299
vertex 22.067646 -1.285957 35.219299
vertex 22.132490 0.802480 55.883545
endloop
endfacet
facet normal 0.125854 -0.986955 -0.100401
outer loop
vertex 22.132490 0.802480 55.883545
vertex -21.514080 -4.763210 55.883545
vertex -21.909256 -2.711477 35.219299
endloop
endfacet
facet normal 0.125854 -0.986954 0.100413
outer loop
vertex -21.514080 -4.763210 55.883545
vertex 22.132490 0.802480 55.883545
vertex 21.986233 3.009759 77.762016
endloop
endfacet
facet normal 0.223734 -0.969464 -0.100413
outer loop
vertex 21.986233 3.009759 77.762016
vertex -20.886866 -6.884548 77.762016
vertex -21.514080 -4.763210 55.883545
endloop
endfacet
facet normal 0.223734 -0.969463 0.100419
outer loop
vertex -20.886866 -6.884548 77.762016
vertex 21.986233 3.009759 77.762016
vertex 21.607353 5.250441 100.238068
endloop
endfacet
facet normal 0.321952 -0.941415 -0.100419
outer loop
vertex 21.607353 5.250441 100.238068
vertex -20.025370 -8.987410 100.238068
vertex -20.886866 -6.884548 77.762016
endloop
endfacet
facet normal 0.321952 -0.941415 0.100419
outer loop
vertex -20.025370 -8.987410 100.238068
vertex 21.607353 5.250441 100.238068
vertex 21.001345 7.438641 122.695084
endloop
endfacet
facet normal 0.416698 -0.903482 -0.100419
outer loop
vertex 21.001345 7.438641 122.695084
vertex -18.953806 -10.989212 122.695084
vertex -20.025370 -8.987410 100.238068
endloop
endfacet
facet normal 0.416698 -0.903482 0.100413
outer loop
vertex -18.953806 -10.989212 122.695084
vertex 21.001345 7.438641 122.695084
vertex 20.200741 9.494607 144.516403
endloop
endfacet
facet normal 0.504571 -0.857511 -0.100413
outer loop
vertex 20.200741 9.494607 144.516403
vertex -17.721418 -12.819290 144.516403
vertex -18.953806 -10.989212 122.695084
endloop
endfacet
facet normal 0.504571 -0.857512 0.100400
outer loop
vertex -17.721418 -12.819290 144.516403
vertex 20.200741 9.494607 144.516403
vertex 19.262165 11.350605 165.085419
endloop
endfacet
facet normal 0.582827 -0.806370 -0.100400
outer loop
vertex 19.262165 11.350605 165.085419
vertex -16.398321 -14.423991 165.085419
vertex -17.721418 -12.819290 144.516403
endloop
endfacet
facet normal 0.582828 -0.806372 0.100378
outer loop
vertex -16.398321 -14.423991 165.085419
vertex 19.262165 11.350605 165.085419
vertex 18.261045 12.954821 183.785492
endloop
endfacet
facet normal 0.649524 -0.753686 -0.100378
outer loop
vertex 18.261045 12.954821 183.785492
vertex -15.069474 -15.769321 183.785492
vertex -16.398321 -14.423991 165.085419
endloop
endfacet
facet normal 0.649526 -0.753689 0.100346
outer loop
vertex -15.069474 -15.769321 183.785492
vertex 18.261045 12.954821 183.785492
vertex 17.284832 14.272310 200.000000
endloop
endfacet
facet normal 0.703538 -0.703537 -0.100346
outer loop
vertex 17.284832 14.272310 200.000000
vertex -13.827866 -16.840387 200.000000
vertex -15.069474 -15.769321 183.785492
endloop
endfacet
facet normal 0.000002 0.000000 1.000000
outer loop
vertex -13.827866 -16.840387 200.000000
vertex -15.242080 -12.597747 200.000000
vertex -16.656292 -14.011959 200.000000
endloop
endfacet
facet normal -0.000019 0.000000 1.000000
outer loop
vertex 14.456405 17.100737 200.000000
vertex 13.042192 15.686524 200.000000
vertex 14.456405 14.272310 200.000000
endloop
endfacet
facet normal -0.000008 0.000000 1.000000
outer loop
vertex -13.827866 -16.840387 200.000000
vertex -13.827866 -14.011960 200.000000
vertex -15.242080 -12.597747 200.000000
endloop
endfacet
facet normal -0.000008 0.000000 1.000000
outer loop
vertex 17.284832 14.272310 200.000000
vertex 14.456405 17.100737 200.000000
vertex 14.456405 14.272310 200.000000
endloop
endfacet
facet normal -0.000002 0.000000 1.000000
outer loop
vertex -13.827866 -16.840387 200.000000
vertex 0.314270 0.130175 200.000000
vertex -13.827866 -14.011960 200.000000
endloop
endfacet
facet normal 0.000005 0.000000 1.000000
outer loop
vertex 17.284832 14.272310 200.000000
vertex 14.456405 14.272310 200.000000
vertex 0.314270 0.130175 200.000000
endloop
endfacet
facet normal -0.000003 0.000000 1.000000
outer loop
vertex -13.827866 -16.840387 200.000000
vertex 17.284832 14.272310 200.000000
vertex 0.314270 0.130175 200.000000
endloop
endfacet
facet normal 0.000000 -1.000000 0.000000
outer loop
vertex -22.000000 -2.000000 0.000000
vertex 22.000000 -2.000000 0.000000
vertex 22.000000 -2.000000 16.385910
endloop
endfacet
facet normal 0.000000 -1.000000 0.000000
outer loop
vertex 22.000000 -2.000000 16.385910
vertex -22.000000 -2.000000 16.385910
vertex -22.000000 -2.000000 0.000000
endloop
endfacet
facet normal 1.000000 0.000000 0.000000
outer loop
vertex 22.000000 -2.000000 0.000000
vertex 22.000000 2.000000 0.000000
vertex 22.000000 2.000000 16.385910
endloop
endfacet
facet normal 1.000000 0.000000 0.000000
outer loop
vertex 22.000000 2.000000 16.385910
vertex 22.000000 -2.000000 16.385910
vertex 22.000000 -2.000000 0.000000
endloop
endfacet
facet normal 0.000000 1.000000 0.000000
outer loop
vertex 22.000000 2.000000 0.000000
vertex 20.000000 2.000000 0.000000
vertex 20.000000 2.000000 16.385910
endloop
endfacet
facet normal 0.000000 1.000000 0.000000
outer loop
vertex 20.000000 2.000000 16.385910
vertex 22.000000 2.000000 16.385910
vertex 22.000000 2.000000 0.000000
endloop
endfacet
facet normal -1.000000 0.000000 0.000000
outer loop
vertex 20.000000 2.000000 0.000000
vertex 20.000000 0.000000 16.385910
vertex 20.000000 2.000000 16.385910
endloop
endfacet
facet normal 0.000000 0.000000 0.000000
outer loop
vertex 20.000000 0.000000 0.000000
vertex 20.000000 0.000000 8.192947
vertex 20.000000 0.000000 16.385910
endloop
endfacet
facet normal -1.000000 0.000000 0.000000
outer loop
vertex 20.000000 2.000000 0.000000
vertex 20.000000 0.000000 0.000000
vertex 20.000000 0.000000 16.385910
endloop
endfacet
facet normal 0.000000 1.000000 0.000000
outer loop
vertex 0.000000 0.000000 8.192947
vertex -20.000000 0.000000 8.192947
vertex -20.000000 0.000000 16.385910
endloop
endfacet
facet normal 0.000000 1.000000 0.000000
outer loop
vertex -20.000000 0.000000 16.385910
vertex 0.000000 0.000000 16.385910
vertex 0.000000 0.000000 8.192947
endloop
endfacet
facet normal 0.000000 0.000000 0.000000
outer loop
vertex -20.000000 0.000000 0.000000
vertex -20.000000 0.000000 16.385910
vertex -20.000000 0.000000 8.192947
endloop
endfacet
facet normal 1.000000 0.000000 0.000000
outer loop
vertex -20.000000 2.000000 0.000000
vertex -20.000000 2.000000 16.385910
vertex -20.000000 0.000000 16.385910
endloop
endfacet
facet normal 1.000000 0.000000 0.000000
outer loop
vertex -20.000000 0.000000 0.000000
vertex -20.000000 2.000000 0.000000
vertex -20.000000 0.000000 16.385910
endloop
endfacet
facet normal 0.000000 1.000000 0.000000
outer loop
vertex -20.000000 2.000000 0.000000
vertex -22.000000 2.000000 0.000000
vertex -22.000000 2.000000 16.385910
endloop
endfacet
facet normal 0.000000 1.000000 0.000000
outer loop
vertex -22.000000 2.000000 16.385910
vertex -20.000000 2.000000 16.385910
vertex -20.000000 2.000000 0.000000
endloop
endfacet
facet normal -1.000000 0.000000 0.000000
outer loop
vertex -22.000000 2.000000 0.000000
vertex -22.000000 -2.000000 0.000000
vertex -22.000000 -2.000000 16.385910
endloop
endfacet
facet normal -1.000000 0.000000 0.000000
outer loop
vertex -22.000000 -2.000000 16.385910
vertex -22.000000 2.000000 16.385910
vertex -22.000000 2.000000 0.000000
endloop
endfacet
facet normal 0.999995 0.000000 0.003289
outer loop
vertex 22.000000 -2.000000 16.385910
vertex 22.000000 2.000000 16.385910
vertex 21.938055 2.711944 35.219299
endloop
endfacet
facet normal 0.999463 0.032397 -0.004818
outer loop
vertex 21.938055 2.711944 35.219299
vertex 22.067646 -1.285957 35.219299
vertex 22.000000 -2.000000 16.385910
endloop
endfacet
facet normal 0.000000 0.999410 -0.034341
outer loop
vertex 22.000000 2.000000 16.385910
vertex 20.000000 2.000000 16.385910
vertex 19.939104 2.647147 35.219299
endloop
endfacet
facet normal -0.032375 0.998758 -0.037862
outer loop
vertex 19.939104 2.647147 35.219299
vertex 21.938055 2.711944 35.219299
vertex 22.000000 2.000000 16.385910
endloop
endfacet
facet normal -0.999473 -0.032397 -0.002118
outer loop
vertex 20.000000 2.000000 16.385910
vertex 20.003901 0.648197 35.219299
vertex 19.939104 2.647147 35.219299
endloop
endfacet
facet normal -0.999982 0.006022 0.000000
outer loop
vertex 20.000000 0.000000 16.385910
vertex 20.000000 0.000000 25.802612
vertex 20.003901 0.648197 35.219299
endloop
endfacet
facet normal -1.000000 0.000001 0.000207
outer loop
vertex 20.000000 2.000000 16.385910
vertex 20.000000 0.000000 16.385910
vertex 20.003901 0.648197 35.219299
endloop
endfacet
facet normal -0.000000 0.997643 0.068623
outer loop
vertex 0.000000 0.000000 25.802612
vertex -20.000000 0.000000 25.802612
vertex -19.975101 -0.647731 35.219299
endloop
endfacet
facet normal -0.032398 0.999475 0.000025
outer loop
vertex -19.975101 -0.647731 35.219299
vertex 0.014399 0.000233 35.219299
vertex 0.000000 0.000000 25.802612
endloop
endfacet
facet normal 0.999475 0.032398 -0.000414
outer loop
vertex -20.039898 1.351220 35.219299
vertex -19.975101 -0.647731 35.219299
vertex -20.000000 0.000000 25.802612
endloop
endfacet
facet normal 1.000000 0.000000 0.000000
outer loop
vertex -20.000000 0.000000 16.385910
vertex -20.000000 2.000000 16.385910
vertex -20.000000 0.000000 25.802612
endloop
endfacet
facet normal 0.999926 0.011904 0.002528
outer loop
vertex -20.000000 2.000000 16.385910
vertex -20.039898 1.351220 35.219299
vertex -20.000000 0.000000 25.802612
endloop
endfacet
facet normal 0.000000 0.999283 0.037862
outer loop
vertex -20.000000 2.000000 16.385910
vertex -22.000000 2.000000 16.385910
vertex -22.038849 1.286423 35.219299
endloop
endfacet
facet normal -0.032379 0.998886 0.034341
outer loop
vertex -22.038849 1.286423 35.219299
vertex -20.039898 1.351220 35.219299
vertex -20.000000 2.000000 16.385910
endloop
endfacet
facet normal -0.999988 0.000000 0.004818
outer loop
vertex -22.000000 2.000000 16.385910
vertex -22.000000 -2.000000 16.385910
vertex -21.909256 -2.711477 35.219299
endloop
endfacet
facet normal -0.999470 -0.032398 -0.003289
outer loop
vertex -21.909256 -2.711477 35.219299
vertex -22.038849 1.286423 35.219299
vertex -22.000000 2.000000 16.385910
endloop
endfacet
facet normal 0.999405 0.032395 0.011840
outer loop
vertex 22.067646 -1.285957 35.219299
vertex 21.938055 2.711944 35.219299
vertex 21.626518 4.770351 55.883545
endloop
endfacet
facet normal 0.991842 0.126477 -0.015895
outer loop
vertex 21.626518 4.770351 55.883545
vertex 22.132490 0.802480 55.883545
vertex 22.067646 -1.285957 35.219299
endloop
endfacet
facet normal -0.032265 0.995369 -0.090549
outer loop
vertex 21.938055 2.711944 35.219299
vertex 19.939104 2.647147 35.219299
vertex 19.642584 4.517365 55.883545
endloop
endfacet
facet normal -0.125856 0.986974 -0.100212
outer loop
vertex 19.642584 4.517365 55.883545
vertex 21.626518 4.770351 55.883545
vertex 21.938055 2.711944 35.219299
endloop
endfacet
facet normal -0.991964 -0.126492 -0.002786
outer loop
vertex 19.939104 2.647147 35.219299
vertex 19.895569 2.533430 55.883545
vertex 19.642584 4.517365 55.883545
endloop
endfacet
facet normal 0.057108 -0.994212 0.091000
outer loop
vertex 20.003901 0.648197 35.219299
vertex 19.971991 1.592092 45.551422
vertex 19.895569 2.533430 55.883545
endloop
endfacet
facet normal -0.999472 -0.032399 -0.002284
outer loop
vertex 19.939104 2.647147 35.219299
vertex 20.003901 0.648197 35.219299
vertex 19.895569 2.533430 55.883545
endloop
endfacet
facet normal -0.079205 0.992702 0.090933
outer loop
vertex 0.035349 0.001408 45.551422
vertex -19.901295 -1.589277 45.551422
vertex -19.783131 -2.526289 55.883545
endloop
endfacet
facet normal -0.126493 0.991967 0.000048
outer loop
vertex -19.783131 -2.526289 55.883545
vertex 0.056219 0.003570 55.883545
vertex 0.035349 0.001408 45.551422
endloop
endfacet
facet normal 0.101253 -0.990689 -0.091007
outer loop
vertex -19.975101 -0.647731 35.219299
vertex -19.783131 -2.526289 55.883545
vertex -19.901295 -1.589277 45.551422
endloop
endfacet
facet normal 0.991903 0.126485 0.011409
outer loop
vertex -20.039898 1.351220 35.219299
vertex -20.036118 -0.542355 55.883545
vertex -19.783131 -2.526289 55.883545
endloop
endfacet
facet normal 0.999455 0.032398 -0.006340
outer loop
vertex -19.975101 -0.647731 35.219299
vertex -20.039898 1.351220 35.219299
vertex -19.783131 -2.526289 55.883545
endloop
endfacet
facet normal -0.032235 0.994444 0.100212
outer loop
vertex -20.039898 1.351220 35.219299
vertex -22.038849 1.286423 35.219299
vertex -22.020052 -0.795341 55.883545
endloop
endfacet
facet normal -0.125973 0.987893 0.090549
outer loop
vertex -22.020052 -0.795341 55.883545
vertex -20.036118 -0.542355 55.883545
vertex -20.039898 1.351220 35.219299
endloop
endfacet
facet normal -0.999349 -0.032394 0.015895
outer loop
vertex -22.038849 1.286423 35.219299
vertex -21.909256 -2.711477 35.219299
vertex -21.514080 -4.763210 55.883545
endloop
endfacet
facet normal -0.991898 -0.126484 -0.011840
outer loop
vertex -21.514080 -4.763210 55.883545
vertex -22.020052 -0.795341 55.883545
vertex -22.038849 1.286423 35.219299
endloop
endfacet
facet normal 0.991895 0.126484 0.012117
outer loop
vertex 22.132490 0.802480 55.883545
vertex 21.626518 4.770351 55.883545
vertex 21.086750 6.907314 77.762016
endloop
endfacet
facet normal 0.974261 0.224841 -0.016171
outer loop
vertex 21.086750 6.907314 77.762016
vertex 21.986233 3.009759 77.762016
vertex 22.132490 0.802480 55.883545
endloop
endfacet
facet normal -0.125974 0.987896 -0.090513
outer loop
vertex 21.626518 4.770351 55.883545
vertex 19.642584 4.517365 55.883545
vertex 19.137974 6.457573 77.762016
endloop
endfacet
facet normal -0.223738 0.969484 -0.100213
outer loop
vertex 19.137974 6.457573 77.762016
vertex 21.086750 6.907314 77.762016
vertex 21.626518 4.770351 55.883545
endloop
endfacet
facet normal -0.974385 -0.224870 -0.002532
outer loop
vertex 19.642584 4.517365 55.883545
vertex 19.587715 4.508795 77.762016
vertex 19.137974 6.457573 77.762016
endloop
endfacet
facet normal 0.153336 -0.983975 0.091003
outer loop
vertex 19.895569 2.533430 55.883545
vertex 19.766335 3.524961 66.822784
vertex 19.587715 4.508795 77.762016
endloop
endfacet
facet normal -0.991964 -0.126493 -0.002537
outer loop
vertex 19.642584 4.517365 55.883545
vertex 19.895569 2.533430 55.883545
vertex 19.587715 4.508795 77.762016
endloop
endfacet
facet normal -0.175173 0.980330 0.090926
outer loop
vertex 0.078178 0.006930 66.822784
vertex -19.609978 -3.511101 66.822784
vertex -19.387829 -4.486030 77.762016
endloop
endfacet
facet normal -0.224871 0.974389 0.000051
outer loop
vertex -19.387829 -4.486030 77.762016
vertex 0.099942 0.011383 77.762016
vertex 0.078178 0.006930 66.822784
endloop
endfacet
facet normal 0.196904 -0.976191 -0.090999
outer loop
vertex -19.783131 -2.526289 55.883545
vertex -19.387829 -4.486030 77.762016
vertex -19.609978 -3.511101 66.822784
endloop
endfacet
facet normal 0.974322 0.224855 0.011661
outer loop
vertex -20.036118 -0.542355 55.883545
vertex -19.837570 -2.537252 77.762016
vertex -19.387829 -4.486030 77.762016
endloop
endfacet
facet normal 0.991946 0.126490 -0.006592
outer loop
vertex -19.783131 -2.526289 55.883545
vertex -20.036118 -0.542355 55.883545
vertex -19.387829 -4.486030 77.762016
endloop
endfacet
facet normal -0.125856 0.986974 0.100213
outer loop
vertex -20.036118 -0.542355 55.883545
vertex -22.020052 -0.795341 55.883545
vertex -21.786348 -2.986994 77.762016
endloop
endfacet
facet normal -0.223948 0.970389 0.090513
outer loop
vertex -21.786348 -2.986994 77.762016
vertex -19.837570 -2.537252 77.762016
vertex -20.036118 -0.542355 55.883545
endloop
endfacet
facet normal -0.991838 -0.126477 0.016171
outer loop
vertex -22.020052 -0.795341 55.883545
vertex -21.514080 -4.763210 55.883545
vertex -20.886866 -6.884548 77.762016
endloop
endfacet
facet normal -0.974317 -0.224854 -0.012117
outer loop
vertex -20.886866 -6.884548 77.762016
vertex -21.786348 -2.986994 77.762016
vertex -22.020052 -0.795341 55.883545
endloop
endfacet
facet normal 0.974316 0.224854 0.012253
outer loop
vertex 21.986233 3.009759 77.762016
vertex 21.086750 6.907314 77.762016
vertex 20.313004 9.035233 100.238068
endloop
endfacet
facet normal 0.946072 0.323545 -0.016307
outer loop
vertex 20.313004 9.035233 100.238068
vertex 21.607353 5.250441 100.238068
vertex 21.986233 3.009759 77.762016
endloop
endfacet
facet normal -0.223948 0.970391 -0.090495
outer loop
vertex 21.086750 6.907314 77.762016
vertex 19.137974 6.457573 77.762016
vertex 18.420607 8.388059 100.238068
endloop
endfacet
facet normal -0.321958 0.941435 -0.100214
outer loop
vertex 18.420607 8.388059 100.238068
vertex 20.313004 9.035233 100.238068
vertex 21.086750 6.907314 77.762016
endloop
endfacet
facet normal -0.946196 -0.323586 -0.002407
outer loop
vertex 19.137974 6.457573 77.762016
vertex 19.067781 6.495662 100.238068
vertex 18.420607 8.388059 100.238068
endloop
endfacet
facet normal 0.252101 -0.963413 0.091000
outer loop
vertex 19.587715 4.508795 77.762016
vertex 19.353262 5.508906 89.000046
vertex 19.067781 6.495662 100.238068
endloop
endfacet
facet normal -0.974385 -0.224869 -0.002662
outer loop
vertex 19.137974 6.457573 77.762016
vertex 19.587715 4.508795 77.762016
vertex 19.067781 6.495662 100.238068
endloop
endfacet
facet normal -0.273453 0.957578 0.090923
outer loop
vertex 0.122040 0.017084 89.000046
vertex -19.109180 -5.474738 89.000046
vertex -18.780148 -6.447838 100.238068
endloop
endfacet
facet normal -0.323588 0.946198 0.000052
outer loop
vertex -18.780148 -6.447838 100.238068
vertex 0.143817 0.023912 100.238068
vertex 0.122040 0.017084 89.000046
endloop
endfacet
facet normal 0.294669 -0.951257 -0.090995
outer loop
vertex -19.387829 -4.486030 77.762016
vertex -18.780148 -6.447838 100.238068
vertex -19.109180 -5.474738 89.000046
endloop
endfacet
facet normal 0.946133 0.323565 0.011784
outer loop
vertex -19.837570 -2.537252 77.762016
vertex -19.427322 -4.555441 100.238068
vertex -18.780148 -6.447838 100.238068
endloop
endfacet
facet normal 0.974367 0.224865 -0.006717
outer loop
vertex -19.387829 -4.486030 77.762016
vertex -19.837570 -2.537252 77.762016
vertex -18.780148 -6.447838 100.238068
endloop
endfacet
facet normal -0.223738 0.969483 0.100214
outer loop
vertex -19.837570 -2.537252 77.762016
vertex -21.786348 -2.986994 77.762016
vertex -21.319719 -5.202617 100.238068
endloop
endfacet
facet normal -0.322260 0.942316 0.090495
outer loop
vertex -21.319719 -5.202617 100.238068
vertex -19.427322 -4.555441 100.238068
vertex -19.837570 -2.537252 77.762016
endloop
endfacet
facet normal -0.974259 -0.224841 0.016307
outer loop
vertex -21.786348 -2.986994 77.762016
vertex -20.886866 -6.884548 77.762016
vertex -20.025370 -8.987410 100.238068
endloop
endfacet
facet normal -0.946127 -0.323563 -0.012253
outer loop
vertex -20.025370 -8.987410 100.238068
vertex -21.319719 -5.202617 100.238068
vertex -21.786348 -2.986994 77.762016
endloop
endfacet
facet normal 0.946127 0.323563 0.012249
outer loop
vertex 21.607353 5.250441 100.238068
vertex 20.313004 9.035233 100.238068
vertex 19.326086 11.070927 122.695084
endloop
endfacet
facet normal 0.907951 0.418759 -0.016302
outer loop
vertex 19.326086 11.070927 122.695084
vertex 21.001345 7.438641 122.695084
vertex 21.607353 5.250441 100.238068
endloop
endfacet
facet normal -0.322260 0.942316 -0.090496
outer loop
vertex 20.313004 9.035233 100.238068
vertex 18.420607 8.388059 100.238068
vertex 17.509943 10.233297 122.695084
endloop
endfacet
facet normal -0.416706 0.903501 -0.100214
outer loop
vertex 17.509943 10.233297 122.695084
vertex 19.326086 11.070927 122.695084
vertex 20.313004 9.035233 100.238068
endloop
endfacet
facet normal -0.908069 -0.418813 -0.002411
outer loop
vertex 18.420607 8.388059 100.238068
vertex 18.347572 8.417153 122.695084
vertex 17.509943 10.233297 122.695084
endloop
endfacet
facet normal 0.349534 -0.932494 0.090997
outer loop
vertex 19.067781 6.495662 100.238068
vertex 18.732330 7.465649 111.466576
vertex 18.347572 8.417153 122.695084
endloop
endfacet
facet normal -0.946195 -0.323587 -0.002658
outer loop
vertex 18.420607 8.388059 100.238068
vertex 19.067781 6.495662 100.238068
vertex 18.347572 8.417153 122.695084
endloop
endfacet
facet normal -0.370151 0.924512 0.090923
outer loop
vertex 0.165196 0.031841 111.466576
vertex -18.401939 -7.401966 111.466576
vertex -17.975292 -8.335440 122.695084
endloop
endfacet
facet normal -0.418815 0.908072 0.000052
outer loop
vertex -17.975292 -8.335440 122.695084
vertex 0.186140 0.040857 122.695084
vertex 0.165196 0.031841 111.466576
endloop
endfacet
facet normal 0.390607 -0.916049 -0.090999
outer loop
vertex -18.780148 -6.447838 100.238068
vertex -17.975292 -8.335440 122.695084
vertex -18.401939 -7.401966 111.466576
endloop
endfacet
facet normal 0.908008 0.418787 0.011781
outer loop
vertex -19.427322 -4.555441 100.238068
vertex -18.812923 -6.519297 122.695084
vertex -17.975292 -8.335440 122.695084
endloop
endfacet
facet normal 0.946177 0.323580 -0.006713
outer loop
vertex -18.780148 -6.447838 100.238068
vertex -19.427322 -4.555441 100.238068
vertex -17.975292 -8.335440 122.695084
endloop
endfacet
facet normal -0.321958 0.941435 0.100214
outer loop
vertex -19.427322 -4.555441 100.238068
vertex -21.319719 -5.202617 100.238068
vertex -20.629066 -7.356926 122.695084
endloop
endfacet
facet normal -0.417097 0.904345 0.090496
outer loop
vertex -20.629066 -7.356926 122.695084
vertex -18.812923 -6.519297 122.695084
vertex -19.427322 -4.555441 100.238068
endloop
endfacet
facet normal -0.946072 -0.323545 0.016302
outer loop
vertex -21.319719 -5.202617 100.238068
vertex -20.025370 -8.987410 100.238068
vertex -18.953806 -10.989212 122.695084
endloop
endfacet
facet normal -0.908004 -0.418783 -0.012249
outer loop
vertex -18.953806 -10.989212 122.695084
vertex -20.629066 -7.356926 122.695084
vertex -21.319719 -5.202617 100.238068
endloop
endfacet
facet normal 0.908005 0.418784 0.012104
outer loop
vertex 21.001345 7.438641 122.695084
vertex 19.326086 11.070927 122.695084
vertex 18.172205 12.942076 144.516403
endloop
endfacet
facet normal 0.861755 0.507068 -0.016158
outer loop
vertex 18.172205 12.942076 144.516403
vertex 20.200741 9.494607 144.516403
vertex 21.001345 7.438641 122.695084
endloop
endfacet
facet normal -0.417095 0.904344 -0.090515
outer loop
vertex 19.326086 11.070927 122.695084
vertex 17.509943 10.233297 122.695084
vertex 16.448469 11.927808 144.516403
endloop
endfacet
facet normal -0.504581 0.857529 -0.100213
outer loop
vertex 16.448469 11.927808 144.516403
vertex 18.172205 12.942076 144.516403
vertex 19.326086 11.070927 122.695084
endloop
endfacet
facet normal -0.861864 -0.507133 -0.002544
outer loop
vertex 17.509943 10.233297 122.695084
vertex 17.462738 10.204073 144.516403
vertex 16.448469 11.927808 144.516403
endloop
endfacet
facet normal 0.441918 -0.892428 0.090998
outer loop
vertex 18.347572 8.417153 122.695084
vertex 17.927433 9.321645 133.605743
vertex 17.462738 10.204073 144.516403
endloop
endfacet
facet normal -0.908069 -0.418814 -0.002525
outer loop
vertex 17.509943 10.233297 122.695084
vertex 18.347572 8.417153 122.695084
vertex 17.462738 10.204073 144.516403
endloop
endfacet
facet normal -0.461630 0.882400 0.090927
outer loop
vertex 0.206022 0.050635 133.605743
vertex -17.515388 -9.220374 133.605743
vertex -17.011951 -10.081288 144.516403
endloop
endfacet
facet normal -0.507134 0.861867 0.000051
outer loop
vertex -17.011951 -10.081288 144.516403
vertex 0.225393 0.061392 144.516403
vertex 0.206022 0.050635 133.605743
endloop
endfacet
facet normal 0.481121 -0.871918 -0.090999
outer loop
vertex -17.975292 -8.335440 122.695084
vertex -17.011951 -10.081288 144.516403
vertex -17.515388 -9.220374 133.605743
endloop
endfacet
facet normal 0.861808 0.507100 0.011649
outer loop
vertex -18.812923 -6.519297 122.695084
vertex -18.026220 -8.357553 144.516403
vertex -17.011951 -10.081288 144.516403
endloop
endfacet
facet normal 0.908052 0.418806 -0.006580
outer loop
vertex -17.975292 -8.335440 122.695084
vertex -18.812923 -6.519297 122.695084
vertex -17.011951 -10.081288 144.516403
endloop
endfacet
facet normal -0.416705 0.903501 0.100213
outer loop
vertex -18.812923 -6.519297 122.695084
vertex -20.629066 -7.356926 122.695084
vertex -19.749954 -9.371821 144.516403
endloop
endfacet
facet normal -0.505053 0.858329 0.090515
outer loop
vertex -19.749954 -9.371821 144.516403
vertex -18.026220 -8.357553 144.516403
vertex -18.812923 -6.519297 122.695084
endloop
endfacet
facet normal -0.907953 -0.418761 0.016158
outer loop
vertex -20.629066 -7.356926 122.695084
vertex -18.953806 -10.989212 122.695084
vertex -17.721418 -12.819290 144.516403
endloop
endfacet
facet normal -0.861804 -0.507097 -0.012104
outer loop
vertex -17.721418 -12.819290 144.516403
vertex -19.749954 -9.371821 144.516403
vertex -20.629066 -7.356926 122.695084
endloop
endfacet
facet normal 0.861807 0.507098 0.011818
outer loop
vertex 20.200741 9.494607 144.516403
vertex 18.172205 12.942076 144.516403
vertex 16.919020 14.592467 165.085419
endloop
endfacet
facet normal 0.810363 0.585713 -0.015873
outer loop
vertex 16.919020 14.592467 165.085419
vertex 19.262165 11.350605 165.085419
vertex 20.200741 9.494607 144.516403
endloop
endfacet
facet normal -0.505050 0.858327 -0.090551
outer loop
vertex 18.172205 12.942076 144.516403
vertex 16.448469 11.927808 144.516403
vertex 15.298088 13.420895 165.085419
endloop
endfacet
facet normal -0.582837 0.806386 -0.100212
outer loop
vertex 15.298088 13.420895 165.085419
vertex 16.919020 14.592467 165.085419
vertex 18.172205 12.942076 144.516403
endloop
endfacet
facet normal -0.810462 -0.585784 -0.002806
outer loop
vertex 16.448469 11.927808 144.516403
vertex 16.469662 11.799963 165.085419
vertex 15.298088 13.420895 165.085419
endloop
endfacet
facet normal 0.526075 -0.845555 0.091004
outer loop
vertex 17.462738 10.204073 144.516403
vertex 16.984955 11.013687 154.800903
vertex 16.469662 11.799963 165.085419
endloop
endfacet
facet normal -0.861865 -0.507133 -0.002264
outer loop
vertex 16.448469 11.927808 144.516403
vertex 17.462738 10.204073 144.516403
vertex 16.469662 11.799963 165.085419
endloop
endfacet
facet normal -0.544798 0.833622 0.090934
outer loop
vertex 0.243140 0.072404 154.800903
vertex -16.498674 -10.868878 154.800903
vertex -15.948962 -11.631488 165.085419
endloop
endfacet
facet normal -0.585786 0.810466 0.000048
outer loop
vertex -15.948962 -11.631488 165.085419
vertex 0.260349 0.084238 165.085419
vertex 0.243140 0.072404 154.800903
endloop
endfacet
facet normal 0.563155 -0.821325 -0.091000
outer loop
vertex -17.011951 -10.081288 144.516403
vertex -15.948962 -11.631488 165.085419
vertex -16.498674 -10.868878 154.800903
endloop
endfacet
facet normal 0.810413 0.585748 0.011389
outer loop
vertex -18.026220 -8.357553 144.516403
vertex -17.120535 -10.010557 165.085419
vertex -15.948962 -11.631488 165.085419
endloop
endfacet
facet normal 0.861850 0.507124 -0.006320
outer loop
vertex -17.011951 -10.081288 144.516403
vertex -18.026220 -8.357553 144.516403
vertex -15.948962 -11.631488 165.085419
endloop
endfacet
facet normal -0.504582 0.857528 0.100212
outer loop
vertex -18.026220 -8.357553 144.516403
vertex -19.749954 -9.371821 144.516403
vertex -18.741467 -11.182129 165.085419
endloop
endfacet
facet normal -0.583379 0.807137 0.090552
outer loop
vertex -18.741467 -11.182129 165.085419
vertex -17.120535 -10.010557 165.085419
vertex -18.026220 -8.357553 144.516403
endloop
endfacet
facet normal -0.861759 -0.507070 0.015873
outer loop
vertex -19.749954 -9.371821 144.516403
vertex -17.721418 -12.819290 144.516403
vertex -16.398321 -14.423991 165.085419
endloop
endfacet
facet normal -0.810409 -0.585746 -0.011818
outer loop
vertex -16.398321 -14.423991 165.085419
vertex -18.741467 -11.182129 165.085419
vertex -19.749954 -9.371821 144.516403
endloop
endfacet
facet normal 0.810413 0.585749 0.011392
outer loop
vertex 19.262165 11.350605 165.085419
vertex 16.919020 14.592467 165.085419
vertex 15.649759 15.984868 183.785492
endloop
endfacet
facet normal 0.757421 0.652743 -0.015448
outer loop
vertex 15.649759 15.984868 183.785492
vertex 18.261045 12.954821 183.785492
vertex 19.262165 11.350605 165.085419
endloop
endfacet
facet normal -0.583377 0.807132 -0.090604
outer loop
vertex 16.919020 14.592467 165.085419
vertex 15.298088 13.420895 165.085419
vertex 14.134736 14.679225 183.785492
endloop
endfacet
facet normal -0.649536 0.753699 -0.100207
outer loop
vertex 14.134736 14.679225 183.785492
vertex 15.649759 15.984868 183.785492
vertex 16.919020 14.592467 165.085419
endloop
endfacet
facet normal -0.757509 -0.652817 -0.003197
outer loop
vertex 15.298088 13.420895 165.085419
vertex 15.440379 13.164201 183.785492
vertex 14.134736 14.679225 183.785492
endloop
endfacet
facet normal 0.599838 -0.794929 0.091006
outer loop
vertex 16.469662 11.799963 165.085419
vertex 15.969594 12.493079 174.435455
vertex 15.440379 13.164201 183.785492
endloop
endfacet
facet normal -0.810464 -0.585786 -0.001874
outer loop
vertex 15.298088 13.420895 165.085419
vertex 16.469662 11.799963 165.085419
vertex 15.440379 13.164201 183.785492
endloop
endfacet
facet normal -0.617301 0.781453 0.090944
outer loop
vertex 0.275498 0.095687 174.435455
vertex -15.418598 -12.301704 174.435455
vertex -14.860093 -12.948656 183.785492
endloop
endfacet
facet normal -0.652822 0.757512 0.000043
outer loop
vertex -14.860093 -12.948656 183.785492
vertex 0.290143 0.107773 183.785492
vertex 0.275498 0.095687 174.435455
endloop
endfacet
facet normal 0.634539 -0.767514 -0.091007
outer loop
vertex -15.948962 -11.631488 165.085419
vertex -14.860093 -12.948656 183.785492
vertex -15.418598 -12.301704 174.435455
endloop
endfacet
facet normal 0.757467 0.652781 0.011002
outer loop
vertex -17.120535 -10.010557 165.085419
vertex -16.165735 -11.433632 183.785492
vertex -14.860093 -12.948656 183.785492
endloop
endfacet
facet normal 0.810452 0.585776 -0.005931
outer loop
vertex -15.948962 -11.631488 165.085419
vertex -17.120535 -10.010557 165.085419
vertex -14.860093 -12.948656 183.785492
endloop
endfacet
facet normal -0.582837 0.806387 0.100207
outer loop
vertex -17.120535 -10.010557 165.085419
vertex -18.741467 -11.182129 165.085419
vertex -17.680759 -12.739275 183.785492
endloop
endfacet
facet normal -0.650136 0.754396 0.090605
outer loop
vertex -17.680759 -12.739275 183.785492
vertex -16.165735 -11.433632 183.785492
vertex -17.120535 -10.010557 165.085419
endloop
endfacet
facet normal -0.810368 -0.585717 0.015448
outer loop
vertex -18.741467 -11.182129 165.085419
vertex -16.398321 -14.423991 165.085419
vertex -15.069474 -15.769321 183.785492
endloop
endfacet
facet normal -0.757463 -0.652779 -0.011392
outer loop
vertex -15.069474 -15.769321 183.785492
vertex -17.680759 -12.739275 183.785492
vertex -18.741467 -11.182129 165.085419
endloop
endfacet
facet normal 0.757468 0.652783 0.010824
outer loop
vertex 18.261045 12.954821 183.785492
vertex 15.649759 15.984868 183.785492
vertex 14.456405 17.100737 200.000000
endloop
endfacet
facet normal 0.707028 0.707029 -0.014881
outer loop
vertex 14.456405 17.100737 200.000000
vertex 17.284832 14.272310 200.000000
vertex 18.261045 12.954821 183.785492
endloop
endfacet
facet normal -0.650133 0.754391 -0.090672
outer loop
vertex 15.649759 15.984868 183.785492
vertex 14.134736 14.679225 183.785492
vertex 13.042192 15.686524 200.000000
endloop
endfacet
facet normal -0.703548 0.703548 -0.100197
outer loop
vertex 13.042192 15.686524 200.000000
vertex 14.456405 17.100737 200.000000
vertex 15.649759 15.984868 183.785492
endloop
endfacet
facet normal -0.707102 -0.707102 -0.003718
outer loop
vertex 14.134736 14.679225 183.785492
vertex 14.456405 14.272310 200.000000
vertex 13.042192 15.686524 200.000000
endloop
endfacet
facet normal 0.661298 -0.744582 0.091011
outer loop
vertex 15.440379 13.164201 183.785492
vertex 14.958656 13.727372 191.892746
vertex 14.456405 14.272310 200.000000
endloop
endfacet
facet normal -0.757511 -0.652821 -0.001355
outer loop
vertex 14.134736 14.679225 183.785492
vertex 15.440379 13.164201 183.785492
vertex 14.456405 14.272310 200.000000
endloop
endfacet
facet normal -0.677610 0.729775 0.090956
outer loop
vertex 0.302414 0.118750 191.892746
vertex -14.353828 -13.489871 191.892746
vertex -13.827866 -14.011960 200.000000
endloop
endfacet
facet normal -0.707107 0.707106 0.000038
outer loop
vertex -13.827866 -14.011960 200.000000
vertex 0.314270 0.130175 200.000000
vertex 0.302414 0.118750 191.892746
endloop
endfacet
facet normal 0.693706 -0.714484 -0.091015
outer loop
vertex -14.860093 -12.948656 183.785492
vertex -13.827866 -14.011960 200.000000
vertex -14.353828 -13.489871 191.892746
endloop
endfacet
facet normal 0.707068 0.707067 0.010486
outer loop
vertex -16.165735 -11.433632 183.785492
vertex -15.242080 -12.597747 200.000000
vertex -13.827866 -14.011960 200.000000
endloop
endfacet
facet normal 0.757501 0.652811 -0.005413
outer loop
vertex -14.860093 -12.948656 183.785492
vertex -16.165735 -11.433632 183.785492
vertex -13.827866 -14.011960 200.000000
endloop
endfacet
facet normal -0.649536 0.753700 0.100197
outer loop
vertex -16.165735 -11.433632 183.785492
vertex -17.680759 -12.739275 183.785492
vertex -16.656292 -14.011959 200.000000
endloop
endfacet
facet normal -0.704194 0.704194 0.090672
outer loop
vertex -16.656292 -14.011959 200.000000
vertex -15.242080 -12.597747 200.000000
vertex -16.165735 -11.433632 183.785492
endloop
endfacet
facet normal -0.757428 -0.652750 0.014881
outer loop
vertex -17.680759 -12.739275 183.785492
vertex -15.069474 -15.769321 183.785492
vertex -13.827866 -16.840387 200.000000
endloop
endfacet
facet normal -0.707066 -0.707065 -0.010824
outer loop
vertex -13.827866 -16.840387 200.000000
vertex -16.656292 -14.011959 200.000000
vertex -17.680759 -12.739275 183.785492
endloop
endfacet
facet normal -0.680431 0.732812 -0.000038
outer loop
vertex 14.958656 13.727372 191.892746
vertex 0.302414 0.118750 191.892746
vertex 0.314270 0.130175 200.000000
endloop
endfacet
facet normal -0.704176 0.704176 -0.090956
outer loop
vertex 0.314270 0.130175 200.000000
vertex 14.456405 14.272310 200.000000
vertex 14.958656 13.727372 191.892746
endloop
endfacet
facet normal -0.652822 0.757511 -0.000038
outer loop
vertex 15.440379 13.164201 183.785492
vertex 0.290143 0.107773 183.785492
vertex 0.302414 0.118750 191.892746
endloop
endfacet
facet normal -0.677610 0.729775 -0.090957
outer loop
vertex 0.302414 0.118750 191.892746
vertex 14.958656 13.727372 191.892746
vertex 15.440379 13.164201 183.785492
endloop
endfacet
facet normal -0.650116 0.754372 0.090957
outer loop
vertex 0.290143 0.107773 183.785492
vertex -14.860093 -12.948656 183.785492
vertex -14.353828 -13.489871 191.892746
endloop
endfacet
facet normal -0.680431 0.732812 0.000038
outer loop
vertex -14.353828 -13.489871 191.892746
vertex 0.302414 0.118750 191.892746
vertex 0.290143 0.107773 183.785492
endloop
endfacet
facet normal -0.619870 0.784705 -0.000043
outer loop
vertex 15.969594 12.493079 174.435455
vertex 0.275498 0.095687 174.435455
vertex 0.290143 0.107773 183.785492
endloop
endfacet
facet normal -0.650116 0.754373 -0.090944
outer loop
vertex 0.290143 0.107773 183.785492
vertex 15.440379 13.164201 183.785492
vertex 15.969594 12.493079 174.435455
endloop
endfacet
facet normal -0.585787 0.810465 -0.000043
outer loop
vertex 16.469662 11.799963 165.085419
vertex 0.260349 0.084238 165.085419
vertex 0.275498 0.095687 174.435455
endloop
endfacet
facet normal -0.617301 0.781453 -0.090944
outer loop
vertex 0.275498 0.095687 174.435455
vertex 15.969594 12.493079 174.435455
vertex 16.469662 11.799963 165.085419
endloop
endfacet
facet normal -0.583358 0.807108 0.090944
outer loop
vertex 0.260349 0.084238 165.085419
vertex -15.948962 -11.631488 165.085419
vertex -15.418598 -12.301704 174.435455
endloop
endfacet
facet normal -0.619870 0.784704 0.000043
outer loop
vertex -15.418598 -12.301704 174.435455
vertex 0.275498 0.095687 174.435455
vertex 0.260349 0.084238 165.085419
endloop
endfacet
facet normal -0.547064 0.837091 -0.000048
outer loop
vertex 16.984955 11.013687 154.800903
vertex 0.243140 0.072404 154.800903
vertex 0.260349 0.084238 165.085419
endloop
endfacet
facet normal -0.583359 0.807108 -0.090934
outer loop
vertex 0.260349 0.084238 165.085419
vertex 16.469662 11.799963 165.085419
vertex 16.984955 11.013687 154.800903
endloop
endfacet
facet normal -0.507134 0.861867 -0.000048
outer loop
vertex 17.462738 10.204073 144.516403
vertex 0.225393 0.061392 144.516403
vertex 0.243140 0.072404 154.800903
endloop
endfacet
facet normal -0.544798 0.833622 -0.090934
outer loop
vertex 0.243140 0.072404 154.800903
vertex 16.984955 11.013687 154.800903
vertex 17.462738 10.204073 144.516403
endloop
endfacet
facet normal -0.505033 0.858297 0.090934
outer loop
vertex 0.225393 0.061392 144.516403
vertex -17.011951 -10.081288 144.516403
vertex -16.498674 -10.868878 154.800903
endloop
endfacet
facet normal -0.547064 0.837090 0.000048
outer loop
vertex -16.498674 -10.868878 154.800903
vertex 0.243140 0.072404 154.800903
vertex 0.225393 0.061392 144.516403
endloop
endfacet
facet normal -0.463550 0.886071 -0.000051
outer loop
vertex 17.927433 9.321645 133.605743
vertex 0.206022 0.050635 133.605743
vertex 0.225393 0.061392 144.516403
endloop
endfacet
facet normal -0.505034 0.858297 -0.090927
outer loop
vertex 0.225393 0.061392 144.516403
vertex 17.462738 10.204073 144.516403
vertex 17.927433 9.321645 133.605743
endloop
endfacet
facet normal -0.418815 0.908072 -0.000051
outer loop
vertex 18.347572 8.417153 122.695084
vertex 0.186140 0.040857 122.695084
vertex 0.206022 0.050635 133.605743
endloop
endfacet
facet normal -0.461630 0.882400 -0.090927
outer loop
vertex 0.206022 0.050635 133.605743
vertex 17.927433 9.321645 133.605743
vertex 18.347572 8.417153 122.695084
endloop
endfacet
facet normal -0.417080 0.904310 0.090927
outer loop
vertex 0.186140 0.040857 122.695084
vertex -17.975292 -8.335440 122.695084
vertex -17.515388 -9.220374 133.605743
endloop
endfacet
facet normal -0.463551 0.886070 0.000051
outer loop
vertex -17.515388 -9.220374 133.605743
vertex 0.206022 0.050635 133.605743
vertex 0.186140 0.040857 122.695084
endloop
endfacet
facet normal -0.371691 0.928357 -0.000052
outer loop
vertex 18.732330 7.465649 111.466576
vertex 0.165196 0.031841 111.466576
vertex 0.186140 0.040857 122.695084
endloop
endfacet
facet normal -0.417080 0.904310 -0.090923
outer loop
vertex 0.186140 0.040857 122.695084
vertex 18.347572 8.417153 122.695084
vertex 18.732330 7.465649 111.466576
endloop
endfacet
facet normal -0.323588 0.946198 -0.000052
outer loop
vertex 19.067781 6.495662 100.238068
vertex 0.143817 0.023912 100.238068
vertex 0.165196 0.031841 111.466576
endloop
endfacet
facet normal -0.370151 0.924511 -0.090923
outer loop
vertex 0.165196 0.031841 111.466576
vertex 18.732330 7.465649 111.466576
vertex 19.067781 6.495662 100.238068
endloop
endfacet
facet normal -0.322247 0.942279 0.090923
outer loop
vertex 0.143817 0.023912 100.238068
vertex -18.780148 -6.447838 100.238068
vertex -18.401939 -7.401966 111.466576
endloop
endfacet
facet normal -0.371690 0.928357 0.000052
outer loop
vertex -18.401939 -7.401966 111.466576
vertex 0.165196 0.031841 111.466576
vertex 0.143817 0.023912 100.238068
endloop
endfacet
facet normal -0.274591 0.961561 -0.000052
outer loop
vertex 19.353262 5.508906 89.000046
vertex 0.122040 0.017084 89.000046
vertex 0.143817 0.023912 100.238068
endloop
endfacet
facet normal -0.322247 0.942279 -0.090923
outer loop
vertex 0.143817 0.023912 100.238068
vertex 19.067781 6.495662 100.238068
vertex 19.353262 5.508906 89.000046
endloop
endfacet
facet normal -0.224871 0.974389 -0.000052
outer loop
vertex 19.587715 4.508795 77.762016
vertex 0.099942 0.011383 77.762016
vertex 0.122040 0.017084 89.000046
endloop
endfacet
facet normal -0.273454 0.957578 -0.090923
outer loop
vertex 0.122040 0.017084 89.000046
vertex 19.353262 5.508906 89.000046
vertex 19.587715 4.508795 77.762016
endloop
endfacet
facet normal -0.223939 0.970353 0.090923
outer loop
vertex 0.099942 0.011383 77.762016
vertex -19.387829 -4.486030 77.762016
vertex -19.109180 -5.474738 89.000046
endloop
endfacet
facet normal -0.274591 0.961561 0.000052
outer loop
vertex -19.109180 -5.474738 89.000046
vertex 0.122040 0.017084 89.000046
vertex 0.099942 0.011383 77.762016
endloop
endfacet
facet normal -0.175902 0.984408 -0.000051
outer loop
vertex 19.766335 3.524961 66.822784
vertex 0.078178 0.006930 66.822784
vertex 0.099942 0.011383 77.762016
endloop
endfacet
facet normal -0.223939 0.970352 -0.090926
outer loop
vertex 0.099942 0.011383 77.762016
vertex 19.587715 4.508795 77.762016
vertex 19.766335 3.524961 66.822784
endloop
endfacet
facet normal -0.126493 0.991967 -0.000051
outer loop
vertex 19.895569 2.533430 55.883545
vertex 0.056219 0.003570 55.883545
vertex 0.078178 0.006930 66.822784
endloop
endfacet
facet normal -0.175173 0.980330 -0.090926
outer loop
vertex 0.078178 0.006930 66.822784
vertex 19.766335 3.524961 66.822784
vertex 19.895569 2.533430 55.883545
endloop
endfacet
facet normal -0.125969 0.987858 0.090926
outer loop
vertex 0.056219 0.003570 55.883545
vertex -19.783131 -2.526289 55.883545
vertex -19.609978 -3.511101 66.822784
endloop
endfacet
facet normal -0.175902 0.984408 0.000051
outer loop
vertex -19.609978 -3.511101 66.822784
vertex 0.078178 0.006930 66.822784
vertex 0.056219 0.003570 55.883545
endloop
endfacet
facet normal -0.079534 0.996832 -0.000048
outer loop
vertex 19.971991 1.592092 45.551422
vertex 0.035349 0.001408 45.551422
vertex 0.056219 0.003570 55.883545
endloop
endfacet
facet normal -0.125969 0.987858 -0.090933
outer loop
vertex 0.056219 0.003570 55.883545
vertex 19.895569 2.533430 55.883545
vertex 19.971991 1.592092 45.551422
endloop
endfacet
facet normal -0.032398 0.999475 -0.000048
outer loop
vertex 20.003901 0.648197 35.219299
vertex 0.014399 0.000233 35.219299
vertex 0.035349 0.001408 45.551422
endloop
endfacet
facet normal -0.079205 0.992702 -0.090933
outer loop
vertex 0.035349 0.001408 45.551422
vertex 19.971991 1.592092 45.551422
vertex 20.003901 0.648197 35.219299
endloop
endfacet
facet normal -0.032264 0.995334 0.090933
outer loop
vertex 0.014399 0.000233 35.219299
vertex -19.975101 -0.647731 35.219299
vertex -19.901295 -1.589277 45.551422
endloop
endfacet
facet normal -0.079534 0.996832 0.000048
outer loop
vertex -19.901295 -1.589277 45.551422
vertex 0.035349 0.001408 45.551422
vertex 0.014399 0.000233 35.219299
endloop
endfacet
facet normal 0.000000 1.000000 -0.000025
outer loop
vertex 20.000000 0.000000 25.802612
vertex 0.000000 0.000000 25.802612
vertex 0.014399 0.000233 35.219299
endloop
endfacet
facet normal -0.032322 0.997119 -0.068623
outer loop
vertex 0.014399 0.000233 35.219299
vertex 20.003901 0.648197 35.219299
vertex 20.000000 0.000000 25.802612
endloop
endfacet
facet normal 0.000000 1.000000 0.000000
outer loop
vertex 20.000000 0.000000 16.385910
vertex 0.000000 0.000000 16.385910
vertex 0.000000 0.000000 25.802612
endloop
endfacet
facet normal 0.000000 1.000000 0.000000
outer loop
vertex 0.000000 0.000000 25.802612
vertex 20.000000 0.000000 25.802612
vertex 20.000000 0.000000 16.385910
endloop
endfacet
facet normal 0.000000 1.000000 0.000000
outer loop
vertex 0.000000 0.000000 16.385910
vertex -20.000000 0.000000 16.385910
vertex -20.000000 0.000000 25.802612
endloop
endfacet
facet normal 0.000000 1.000000 0.000000
outer loop
vertex -20.000000 0.000000 25.802612
vertex 0.000000 0.000000 25.802612
vertex 0.000000 0.000000 16.385910
endloop
endfacet
facet normal 0.000000 1.000000 0.000000
outer loop
vertex 20.000000 0.000000 8.192947
vertex 0.000000 0.000000 8.192947
vertex 0.000000 0.000000 16.385910
endloop
endfacet
facet normal 0.000000 1.000000 0.000000
outer loop
vertex 0.000000 0.000000 16.385910
vertex 20.000000 0.000000 16.385910
vertex 20.000000 0.000000 8.192947
endloop
endfacet
facet normal 0.000000 1.000000 0.000000
outer loop
vertex 20.000000 0.000000 0.000000
vertex 0.000000 0.000000 0.000000
vertex 0.000000 0.000000 8.192947
endloop
endfacet
facet normal 0.000000 1.000000 0.000000
outer loop
vertex 0.000000 0.000000 8.192947
vertex 20.000000 0.000000 8.192947
vertex 20.000000 0.000000 0.000000
endloop
endfacet
facet normal 0.000000 1.000000 0.000000
outer loop
vertex 0.000000 0.000000 0.000000
vertex -20.000000 0.000000 0.000000
vertex -20.000000 0.000000 8.192947
endloop
endfacet
facet normal 0.000000 1.000000 0.000000
outer loop
vertex -20.000000 0.000000 8.192947
vertex 0.000000 0.000000 8.192947
vertex 0.000000 0.000000 0.000000
endloop
endfacet
endsolid Exported from Blender-2.75 (sub 0)
