solid Exported from Blender-2.75 (sub 0)
facet normal 0.000000 0.000000 -1.000000
outer loop
vertex 334.406128 16.385908 -2.000000
vertex 290.406128 16.385908 -2.000000
vertex 290.406128 35.219299 -2.000000
endloop
endfacet
facet normal 0.000000 0.000000 -1.000000
outer loop
vertex 290.406128 35.219299 -2.000000
vertex 334.406128 35.219299 -2.000000
vertex 334.406128 16.385908 -2.000000
endloop
endfacet
facet normal 0.000000 0.000000 -1.000000
outer loop
vertex 334.406128 35.219299 -2.000000
vertex 290.406128 35.219299 -2.000000
vertex 290.406128 55.883549 -2.000000
endloop
endfacet
facet normal 0.000000 0.000000 -1.000000
outer loop
vertex 290.406128 55.883549 -2.000000
vertex 334.406128 55.883549 -2.000000
vertex 334.406128 35.219299 -2.000000
endloop
endfacet
facet normal 0.000000 0.000000 -1.000000
outer loop
vertex 334.406128 55.883549 -2.000000
vertex 290.406128 55.883549 -2.000000
vertex 290.406128 77.762016 -2.000000
endloop
endfacet
facet normal 0.000000 0.000000 -1.000000
outer loop
vertex 290.406128 77.762016 -2.000000
vertex 334.406128 77.762016 -2.000000
vertex 334.406128 55.883549 -2.000000
endloop
endfacet
facet normal 0.000000 0.000000 -1.000000
outer loop
vertex 334.406128 77.762016 -2.000000
vertex 290.406128 77.762016 -2.000000
vertex 290.406128 100.238068 -2.000000
endloop
endfacet
facet normal 0.000000 0.000000 -1.000000
outer loop
vertex 290.406128 100.238068 -2.000000
vertex 334.406128 100.238068 -2.000000
vertex 334.406128 77.762016 -2.000000
endloop
endfacet
facet normal 0.000000 0.000000 -1.000000
outer loop
vertex 334.406128 100.238068 -2.000000
vertex 290.406128 100.238068 -2.000000
vertex 290.406128 122.695084 -2.000000
endloop
endfacet
facet normal 0.000000 0.000000 -1.000000
outer loop
vertex 290.406128 122.695084 -2.000000
vertex 334.406128 122.695084 -2.000000
vertex 334.406128 100.238068 -2.000000
endloop
endfacet
facet normal 0.000000 0.000000 -1.000000
outer loop
vertex 334.406128 122.695084 -2.000000
vertex 290.406128 122.695084 -2.000000
vertex 290.406128 144.516403 -2.000000
endloop
endfacet
facet normal 0.000000 0.000000 -1.000000
outer loop
vertex 290.406128 144.516403 -2.000000
vertex 334.406128 144.516403 -2.000000
vertex 334.406128 122.695084 -2.000000
endloop
endfacet
facet normal 0.000000 0.000000 -1.000000
outer loop
vertex 334.406128 144.516403 -2.000000
vertex 290.406128 144.516403 -2.000000
vertex 290.406128 165.085419 -2.000000
endloop
endfacet
facet normal 0.000000 0.000000 -1.000000
outer loop
vertex 290.406128 165.085419 -2.000000
vertex 334.406128 165.085419 -2.000000
vertex 334.406128 144.516403 -2.000000
endloop
endfacet
facet normal 0.000000 0.000000 -1.000000
outer loop
vertex 334.406128 165.085419 -2.000000
vertex 290.406128 165.085419 -2.000000
vertex 290.406128 183.785492 -2.000000
endloop
endfacet
facet normal 0.000000 0.000000 -1.000000
outer loop
vertex 290.406128 183.785492 -2.000000
vertex 334.406128 183.785492 -2.000000
vertex 334.406128 165.085419 -2.000000
endloop
endfacet
facet normal 0.000000 0.000000 -1.000000
outer loop
vertex 334.406128 183.785492 -2.000000
vertex 290.406128 183.785492 -2.000000
vertex 290.406128 200.000000 -2.000000
endloop
endfacet
facet normal 0.000000 0.000000 -1.000000
outer loop
vertex 290.406128 200.000000 -2.000000
vertex 334.406128 200.000000 -2.000000
vertex 334.406128 183.785492 -2.000000
endloop
endfacet
facet normal 0.000000 1.000000 0.000000
outer loop
vertex 334.406128 200.000000 -2.000000
vertex 332.406128 200.000000 2.000000
vertex 334.406128 200.000000 2.000000
endloop
endfacet
facet normal 0.000000 0.000000 0.000000
outer loop
vertex 292.406128 200.000000 0.000000
vertex 312.406128 200.000000 0.000000
vertex 332.406128 200.000000 0.000000
endloop
endfacet
facet normal 0.000000 1.000000 0.000000
outer loop
vertex 334.406128 200.000000 -2.000000
vertex 332.406128 200.000000 0.000000
vertex 332.406128 200.000000 2.000000
endloop
endfacet
facet normal 0.000000 1.000000 0.000000
outer loop
vertex 290.406128 200.000000 -2.000000
vertex 290.406128 200.000000 2.000000
vertex 292.406128 200.000000 2.000000
endloop
endfacet
facet normal 0.000000 1.000000 0.000000
outer loop
vertex 334.406128 200.000000 -2.000000
vertex 290.406128 200.000000 -2.000000
vertex 332.406128 200.000000 0.000000
endloop
endfacet
facet normal 0.000000 1.000000 0.000000
outer loop
vertex 290.406128 200.000000 -2.000000
vertex 292.406128 200.000000 2.000000
vertex 292.406128 200.000000 0.000000
endloop
endfacet
facet normal 0.000000 1.000000 0.000000
outer loop
vertex 290.406128 200.000000 -2.000000
vertex 292.406128 200.000000 0.000000
vertex 332.406128 200.000000 0.000000
endloop
endfacet
facet normal 0.000000 0.000000 -1.000000
outer loop
vertex 334.406128 0.000000 -2.000000
vertex 290.406128 0.000000 -2.000000
vertex 290.406128 16.385908 -2.000000
endloop
endfacet
facet normal 0.000000 0.000000 -1.000000
outer loop
vertex 290.406128 16.385908 -2.000000
vertex 334.406128 16.385908 -2.000000
vertex 334.406128 0.000000 -2.000000
endloop
endfacet
facet normal -1.000000 0.000000 0.000000
outer loop
vertex 290.406128 0.000000 -2.000000
vertex 290.406128 0.000000 2.000000
vertex 290.406128 16.385908 2.000000
endloop
endfacet
facet normal -1.000000 0.000000 0.000000
outer loop
vertex 290.406128 16.385908 2.000000
vertex 290.406128 16.385908 -2.000000
vertex 290.406128 0.000000 -2.000000
endloop
endfacet
facet normal 0.000000 0.000000 1.000000
outer loop
vertex 290.406128 0.000000 2.000000
vertex 292.406128 0.000000 2.000000
vertex 292.406128 16.385908 2.000000
endloop
endfacet
facet normal 0.000000 0.000000 1.000000
outer loop
vertex 292.406128 16.385908 2.000000
vertex 290.406128 16.385908 2.000000
vertex 290.406128 0.000000 2.000000
endloop
endfacet
facet normal 1.000000 0.000000 0.000000
outer loop
vertex 292.406128 0.000000 2.000000
vertex 292.406128 16.385908 0.000000
vertex 292.406128 16.385908 2.000000
endloop
endfacet
facet normal 0.000000 0.000000 0.000000
outer loop
vertex 292.406128 0.000000 0.000000
vertex 292.406128 8.192954 0.000000
vertex 292.406128 16.385908 0.000000
endloop
endfacet
facet normal 1.000000 0.000000 0.000000
outer loop
vertex 292.406128 0.000000 2.000000
vertex 292.406128 0.000000 0.000000
vertex 292.406128 16.385908 0.000000
endloop
endfacet
facet normal 0.000000 0.000000 1.000000
outer loop
vertex 312.406128 8.192954 0.000000
vertex 332.406128 8.192954 0.000000
vertex 332.406128 16.385908 0.000000
endloop
endfacet
facet normal 0.000000 0.000000 1.000000
outer loop
vertex 332.406128 16.385908 0.000000
vertex 312.406128 16.385908 0.000000
vertex 312.406128 8.192954 0.000000
endloop
endfacet
facet normal 0.000000 0.000000 0.000000
outer loop
vertex 332.406128 0.000000 0.000000
vertex 332.406128 16.385908 0.000000
vertex 332.406128 8.192954 0.000000
endloop
endfacet
facet normal -1.000000 0.000000 0.000000
outer loop
vertex 332.406128 0.000000 2.000000
vertex 332.406128 16.385908 2.000000
vertex 332.406128 16.385908 0.000000
endloop
endfacet
facet normal -1.000000 0.000000 0.000000
outer loop
vertex 332.406128 0.000000 0.000000
vertex 332.406128 0.000000 2.000000
vertex 332.406128 16.385908 0.000000
endloop
endfacet
facet normal 0.000000 0.000000 1.000000
outer loop
vertex 332.406128 0.000000 2.000000
vertex 334.406128 0.000000 2.000000
vertex 334.406128 16.385908 2.000000
endloop
endfacet
facet normal 0.000000 0.000000 1.000000
outer loop
vertex 334.406128 16.385908 2.000000
vertex 332.406128 16.385908 2.000000
vertex 332.406128 0.000000 2.000000
endloop
endfacet
facet normal 1.000000 0.000000 0.000000
outer loop
vertex 334.406128 0.000000 2.000000
vertex 334.406128 0.000000 -2.000000
vertex 334.406128 16.385908 -2.000000
endloop
endfacet
facet normal 1.000000 0.000000 0.000000
outer loop
vertex 334.406128 16.385908 -2.000000
vertex 334.406128 16.385908 2.000000
vertex 334.406128 0.000000 2.000000
endloop
endfacet
facet normal -1.000000 0.000000 0.000000
outer loop
vertex 290.406128 16.385908 -2.000000
vertex 290.406128 16.385908 2.000000
vertex 290.406128 35.219299 2.000000
endloop
endfacet
facet normal -1.000000 0.000000 0.000000
outer loop
vertex 290.406128 35.219299 2.000000
vertex 290.406128 35.219299 -2.000000
vertex 290.406128 16.385908 -2.000000
endloop
endfacet
facet normal 0.000000 0.000000 1.000000
outer loop
vertex 290.406128 16.385908 2.000000
vertex 292.406128 16.385908 2.000000
vertex 292.406128 35.219299 2.000000
endloop
endfacet
facet normal 0.000000 0.000000 1.000000
outer loop
vertex 292.406128 35.219299 2.000000
vertex 290.406128 35.219299 2.000000
vertex 290.406128 16.385908 2.000000
endloop
endfacet
facet normal 1.000000 0.000000 0.000000
outer loop
vertex 292.406128 16.385908 2.000000
vertex 292.406128 35.219299 0.000000
vertex 292.406128 35.219299 2.000000
endloop
endfacet
facet normal 0.000000 0.000000 0.000000
outer loop
vertex 292.406128 16.385908 0.000000
vertex 292.406128 25.802605 0.000000
vertex 292.406128 35.219299 0.000000
endloop
endfacet
facet normal 1.000000 0.000000 0.000000
outer loop
vertex 292.406128 16.385908 2.000000
vertex 292.406128 16.385908 0.000000
vertex 292.406128 35.219299 0.000000
endloop
endfacet
facet normal 0.000000 0.000000 1.000000
outer loop
vertex 312.406128 25.802605 0.000000
vertex 332.406128 25.802605 0.000000
vertex 332.406128 35.219299 0.000000
endloop
endfacet
facet normal 0.000000 0.000000 1.000000
outer loop
vertex 332.406128 35.219299 0.000000
vertex 312.406128 35.219299 0.000000
vertex 312.406128 25.802605 0.000000
endloop
endfacet
facet normal 0.000000 0.000000 0.000000
outer loop
vertex 332.406128 16.385908 0.000000
vertex 332.406128 35.219299 0.000000
vertex 332.406128 25.802605 0.000000
endloop
endfacet
facet normal -1.000000 0.000000 0.000000
outer loop
vertex 332.406128 16.385908 2.000000
vertex 332.406128 35.219299 2.000000
vertex 332.406128 35.219299 0.000000
endloop
endfacet
facet normal -1.000000 0.000000 0.000000
outer loop
vertex 332.406128 16.385908 0.000000
vertex 332.406128 16.385908 2.000000
vertex 332.406128 35.219299 0.000000
endloop
endfacet
facet normal 0.000000 0.000000 1.000000
outer loop
vertex 332.406128 16.385908 2.000000
vertex 334.406128 16.385908 2.000000
vertex 334.406128 35.219299 2.000000
endloop
endfacet
facet normal 0.000000 0.000000 1.000000
outer loop
vertex 334.406128 35.219299 2.000000
vertex 332.406128 35.219299 2.000000
vertex 332.406128 16.385908 2.000000
endloop
endfacet
facet normal 1.000000 0.000000 0.000000
outer loop
vertex 334.406128 16.385908 2.000000
vertex 334.406128 16.385908 -2.000000
vertex 334.406128 35.219299 -2.000000
endloop
endfacet
facet normal 1.000000 0.000000 0.000000
outer loop
vertex 334.406128 35.219299 -2.000000
vertex 334.406128 35.219299 2.000000
vertex 334.406128 16.385908 2.000000
endloop
endfacet
facet normal -1.000000 0.000000 0.000000
outer loop
vertex 290.406128 35.219299 -2.000000
vertex 290.406128 35.219299 2.000000
vertex 290.406128 55.883549 2.000000
endloop
endfacet
facet normal -1.000000 0.000000 0.000000
outer loop
vertex 290.406128 55.883549 2.000000
vertex 290.406128 55.883549 -2.000000
vertex 290.406128 35.219299 -2.000000
endloop
endfacet
facet normal 0.000000 0.000000 1.000000
outer loop
vertex 290.406128 35.219299 2.000000
vertex 292.406128 35.219299 2.000000
vertex 292.406128 55.883549 2.000000
endloop
endfacet
facet normal 0.000000 0.000000 1.000000
outer loop
vertex 292.406128 55.883549 2.000000
vertex 290.406128 55.883549 2.000000
vertex 290.406128 35.219299 2.000000
endloop
endfacet
facet normal 1.000000 0.000000 0.000000
outer loop
vertex 292.406128 35.219299 2.000000
vertex 292.406128 55.883549 0.000000
vertex 292.406128 55.883549 2.000000
endloop
endfacet
facet normal 0.000000 0.000000 0.000000
outer loop
vertex 292.406128 35.219299 0.000000
vertex 292.406128 45.551422 0.000000
vertex 292.406128 55.883549 0.000000
endloop
endfacet
facet normal 1.000000 0.000000 0.000000
outer loop
vertex 292.406128 35.219299 2.000000
vertex 292.406128 35.219299 0.000000
vertex 292.406128 55.883549 0.000000
endloop
endfacet
facet normal 0.000000 0.000000 1.000000
outer loop
vertex 312.406128 45.551422 0.000000
vertex 332.406128 45.551422 0.000000
vertex 332.406128 55.883549 0.000000
endloop
endfacet
facet normal 0.000000 0.000000 1.000000
outer loop
vertex 332.406128 55.883549 0.000000
vertex 312.406128 55.883549 0.000000
vertex 312.406128 45.551422 0.000000
endloop
endfacet
facet normal 0.000000 0.000000 0.000000
outer loop
vertex 332.406128 35.219299 0.000000
vertex 332.406128 55.883549 0.000000
vertex 332.406128 45.551422 0.000000
endloop
endfacet
facet normal -1.000000 0.000000 0.000000
outer loop
vertex 332.406128 35.219299 2.000000
vertex 332.406128 55.883549 2.000000
vertex 332.406128 55.883549 0.000000
endloop
endfacet
facet normal -1.000000 0.000000 0.000000
outer loop
vertex 332.406128 35.219299 0.000000
vertex 332.406128 35.219299 2.000000
vertex 332.406128 55.883549 0.000000
endloop
endfacet
facet normal 0.000000 0.000000 1.000000
outer loop
vertex 332.406128 35.219299 2.000000
vertex 334.406128 35.219299 2.000000
vertex 334.406128 55.883549 2.000000
endloop
endfacet
facet normal 0.000000 0.000000 1.000000
outer loop
vertex 334.406128 55.883549 2.000000
vertex 332.406128 55.883549 2.000000
vertex 332.406128 35.219299 2.000000
endloop
endfacet
facet normal 1.000000 0.000000 0.000000
outer loop
vertex 334.406128 35.219299 2.000000
vertex 334.406128 35.219299 -2.000000
vertex 334.406128 55.883549 -2.000000
endloop
endfacet
facet normal 1.000000 0.000000 0.000000
outer loop
vertex 334.406128 55.883549 -2.000000
vertex 334.406128 55.883549 2.000000
vertex 334.406128 35.219299 2.000000
endloop
endfacet
facet normal -1.000000 0.000000 0.000000
outer loop
vertex 290.406128 55.883549 -2.000000
vertex 290.406128 55.883549 2.000000
vertex 290.406128 77.762016 2.000000
endloop
endfacet
facet normal -1.000000 0.000000 0.000000
outer loop
vertex 290.406128 77.762016 2.000000
vertex 290.406128 77.762016 -2.000000
vertex 290.406128 55.883549 -2.000000
endloop
endfacet
facet normal 0.000000 0.000000 1.000000
outer loop
vertex 290.406128 55.883549 2.000000
vertex 292.406128 55.883549 2.000000
vertex 292.406128 77.762016 2.000000
endloop
endfacet
facet normal 0.000000 0.000000 1.000000
outer loop
vertex 292.406128 77.762016 2.000000
vertex 290.406128 77.762016 2.000000
vertex 290.406128 55.883549 2.000000
endloop
endfacet
facet normal 1.000000 0.000000 0.000000
outer loop
vertex 292.406128 55.883549 2.000000
vertex 292.406128 77.762016 0.000000
vertex 292.406128 77.762016 2.000000
endloop
endfacet
facet normal 0.000000 0.000000 0.000000
outer loop
vertex 292.406128 55.883549 0.000000
vertex 292.406128 66.822784 0.000000
vertex 292.406128 77.762016 0.000000
endloop
endfacet
facet normal 1.000000 0.000000 0.000000
outer loop
vertex 292.406128 55.883549 2.000000
vertex 292.406128 55.883549 0.000000
vertex 292.406128 77.762016 0.000000
endloop
endfacet
facet normal 0.000000 0.000000 1.000000
outer loop
vertex 312.406128 66.822784 0.000000
vertex 332.406128 66.822784 0.000000
vertex 332.406128 77.762016 0.000000
endloop
endfacet
facet normal 0.000000 0.000000 1.000000
outer loop
vertex 332.406128 77.762016 0.000000
vertex 312.406128 77.762016 0.000000
vertex 312.406128 66.822784 0.000000
endloop
endfacet
facet normal 0.000000 0.000000 0.000000
outer loop
vertex 332.406128 55.883549 0.000000
vertex 332.406128 77.762016 0.000000
vertex 332.406128 66.822784 0.000000
endloop
endfacet
facet normal -1.000000 0.000000 0.000000
outer loop
vertex 332.406128 55.883549 2.000000
vertex 332.406128 77.762016 2.000000
vertex 332.406128 77.762016 0.000000
endloop
endfacet
facet normal -1.000000 0.000000 0.000000
outer loop
vertex 332.406128 55.883549 0.000000
vertex 332.406128 55.883549 2.000000
vertex 332.406128 77.762016 0.000000
endloop
endfacet
facet normal 0.000000 0.000000 1.000000
outer loop
vertex 332.406128 55.883549 2.000000
vertex 334.406128 55.883549 2.000000
vertex 334.406128 77.762016 2.000000
endloop
endfacet
facet normal 0.000000 0.000000 1.000000
outer loop
vertex 334.406128 77.762016 2.000000
vertex 332.406128 77.762016 2.000000
vertex 332.406128 55.883549 2.000000
endloop
endfacet
facet normal 1.000000 0.000000 0.000000
outer loop
vertex 334.406128 55.883549 2.000000
vertex 334.406128 55.883549 -2.000000
vertex 334.406128 77.762016 -2.000000
endloop
endfacet
facet normal 1.000000 0.000000 0.000000
outer loop
vertex 334.406128 77.762016 -2.000000
vertex 334.406128 77.762016 2.000000
vertex 334.406128 55.883549 2.000000
endloop
endfacet
facet normal -1.000000 0.000000 0.000000
outer loop
vertex 290.406128 77.762016 -2.000000
vertex 290.406128 77.762016 2.000000
vertex 290.406128 100.238068 2.000000
endloop
endfacet
facet normal -1.000000 0.000000 0.000000
outer loop
vertex 290.406128 100.238068 2.000000
vertex 290.406128 100.238068 -2.000000
vertex 290.406128 77.762016 -2.000000
endloop
endfacet
facet normal 0.000000 0.000000 1.000000
outer loop
vertex 290.406128 77.762016 2.000000
vertex 292.406128 77.762016 2.000000
vertex 292.406128 100.238068 2.000000
endloop
endfacet
facet normal 0.000000 0.000000 1.000000
outer loop
vertex 292.406128 100.238068 2.000000
vertex 290.406128 100.238068 2.000000
vertex 290.406128 77.762016 2.000000
endloop
endfacet
facet normal 1.000000 0.000000 0.000000
outer loop
vertex 292.406128 77.762016 2.000000
vertex 292.406128 100.238068 0.000000
vertex 292.406128 100.238068 2.000000
endloop
endfacet
facet normal 0.000000 0.000000 0.000000
outer loop
vertex 292.406128 77.762016 0.000000
vertex 292.406128 89.000046 0.000000
vertex 292.406128 100.238068 0.000000
endloop
endfacet
facet normal 1.000000 0.000000 0.000000
outer loop
vertex 292.406128 77.762016 2.000000
vertex 292.406128 77.762016 0.000000
vertex 292.406128 100.238068 0.000000
endloop
endfacet
facet normal 0.000000 0.000000 1.000000
outer loop
vertex 312.406128 89.000046 0.000000
vertex 332.406128 89.000046 0.000000
vertex 332.406128 100.238068 0.000000
endloop
endfacet
facet normal 0.000000 0.000000 1.000000
outer loop
vertex 332.406128 100.238068 0.000000
vertex 312.406128 100.238068 0.000000
vertex 312.406128 89.000046 0.000000
endloop
endfacet
facet normal 0.000000 0.000000 0.000000
outer loop
vertex 332.406128 77.762016 0.000000
vertex 332.406128 100.238068 0.000000
vertex 332.406128 89.000046 0.000000
endloop
endfacet
facet normal -1.000000 0.000000 0.000000
outer loop
vertex 332.406128 77.762016 2.000000
vertex 332.406128 100.238068 2.000000
vertex 332.406128 100.238068 0.000000
endloop
endfacet
facet normal -1.000000 0.000000 0.000000
outer loop
vertex 332.406128 77.762016 0.000000
vertex 332.406128 77.762016 2.000000
vertex 332.406128 100.238068 0.000000
endloop
endfacet
facet normal 0.000000 0.000000 1.000000
outer loop
vertex 332.406128 77.762016 2.000000
vertex 334.406128 77.762016 2.000000
vertex 334.406128 100.238068 2.000000
endloop
endfacet
facet normal 0.000000 0.000000 1.000000
outer loop
vertex 334.406128 100.238068 2.000000
vertex 332.406128 100.238068 2.000000
vertex 332.406128 77.762016 2.000000
endloop
endfacet
facet normal 1.000000 0.000000 0.000000
outer loop
vertex 334.406128 77.762016 2.000000
vertex 334.406128 77.762016 -2.000000
vertex 334.406128 100.238068 -2.000000
endloop
endfacet
facet normal 1.000000 0.000000 0.000000
outer loop
vertex 334.406128 100.238068 -2.000000
vertex 334.406128 100.238068 2.000000
vertex 334.406128 77.762016 2.000000
endloop
endfacet
facet normal -1.000000 0.000000 0.000000
outer loop
vertex 290.406128 100.238068 -2.000000
vertex 290.406128 100.238068 2.000000
vertex 290.406128 122.695084 2.000000
endloop
endfacet
facet normal -1.000000 0.000000 0.000000
outer loop
vertex 290.406128 122.695084 2.000000
vertex 290.406128 122.695084 -2.000000
vertex 290.406128 100.238068 -2.000000
endloop
endfacet
facet normal 0.000000 0.000000 1.000000
outer loop
vertex 290.406128 100.238068 2.000000
vertex 292.406128 100.238068 2.000000
vertex 292.406128 122.695084 2.000000
endloop
endfacet
facet normal 0.000000 0.000000 1.000000
outer loop
vertex 292.406128 122.695084 2.000000
vertex 290.406128 122.695084 2.000000
vertex 290.406128 100.238068 2.000000
endloop
endfacet
facet normal 1.000000 0.000000 0.000000
outer loop
vertex 292.406128 100.238068 2.000000
vertex 292.406128 122.695084 0.000000
vertex 292.406128 122.695084 2.000000
endloop
endfacet
facet normal 0.000000 0.000000 0.000000
outer loop
vertex 292.406128 100.238068 0.000000
vertex 292.406128 111.466576 0.000000
vertex 292.406128 122.695084 0.000000
endloop
endfacet
facet normal 1.000000 0.000000 0.000000
outer loop
vertex 292.406128 100.238068 2.000000
vertex 292.406128 100.238068 0.000000
vertex 292.406128 122.695084 0.000000
endloop
endfacet
facet normal 0.000000 0.000000 1.000000
outer loop
vertex 312.406128 111.466576 0.000000
vertex 332.406128 111.466576 0.000000
vertex 332.406128 122.695084 0.000000
endloop
endfacet
facet normal 0.000000 0.000000 1.000000
outer loop
vertex 332.406128 122.695084 0.000000
vertex 312.406128 122.695084 0.000000
vertex 312.406128 111.466576 0.000000
endloop
endfacet
facet normal 0.000000 0.000000 0.000000
outer loop
vertex 332.406128 100.238068 0.000000
vertex 332.406128 122.695084 0.000000
vertex 332.406128 111.466576 0.000000
endloop
endfacet
facet normal -1.000000 0.000000 0.000000
outer loop
vertex 332.406128 100.238068 2.000000
vertex 332.406128 122.695084 2.000000
vertex 332.406128 122.695084 0.000000
endloop
endfacet
facet normal -1.000000 0.000000 0.000000
outer loop
vertex 332.406128 100.238068 0.000000
vertex 332.406128 100.238068 2.000000
vertex 332.406128 122.695084 0.000000
endloop
endfacet
facet normal 0.000000 0.000000 1.000000
outer loop
vertex 332.406128 100.238068 2.000000
vertex 334.406128 100.238068 2.000000
vertex 334.406128 122.695084 2.000000
endloop
endfacet
facet normal 0.000000 0.000000 1.000000
outer loop
vertex 334.406128 122.695084 2.000000
vertex 332.406128 122.695084 2.000000
vertex 332.406128 100.238068 2.000000
endloop
endfacet
facet normal 1.000000 0.000000 0.000000
outer loop
vertex 334.406128 100.238068 2.000000
vertex 334.406128 100.238068 -2.000000
vertex 334.406128 122.695084 -2.000000
endloop
endfacet
facet normal 1.000000 0.000000 0.000000
outer loop
vertex 334.406128 122.695084 -2.000000
vertex 334.406128 122.695084 2.000000
vertex 334.406128 100.238068 2.000000
endloop
endfacet
facet normal -1.000000 0.000000 0.000000
outer loop
vertex 290.406128 122.695084 -2.000000
vertex 290.406128 122.695084 2.000000
vertex 290.406128 144.516403 2.000000
endloop
endfacet
facet normal -1.000000 0.000000 0.000000
outer loop
vertex 290.406128 144.516403 2.000000
vertex 290.406128 144.516403 -2.000000
vertex 290.406128 122.695084 -2.000000
endloop
endfacet
facet normal 0.000000 0.000000 1.000000
outer loop
vertex 290.406128 122.695084 2.000000
vertex 292.406128 122.695084 2.000000
vertex 292.406128 144.516403 2.000000
endloop
endfacet
facet normal 0.000000 0.000000 1.000000
outer loop
vertex 292.406128 144.516403 2.000000
vertex 290.406128 144.516403 2.000000
vertex 290.406128 122.695084 2.000000
endloop
endfacet
facet normal 1.000000 0.000000 0.000000
outer loop
vertex 292.406128 122.695084 2.000000
vertex 292.406128 144.516403 0.000000
vertex 292.406128 144.516403 2.000000
endloop
endfacet
facet normal 0.000000 0.000000 0.000000
outer loop
vertex 292.406128 122.695084 0.000000
vertex 292.406128 133.605743 0.000000
vertex 292.406128 144.516403 0.000000
endloop
endfacet
facet normal 1.000000 0.000000 0.000000
outer loop
vertex 292.406128 122.695084 2.000000
vertex 292.406128 122.695084 0.000000
vertex 292.406128 144.516403 0.000000
endloop
endfacet
facet normal 0.000000 0.000000 1.000000
outer loop
vertex 312.406128 133.605743 0.000000
vertex 332.406128 133.605743 0.000000
vertex 332.406128 144.516403 0.000000
endloop
endfacet
facet normal 0.000000 0.000000 1.000000
outer loop
vertex 332.406128 144.516403 0.000000
vertex 312.406128 144.516403 0.000000
vertex 312.406128 133.605743 0.000000
endloop
endfacet
facet normal 0.000000 0.000000 0.000000
outer loop
vertex 332.406128 122.695084 0.000000
vertex 332.406128 144.516403 0.000000
vertex 332.406128 133.605743 0.000000
endloop
endfacet
facet normal -1.000000 0.000000 0.000000
outer loop
vertex 332.406128 122.695084 2.000000
vertex 332.406128 144.516403 2.000000
vertex 332.406128 144.516403 0.000000
endloop
endfacet
facet normal -1.000000 0.000000 0.000000
outer loop
vertex 332.406128 122.695084 0.000000
vertex 332.406128 122.695084 2.000000
vertex 332.406128 144.516403 0.000000
endloop
endfacet
facet normal 0.000000 0.000000 1.000000
outer loop
vertex 332.406128 122.695084 2.000000
vertex 334.406128 122.695084 2.000000
vertex 334.406128 144.516403 2.000000
endloop
endfacet
facet normal 0.000000 0.000000 1.000000
outer loop
vertex 334.406128 144.516403 2.000000
vertex 332.406128 144.516403 2.000000
vertex 332.406128 122.695084 2.000000
endloop
endfacet
facet normal 1.000000 0.000000 0.000000
outer loop
vertex 334.406128 122.695084 2.000000
vertex 334.406128 122.695084 -2.000000
vertex 334.406128 144.516403 -2.000000
endloop
endfacet
facet normal 1.000000 0.000000 0.000000
outer loop
vertex 334.406128 144.516403 -2.000000
vertex 334.406128 144.516403 2.000000
vertex 334.406128 122.695084 2.000000
endloop
endfacet
facet normal -1.000000 0.000000 0.000000
outer loop
vertex 290.406128 144.516403 -2.000000
vertex 290.406128 144.516403 2.000000
vertex 290.406128 165.085419 2.000000
endloop
endfacet
facet normal -1.000000 0.000000 0.000000
outer loop
vertex 290.406128 165.085419 2.000000
vertex 290.406128 165.085419 -2.000000
vertex 290.406128 144.516403 -2.000000
endloop
endfacet
facet normal 0.000000 0.000000 1.000000
outer loop
vertex 290.406128 144.516403 2.000000
vertex 292.406128 144.516403 2.000000
vertex 292.406128 165.085419 2.000000
endloop
endfacet
facet normal 0.000000 0.000000 1.000000
outer loop
vertex 292.406128 165.085419 2.000000
vertex 290.406128 165.085419 2.000000
vertex 290.406128 144.516403 2.000000
endloop
endfacet
facet normal 1.000000 0.000000 0.000000
outer loop
vertex 292.406128 144.516403 2.000000
vertex 292.406128 165.085419 0.000000
vertex 292.406128 165.085419 2.000000
endloop
endfacet
facet normal 0.000000 0.000000 0.000000
outer loop
vertex 292.406128 144.516403 0.000000
vertex 292.406128 154.800903 0.000000
vertex 292.406128 165.085419 0.000000
endloop
endfacet
facet normal 1.000000 0.000000 0.000000
outer loop
vertex 292.406128 144.516403 2.000000
vertex 292.406128 144.516403 0.000000
vertex 292.406128 165.085419 0.000000
endloop
endfacet
facet normal 0.000000 0.000000 1.000000
outer loop
vertex 312.406128 154.800903 0.000000
vertex 332.406128 154.800903 0.000000
vertex 332.406128 165.085419 0.000000
endloop
endfacet
facet normal 0.000000 0.000000 1.000000
outer loop
vertex 332.406128 165.085419 0.000000
vertex 312.406128 165.085419 0.000000
vertex 312.406128 154.800903 0.000000
endloop
endfacet
facet normal 0.000000 0.000000 0.000000
outer loop
vertex 332.406128 144.516403 0.000000
vertex 332.406128 165.085419 0.000000
vertex 332.406128 154.800903 0.000000
endloop
endfacet
facet normal -1.000000 0.000000 0.000000
outer loop
vertex 332.406128 144.516403 2.000000
vertex 332.406128 165.085419 2.000000
vertex 332.406128 165.085419 0.000000
endloop
endfacet
facet normal -1.000000 0.000000 0.000000
outer loop
vertex 332.406128 144.516403 0.000000
vertex 332.406128 144.516403 2.000000
vertex 332.406128 165.085419 0.000000
endloop
endfacet
facet normal 0.000000 0.000000 1.000000
outer loop
vertex 332.406128 144.516403 2.000000
vertex 334.406128 144.516403 2.000000
vertex 334.406128 165.085419 2.000000
endloop
endfacet
facet normal 0.000000 0.000000 1.000000
outer loop
vertex 334.406128 165.085419 2.000000
vertex 332.406128 165.085419 2.000000
vertex 332.406128 144.516403 2.000000
endloop
endfacet
facet normal 1.000000 0.000000 0.000000
outer loop
vertex 334.406128 144.516403 2.000000
vertex 334.406128 144.516403 -2.000000
vertex 334.406128 165.085419 -2.000000
endloop
endfacet
facet normal 1.000000 0.000000 0.000000
outer loop
vertex 334.406128 165.085419 -2.000000
vertex 334.406128 165.085419 2.000000
vertex 334.406128 144.516403 2.000000
endloop
endfacet
facet normal -1.000000 0.000000 0.000000
outer loop
vertex 290.406128 165.085419 -2.000000
vertex 290.406128 165.085419 2.000000
vertex 290.406128 183.785492 2.000000
endloop
endfacet
facet normal -1.000000 0.000000 0.000000
outer loop
vertex 290.406128 183.785492 2.000000
vertex 290.406128 183.785492 -2.000000
vertex 290.406128 165.085419 -2.000000
endloop
endfacet
facet normal 0.000000 0.000000 1.000000
outer loop
vertex 290.406128 165.085419 2.000000
vertex 292.406128 165.085419 2.000000
vertex 292.406128 183.785492 2.000000
endloop
endfacet
facet normal 0.000000 0.000000 1.000000
outer loop
vertex 292.406128 183.785492 2.000000
vertex 290.406128 183.785492 2.000000
vertex 290.406128 165.085419 2.000000
endloop
endfacet
facet normal 1.000000 0.000000 0.000000
outer loop
vertex 292.406128 165.085419 2.000000
vertex 292.406128 183.785492 0.000000
vertex 292.406128 183.785492 2.000000
endloop
endfacet
facet normal 0.000000 0.000000 0.000000
outer loop
vertex 292.406128 165.085419 0.000000
vertex 292.406128 174.435455 0.000000
vertex 292.406128 183.785492 0.000000
endloop
endfacet
facet normal 1.000000 0.000000 0.000000
outer loop
vertex 292.406128 165.085419 2.000000
vertex 292.406128 165.085419 0.000000
vertex 292.406128 183.785492 0.000000
endloop
endfacet
facet normal 0.000000 0.000000 1.000000
outer loop
vertex 312.406128 174.435455 0.000000
vertex 332.406128 174.435455 0.000000
vertex 332.406128 183.785492 0.000000
endloop
endfacet
facet normal 0.000000 0.000000 1.000000
outer loop
vertex 332.406128 183.785492 0.000000
vertex 312.406128 183.785492 0.000000
vertex 312.406128 174.435455 0.000000
endloop
endfacet
facet normal 0.000000 0.000000 0.000000
outer loop
vertex 332.406128 165.085419 0.000000
vertex 332.406128 183.785492 0.000000
vertex 332.406128 174.435455 0.000000
endloop
endfacet
facet normal -1.000000 0.000000 0.000000
outer loop
vertex 332.406128 165.085419 2.000000
vertex 332.406128 183.785492 2.000000
vertex 332.406128 183.785492 0.000000
endloop
endfacet
facet normal -1.000000 0.000000 0.000000
outer loop
vertex 332.406128 165.085419 0.000000
vertex 332.406128 165.085419 2.000000
vertex 332.406128 183.785492 0.000000
endloop
endfacet
facet normal 0.000000 0.000000 1.000000
outer loop
vertex 332.406128 165.085419 2.000000
vertex 334.406128 165.085419 2.000000
vertex 334.406128 183.785492 2.000000
endloop
endfacet
facet normal 0.000000 0.000000 1.000000
outer loop
vertex 334.406128 183.785492 2.000000
vertex 332.406128 183.785492 2.000000
vertex 332.406128 165.085419 2.000000
endloop
endfacet
facet normal 1.000000 0.000000 0.000000
outer loop
vertex 334.406128 165.085419 2.000000
vertex 334.406128 165.085419 -2.000000
vertex 334.406128 183.785492 -2.000000
endloop
endfacet
facet normal 1.000000 0.000000 0.000000
outer loop
vertex 334.406128 183.785492 -2.000000
vertex 334.406128 183.785492 2.000000
vertex 334.406128 165.085419 2.000000
endloop
endfacet
facet normal -1.000000 0.000000 0.000000
outer loop
vertex 290.406128 183.785492 -2.000000
vertex 290.406128 183.785492 2.000000
vertex 290.406128 200.000000 2.000000
endloop
endfacet
facet normal -1.000000 0.000000 0.000000
outer loop
vertex 290.406128 200.000000 2.000000
vertex 290.406128 200.000000 -2.000000
vertex 290.406128 183.785492 -2.000000
endloop
endfacet
facet normal 0.000000 0.000000 1.000000
outer loop
vertex 290.406128 183.785492 2.000000
vertex 292.406128 183.785492 2.000000
vertex 292.406128 200.000000 2.000000
endloop
endfacet
facet normal 0.000000 0.000000 1.000000
outer loop
vertex 292.406128 200.000000 2.000000
vertex 290.406128 200.000000 2.000000
vertex 290.406128 183.785492 2.000000
endloop
endfacet
facet normal 1.000000 0.000000 0.000000
outer loop
vertex 292.406128 183.785492 2.000000
vertex 292.406128 200.000000 0.000000
vertex 292.406128 200.000000 2.000000
endloop
endfacet
facet normal 0.000000 0.000000 0.000000
outer loop
vertex 292.406128 183.785492 0.000000
vertex 292.406128 191.892746 0.000000
vertex 292.406128 200.000000 0.000000
endloop
endfacet
facet normal 1.000000 0.000000 0.000000
outer loop
vertex 292.406128 183.785492 2.000000
vertex 292.406128 183.785492 0.000000
vertex 292.406128 200.000000 0.000000
endloop
endfacet
facet normal 0.000000 0.000000 1.000000
outer loop
vertex 312.406128 191.892746 0.000000
vertex 332.406128 191.892746 0.000000
vertex 332.406128 200.000000 0.000000
endloop
endfacet
facet normal 0.000000 0.000000 1.000000
outer loop
vertex 332.406128 200.000000 0.000000
vertex 312.406128 200.000000 0.000000
vertex 312.406128 191.892746 0.000000
endloop
endfacet
facet normal 0.000000 0.000000 0.000000
outer loop
vertex 332.406128 183.785492 0.000000
vertex 332.406128 200.000000 0.000000
vertex 332.406128 191.892746 0.000000
endloop
endfacet
facet normal -1.000000 0.000000 0.000000
outer loop
vertex 332.406128 183.785492 2.000000
vertex 332.406128 200.000000 2.000000
vertex 332.406128 200.000000 0.000000
endloop
endfacet
facet normal -1.000000 0.000000 0.000000
outer loop
vertex 332.406128 183.785492 0.000000
vertex 332.406128 183.785492 2.000000
vertex 332.406128 200.000000 0.000000
endloop
endfacet
facet normal 0.000000 0.000000 1.000000
outer loop
vertex 332.406128 183.785492 2.000000
vertex 334.406128 183.785492 2.000000
vertex 334.406128 200.000000 2.000000
endloop
endfacet
facet normal 0.000000 0.000000 1.000000
outer loop
vertex 334.406128 200.000000 2.000000
vertex 332.406128 200.000000 2.000000
vertex 332.406128 183.785492 2.000000
endloop
endfacet
facet normal 1.000000 0.000000 0.000000
outer loop
vertex 334.406128 183.785492 2.000000
vertex 334.406128 183.785492 -2.000000
vertex 334.406128 200.000000 -2.000000
endloop
endfacet
facet normal 1.000000 0.000000 0.000000
outer loop
vertex 334.406128 200.000000 -2.000000
vertex 334.406128 200.000000 2.000000
vertex 334.406128 183.785492 2.000000
endloop
endfacet
facet normal 0.000000 0.000000 1.000000
outer loop
vertex 292.406128 191.892746 0.000000
vertex 312.406128 191.892746 0.000000
vertex 312.406128 200.000000 0.000000
endloop
endfacet
facet normal 0.000000 0.000000 1.000000
outer loop
vertex 312.406128 200.000000 0.000000
vertex 292.406128 200.000000 0.000000
vertex 292.406128 191.892746 0.000000
endloop
endfacet
facet normal 0.000000 0.000000 1.000000
outer loop
vertex 292.406128 183.785492 0.000000
vertex 312.406128 183.785492 0.000000
vertex 312.406128 191.892746 0.000000
endloop
endfacet
facet normal 0.000000 0.000000 1.000000
outer loop
vertex 312.406128 191.892746 0.000000
vertex 292.406128 191.892746 0.000000
vertex 292.406128 183.785492 0.000000
endloop
endfacet
facet normal 0.000000 0.000000 1.000000
outer loop
vertex 312.406128 183.785492 0.000000
vertex 332.406128 183.785492 0.000000
vertex 332.406128 191.892746 0.000000
endloop
endfacet
facet normal 0.000000 0.000000 1.000000
outer loop
vertex 332.406128 191.892746 0.000000
vertex 312.406128 191.892746 0.000000
vertex 312.406128 183.785492 0.000000
endloop
endfacet
facet normal 0.000000 0.000000 1.000000
outer loop
vertex 292.406128 174.435455 0.000000
vertex 312.406128 174.435455 0.000000
vertex 312.406128 183.785492 0.000000
endloop
endfacet
facet normal 0.000000 0.000000 1.000000
outer loop
vertex 312.406128 183.785492 0.000000
vertex 292.406128 183.785492 0.000000
vertex 292.406128 174.435455 0.000000
endloop
endfacet
facet normal 0.000000 0.000000 1.000000
outer loop
vertex 292.406128 165.085419 0.000000
vertex 312.406128 165.085419 0.000000
vertex 312.406128 174.435455 0.000000
endloop
endfacet
facet normal 0.000000 0.000000 1.000000
outer loop
vertex 312.406128 174.435455 0.000000
vertex 292.406128 174.435455 0.000000
vertex 292.406128 165.085419 0.000000
endloop
endfacet
facet normal 0.000000 0.000000 1.000000
outer loop
vertex 312.406128 165.085419 0.000000
vertex 332.406128 165.085419 0.000000
vertex 332.406128 174.435455 0.000000
endloop
endfacet
facet normal 0.000000 0.000000 1.000000
outer loop
vertex 332.406128 174.435455 0.000000
vertex 312.406128 174.435455 0.000000
vertex 312.406128 165.085419 0.000000
endloop
endfacet
facet normal 0.000000 0.000000 1.000000
outer loop
vertex 292.406128 154.800903 0.000000
vertex 312.406128 154.800903 0.000000
vertex 312.406128 165.085419 0.000000
endloop
endfacet
facet normal 0.000000 0.000000 1.000000
outer loop
vertex 312.406128 165.085419 0.000000
vertex 292.406128 165.085419 0.000000
vertex 292.406128 154.800903 0.000000
endloop
endfacet
facet normal 0.000000 0.000000 1.000000
outer loop
vertex 292.406128 144.516403 0.000000
vertex 312.406128 144.516403 0.000000
vertex 312.406128 154.800903 0.000000
endloop
endfacet
facet normal 0.000000 0.000000 1.000000
outer loop
vertex 312.406128 154.800903 0.000000
vertex 292.406128 154.800903 0.000000
vertex 292.406128 144.516403 0.000000
endloop
endfacet
facet normal 0.000000 0.000000 1.000000
outer loop
vertex 312.406128 144.516403 0.000000
vertex 332.406128 144.516403 0.000000
vertex 332.406128 154.800903 0.000000
endloop
endfacet
facet normal 0.000000 0.000000 1.000000
outer loop
vertex 332.406128 154.800903 0.000000
vertex 312.406128 154.800903 0.000000
vertex 312.406128 144.516403 0.000000
endloop
endfacet
facet normal 0.000000 0.000000 1.000000
outer loop
vertex 292.406128 133.605743 0.000000
vertex 312.406128 133.605743 0.000000
vertex 312.406128 144.516403 0.000000
endloop
endfacet
facet normal 0.000000 0.000000 1.000000
outer loop
vertex 312.406128 144.516403 0.000000
vertex 292.406128 144.516403 0.000000
vertex 292.406128 133.605743 0.000000
endloop
endfacet
facet normal 0.000000 0.000000 1.000000
outer loop
vertex 292.406128 122.695084 0.000000
vertex 312.406128 122.695084 0.000000
vertex 312.406128 133.605743 0.000000
endloop
endfacet
facet normal 0.000000 0.000000 1.000000
outer loop
vertex 312.406128 133.605743 0.000000
vertex 292.406128 133.605743 0.000000
vertex 292.406128 122.695084 0.000000
endloop
endfacet
facet normal 0.000000 0.000000 1.000000
outer loop
vertex 312.406128 122.695084 0.000000
vertex 332.406128 122.695084 0.000000
vertex 332.406128 133.605743 0.000000
endloop
endfacet
facet normal 0.000000 0.000000 1.000000
outer loop
vertex 332.406128 133.605743 0.000000
vertex 312.406128 133.605743 0.000000
vertex 312.406128 122.695084 0.000000
endloop
endfacet
facet normal 0.000000 0.000000 1.000000
outer loop
vertex 292.406128 111.466576 0.000000
vertex 312.406128 111.466576 0.000000
vertex 312.406128 122.695084 0.000000
endloop
endfacet
facet normal 0.000000 0.000000 1.000000
outer loop
vertex 312.406128 122.695084 0.000000
vertex 292.406128 122.695084 0.000000
vertex 292.406128 111.466576 0.000000
endloop
endfacet
facet normal 0.000000 0.000000 1.000000
outer loop
vertex 292.406128 100.238068 0.000000
vertex 312.406128 100.238068 0.000000
vertex 312.406128 111.466576 0.000000
endloop
endfacet
facet normal 0.000000 0.000000 1.000000
outer loop
vertex 312.406128 111.466576 0.000000
vertex 292.406128 111.466576 0.000000
vertex 292.406128 100.238068 0.000000
endloop
endfacet
facet normal 0.000000 0.000000 1.000000
outer loop
vertex 312.406128 100.238068 0.000000
vertex 332.406128 100.238068 0.000000
vertex 332.406128 111.466576 0.000000
endloop
endfacet
facet normal 0.000000 0.000000 1.000000
outer loop
vertex 332.406128 111.466576 0.000000
vertex 312.406128 111.466576 0.000000
vertex 312.406128 100.238068 0.000000
endloop
endfacet
facet normal 0.000000 0.000000 1.000000
outer loop
vertex 292.406128 89.000046 0.000000
vertex 312.406128 89.000046 0.000000
vertex 312.406128 100.238068 0.000000
endloop
endfacet
facet normal 0.000000 0.000000 1.000000
outer loop
vertex 312.406128 100.238068 0.000000
vertex 292.406128 100.238068 0.000000
vertex 292.406128 89.000046 0.000000
endloop
endfacet
facet normal 0.000000 0.000000 1.000000
outer loop
vertex 292.406128 77.762016 0.000000
vertex 312.406128 77.762016 0.000000
vertex 312.406128 89.000046 0.000000
endloop
endfacet
facet normal 0.000000 0.000000 1.000000
outer loop
vertex 312.406128 89.000046 0.000000
vertex 292.406128 89.000046 0.000000
vertex 292.406128 77.762016 0.000000
endloop
endfacet
facet normal 0.000000 0.000000 1.000000
outer loop
vertex 312.406128 77.762016 0.000000
vertex 332.406128 77.762016 0.000000
vertex 332.406128 89.000046 0.000000
endloop
endfacet
facet normal 0.000000 0.000000 1.000000
outer loop
vertex 332.406128 89.000046 0.000000
vertex 312.406128 89.000046 0.000000
vertex 312.406128 77.762016 0.000000
endloop
endfacet
facet normal 0.000000 0.000000 1.000000
outer loop
vertex 292.406128 66.822784 0.000000
vertex 312.406128 66.822784 0.000000
vertex 312.406128 77.762016 0.000000
endloop
endfacet
facet normal 0.000000 0.000000 1.000000
outer loop
vertex 312.406128 77.762016 0.000000
vertex 292.406128 77.762016 0.000000
vertex 292.406128 66.822784 0.000000
endloop
endfacet
facet normal 0.000000 0.000000 1.000000
outer loop
vertex 292.406128 55.883549 0.000000
vertex 312.406128 55.883549 0.000000
vertex 312.406128 66.822784 0.000000
endloop
endfacet
facet normal 0.000000 0.000000 1.000000
outer loop
vertex 312.406128 66.822784 0.000000
vertex 292.406128 66.822784 0.000000
vertex 292.406128 55.883549 0.000000
endloop
endfacet
facet normal 0.000000 0.000000 1.000000
outer loop
vertex 312.406128 55.883549 0.000000
vertex 332.406128 55.883549 0.000000
vertex 332.406128 66.822784 0.000000
endloop
endfacet
facet normal 0.000000 0.000000 1.000000
outer loop
vertex 332.406128 66.822784 0.000000
vertex 312.406128 66.822784 0.000000
vertex 312.406128 55.883549 0.000000
endloop
endfacet
facet normal 0.000000 0.000000 1.000000
outer loop
vertex 292.406128 45.551422 0.000000
vertex 312.406128 45.551422 0.000000
vertex 312.406128 55.883549 0.000000
endloop
endfacet
facet normal 0.000000 0.000000 1.000000
outer loop
vertex 312.406128 55.883549 0.000000
vertex 292.406128 55.883549 0.000000
vertex 292.406128 45.551422 0.000000
endloop
endfacet
facet normal 0.000000 0.000000 1.000000
outer loop
vertex 292.406128 35.219299 0.000000
vertex 312.406128 35.219299 0.000000
vertex 312.406128 45.551422 0.000000
endloop
endfacet
facet normal 0.000000 0.000000 1.000000
outer loop
vertex 312.406128 45.551422 0.000000
vertex 292.406128 45.551422 0.000000
vertex 292.406128 35.219299 0.000000
endloop
endfacet
facet normal 0.000000 0.000000 1.000000
outer loop
vertex 312.406128 35.219299 0.000000
vertex 332.406128 35.219299 0.000000
vertex 332.406128 45.551422 0.000000
endloop
endfacet
facet normal 0.000000 0.000000 1.000000
outer loop
vertex 332.406128 45.551422 0.000000
vertex 312.406128 45.551422 0.000000
vertex 312.406128 35.219299 0.000000
endloop
endfacet
facet normal 0.000000 0.000000 1.000000
outer loop
vertex 292.406128 25.802605 0.000000
vertex 312.406128 25.802605 0.000000
vertex 312.406128 35.219299 0.000000
endloop
endfacet
facet normal 0.000000 0.000000 1.000000
outer loop
vertex 312.406128 35.219299 0.000000
vertex 292.406128 35.219299 0.000000
vertex 292.406128 25.802605 0.000000
endloop
endfacet
facet normal 0.000000 0.000000 1.000000
outer loop
vertex 292.406128 16.385908 0.000000
vertex 312.406128 16.385908 0.000000
vertex 312.406128 25.802605 0.000000
endloop
endfacet
facet normal 0.000000 0.000000 1.000000
outer loop
vertex 312.406128 25.802605 0.000000
vertex 292.406128 25.802605 0.000000
vertex 292.406128 16.385908 0.000000
endloop
endfacet
facet normal 0.000000 0.000000 1.000000
outer loop
vertex 312.406128 16.385908 0.000000
vertex 332.406128 16.385908 0.000000
vertex 332.406128 25.802605 0.000000
endloop
endfacet
facet normal 0.000000 0.000000 1.000000
outer loop
vertex 332.406128 25.802605 0.000000
vertex 312.406128 25.802605 0.000000
vertex 312.406128 16.385908 0.000000
endloop
endfacet
facet normal 0.000000 0.000000 1.000000
outer loop
vertex 292.406128 8.192954 0.000000
vertex 312.406128 8.192954 0.000000
vertex 312.406128 16.385908 0.000000
endloop
endfacet
facet normal 0.000000 0.000000 1.000000
outer loop
vertex 312.406128 16.385908 0.000000
vertex 292.406128 16.385908 0.000000
vertex 292.406128 8.192954 0.000000
endloop
endfacet
facet normal 0.000000 0.000000 1.000000
outer loop
vertex 292.406128 0.000000 0.000000
vertex 312.406128 0.000000 0.000000
vertex 312.406128 8.192954 0.000000
endloop
endfacet
facet normal 0.000000 0.000000 1.000000
outer loop
vertex 312.406128 8.192954 0.000000
vertex 292.406128 8.192954 0.000000
vertex 292.406128 0.000000 0.000000
endloop
endfacet
facet normal 0.000000 0.000000 1.000000
outer loop
vertex 312.406128 0.000000 0.000000
vertex 332.406128 0.000000 0.000000
vertex 332.406128 8.192954 0.000000
endloop
endfacet
facet normal 0.000000 0.000000 1.000000
outer loop
vertex 332.406128 8.192954 0.000000
vertex 312.406128 8.192954 0.000000
vertex 312.406128 0.000000 0.000000
endloop
endfacet
endsolid Exported from Blender-2.75 (sub 0)
